<svg width="7" height="7" viewBox="0 0 7 7" fill="none" xmlns="http://www.w3.org/2000/svg">
<g id="check-mark_63659 1" clip-path="url(#clip0_2677_34079)">
<g id="Group">
<g id="Group_2">
<path id="Vector" d="M3.82831 5.71629C3.67077 5.93012 3.42544 6.06153 3.16018 6.07459C2.89492 6.08779 2.638 5.98088 2.46027 5.78348L0.867493 4.01593C0.614351 3.73519 0.636838 3.30242 0.917583 3.04928C1.1986 2.79614 1.63109 2.81876 1.88423 3.09964L3.01112 4.35027C3.02782 4.36885 3.05205 4.37881 3.07696 4.3776C3.10201 4.37639 3.1249 4.36387 3.13984 4.34394L5.45609 1.20242C5.68028 0.898113 6.10874 0.833347 6.41318 1.05767C6.71736 1.282 6.78199 1.71046 6.55766 2.01463L3.82831 5.71629Z" fill="white"/>
</g>
</g>
</g>
<defs>
<clipPath id="clip0_2677_34079">
<rect width="6" height="6" fill="white" transform="translate(0.691406 0.5)"/>
</clipPath>
</defs>
</svg>
