<svg width="13" height="13" viewBox="0 0 13 13" fill="none" xmlns="http://www.w3.org/2000/svg">
<g id="Frame 980">
<g id="Layer 2">
<path id="Vector" d="M10.6321 1.0455H2.99574C2.56175 1.0455 2.14553 1.2179 1.83865 1.52478C1.53178 1.83166 1.35938 2.24787 1.35938 2.68187V10.3182C1.35938 10.7522 1.53178 11.1684 1.83865 11.4753C2.14553 11.7822 2.56175 11.9546 2.99574 11.9546H10.6321C11.0661 11.9546 11.4823 11.7822 11.7892 11.4753C12.0961 11.1684 12.2685 10.7522 12.2685 10.3182V2.68187C12.2685 2.24787 12.0961 1.83166 11.7892 1.52478C11.4823 1.2179 11.0661 1.0455 10.6321 1.0455ZM9.12665 8.04368C9.18375 8.09258 9.23012 8.15276 9.26286 8.22043C9.2956 8.2881 9.314 8.36181 9.3169 8.43693C9.3198 8.51205 9.30715 8.58696 9.27972 8.65695C9.2523 8.72695 9.21071 8.79052 9.15755 8.84368C9.10439 8.89683 9.04082 8.93843 8.97082 8.96585C8.90083 8.99327 8.82592 9.00593 8.7508 9.00303C8.67568 9.00013 8.60197 8.98173 8.5343 8.94899C8.46663 8.91625 8.40646 8.86987 8.35756 8.81278L6.81392 7.26914L5.27028 8.81278C5.22139 8.86987 5.16121 8.91625 5.09354 8.94899C5.02587 8.98173 4.95216 9.00013 4.87704 9.00303C4.80192 9.00593 4.72701 8.99327 4.65702 8.96585C4.58702 8.93843 4.52345 8.89683 4.47029 8.84368C4.41714 8.79052 4.37554 8.72695 4.34812 8.65695C4.3207 8.58696 4.30804 8.51205 4.31094 8.43693C4.31384 8.36181 4.33224 8.2881 4.36498 8.22043C4.39772 8.15276 4.44409 8.09258 4.50119 8.04368L6.04483 6.50005L4.50119 4.95641C4.41183 4.85207 4.36514 4.71784 4.37044 4.58056C4.37574 4.44329 4.43265 4.31306 4.5298 4.21592C4.62694 4.11878 4.75716 4.06187 4.89444 4.05657C5.03172 4.05127 5.16594 4.09796 5.27028 4.18732L6.81392 5.73096L8.35756 4.18732C8.40646 4.13022 8.46663 4.08385 8.5343 4.05111C8.60197 4.01837 8.67568 3.99997 8.7508 3.99707C8.82592 3.99416 8.90083 4.00682 8.97082 4.03425C9.04082 4.06167 9.10439 4.10326 9.15755 4.15642C9.21071 4.20958 9.2523 4.27315 9.27972 4.34314C9.30715 4.41314 9.3198 4.48805 9.3169 4.56317C9.314 4.63829 9.2956 4.712 9.26286 4.77967C9.23012 4.84734 9.18375 4.90751 9.12665 4.95641L7.58301 6.50005L9.12665 8.04368Z" fill="#4A4A4A"/>
<path id="Vector_2" d="M10.6307 12.5001H2.99432C2.41566 12.5001 1.86071 12.2702 1.45154 11.861C1.04237 11.4519 0.8125 10.8969 0.8125 10.3182V2.68188C0.8125 2.10323 1.04237 1.54827 1.45154 1.1391C1.86071 0.729931 2.41566 0.500061 2.99432 0.500061H10.6307C11.2093 0.500061 11.7643 0.729931 12.1735 1.1391C12.5826 1.54827 12.8125 2.10323 12.8125 2.68188V10.3182C12.8125 10.8969 12.5826 11.4519 12.1735 11.861C11.7643 12.2702 11.2093 12.5001 10.6307 12.5001ZM2.99432 1.59097C2.70499 1.59097 2.42751 1.7059 2.22293 1.91049C2.01834 2.11508 1.90341 2.39255 1.90341 2.68188V10.3182C1.90341 10.6076 2.01834 10.885 2.22293 11.0896C2.42751 11.2942 2.70499 11.4092 2.99432 11.4092H10.6307C10.92 11.4092 11.1975 11.2942 11.4021 11.0896C11.6067 10.885 11.7216 10.6076 11.7216 10.3182V2.68188C11.7216 2.39255 11.6067 2.11508 11.4021 1.91049C11.1975 1.7059 10.92 1.59097 10.6307 1.59097H2.99432Z" fill="#4A4A4A"/>
</g>
</g>
</svg>
