<svg width="45" height="45" viewBox="0 0 45 45" fill="none" xmlns="http://www.w3.org/2000/svg">
<path d="M22.5 11.5908C28.2511 11.5908 33.1186 14.2124 36.1895 16.412C39.8277 19.0179 41.7 21.5385 42.1854 22.4999C41.6994 23.4613 39.8278 25.9819 36.1895 28.5879C33.1186 30.7874 28.2511 33.409 22.5 33.409C16.7488 33.409 11.8814 30.7874 8.81043 28.5879C5.17154 25.9819 3.29996 23.4613 2.8138 22.4999C3.29996 21.5385 5.17154 19.0179 8.80973 16.412C11.8814 14.2124 16.7488 11.5908 22.5 11.5908ZM22.5 8.86353C10.0739 8.86353 0 19.7726 0 22.4999C0 25.2273 10.0739 36.1363 22.5 36.1363C34.9261 36.1363 45 25.2272 45 22.4999C45 19.7727 34.9262 8.86353 22.5 8.86353ZM22.5 14.3182C17.9815 14.3182 14.3182 17.9815 14.3182 22.4999C14.3182 27.0183 17.9815 30.6817 22.5 30.6817C27.0184 30.6817 30.6818 27.0183 30.6818 22.4999C30.6818 17.9815 27.0184 14.3182 22.5 14.3182ZM20.297 22.4999C18.3852 22.4999 16.8354 20.9501 16.8354 19.0383C16.8354 17.1265 18.3852 15.5768 20.297 15.5768C22.2088 15.5768 23.7586 17.1266 23.7586 19.0383C23.7586 20.9501 22.2088 22.4999 20.297 22.4999Z" fill="white"/>
</svg>
