<svg width="78" height="60" viewBox="0 0 78 60" fill="none" xmlns="http://www.w3.org/2000/svg">
<g clip-path="url(#clip0_449_1339)">
<path d="M77.2482 18.2754C76.3624 17.3612 74.9929 17.3577 73.8106 17.2871C72.5682 17.2165 71.3224 17.2201 70.0835 17.2448C68.4635 17.2765 66.8435 17.3436 65.2271 17.4565C64.74 17.5095 60.2859 18.0918 60.2612 17.5624V17.5448C60.2753 17.2412 60.7129 16.7754 60.9812 16.4895C61.8353 15.593 62.6718 14.7636 63.5541 13.8812C65.0859 12.2824 66.84 10.8212 68.4176 9.18712C68.9082 8.65418 70.0694 7.13654 68.8306 7.00242C67.9623 7.03065 66.9918 7.6483 66.2294 8.13536C63.8612 9.7483 61.7294 11.8765 59.5765 13.7612C57.9671 15.0812 56.6294 16.7789 54.7447 17.7742C53.7141 18.3107 52.4153 18.3354 51.3847 18.6707C50.5624 18.8965 49.8 19.7401 50.52 20.3965C50.8729 20.693 51.5824 20.7071 51.96 20.8059C53.1459 21.1236 50.9965 22.8636 50.6506 23.3083C49.4718 24.4977 48.0494 25.7259 46.9871 26.9718C46.14 27.9812 45.5647 29.0612 45.12 30.3495C44.4918 30.4165 43.7082 30.8012 43.2776 30.9283C41.8976 31.4295 40.4929 31.7718 39 31.8777C38.1035 32.0118 32.1953 32.0189 34.2494 30.1483C34.8882 29.6648 35.6647 29.3118 36.3565 28.8848C37.6553 28.1012 39.18 27.0707 39.6706 25.7471C40.4506 23.6612 38.9647 22.0871 36.8471 22.1754C33.7482 22.1224 29.9329 25.8495 29.3012 28.8001C29.1318 29.5801 29.1141 30.2754 29.2165 30.893C25.92 33.4554 23.9823 34.8954 22.3376 36.1871C18.6141 39.6671 13.8318 45.3848 10.1753 49.5707C9.1447 50.7601 8.20235 51.9318 7.07294 53.0577C6.34235 53.7424 5.64353 54.3707 5.53411 53.873C5.48823 53.3895 5.71411 52.8883 5.89764 52.4365C6.22588 51.6918 6.63529 51.0389 7.2 50.1636C7.74353 49.3342 8.40353 48.3848 9.12353 47.3859C12.5753 42.6883 15.3424 39.0812 18.7906 35.3577C21.3282 32.4812 23.8129 30.6636 26.1318 27.7695C26.9259 26.6718 29.4318 23.5271 27.2082 22.8742C24.7341 22.4118 22.2635 24.4024 20.0682 25.5107C17.5624 26.9083 14.8271 28.553 12.2541 29.693C10.6447 30.3248 8.16353 31.5989 6.97764 29.8412C6.41294 28.5389 7.30588 27.0636 7.77176 25.7754C8.86235 23.1918 10.1612 20.8695 12.12 18.9283C12.7729 18.2507 13.5071 17.6471 14.4035 17.3118L14.4565 17.2942C15.6318 16.8389 17.0823 16.8107 18.3141 16.613C19.8671 16.3801 21.2718 16.0801 22.6729 15.5542C26.7776 14.1071 33.4129 8.03654 32.4176 3.09536C31.8776 1.07654 29.7847 0.208302 27.8082 0.155361C21.9741 0.0706549 17.7741 6.5683 13.2918 11.3542C12.5329 12.1377 11.6753 12.6248 10.6129 12.7201C9.49411 12.8436 7.58117 12.7307 7.10117 13.7577C6.71294 14.7107 8.37529 15.5401 8.99294 16.1859C9.76588 16.9518 9 17.9118 8.47764 18.6107C7.25647 20.2271 6.20823 21.7307 5.31176 23.1636C4.00941 25.3271 2.52353 27.9107 2.54117 30.4483C2.63294 35.2907 9.10941 34.8918 12.2223 33.2471C13.5318 32.6189 14.7565 31.8601 16.0765 31.0412C16.4047 30.9036 19.6271 28.5389 19.3659 29.5024C19.1153 30.0883 18.5259 30.7059 18.0812 31.2424C16.8318 32.6754 15.5506 34.1471 14.4 35.5412C11.28 39.3424 7.66588 43.7824 4.66588 47.5412C2.52 50.2801 -0.243531 53.7389 0.370586 57.4695C0.956469 59.8554 3.84353 60.0107 5.50588 58.4507C7.73294 56.4989 9.3847 53.7848 11.1671 51.4907C14.7106 47.0471 20.6082 40.073 25.5141 36.1412C26.5588 35.3048 27.6318 34.4612 28.6871 33.6601C29.1706 33.293 29.6082 32.9824 30.0141 32.6754C31.0871 34.013 33.06 34.6307 35.2341 34.6412C38.0294 34.7824 40.8035 34.3165 43.3765 33.1765C43.8106 32.9612 44.3718 32.7036 44.8624 32.3789C45.18 37.3165 54.0459 35.6224 57.1976 33.4271C57.8224 33.0318 60.5471 31.2742 59.6435 30.4695C58.8671 30.2154 58.0059 30.8259 57.3176 31.1507C55.8176 31.9659 53.8271 32.7071 52.08 33.1836C51.0635 33.4624 49.8353 33.7095 49.0553 33.0071C48.3812 32.4601 48.3494 31.313 48.7376 30.5118C49.5776 28.7683 50.94 27.5859 52.1894 26.033C53.4776 24.5224 54.8188 22.9624 56.2694 21.6848C57.7235 20.386 59.2376 20.1318 61.1118 19.8707C63.2188 19.5777 65.3329 19.3554 67.4541 19.2071C70.1859 19.013 72.9671 18.7907 75.6777 19.2777C76.0129 19.3377 76.3447 19.4083 76.6765 19.4895C77.8588 19.7789 78.0071 19.0448 77.2588 18.2718M16.2282 12.6107C16.8212 11.8095 17.4671 10.9907 18.0953 10.1965C19.5212 8.41418 21.06 6.49418 22.8741 5.17771C24.0424 4.32712 25.7082 3.54006 27.1271 3.75183C28.8247 4.02359 29.1212 5.97889 28.44 7.31654C26.8376 10.7401 23.3329 13.1718 19.6306 13.6942C18.9282 13.8001 18.1376 13.8812 17.3259 13.9095C16.9094 13.9201 16.2459 13.9201 15.9706 13.6695L15.9529 13.6518C15.6988 13.3871 16.0165 12.9036 16.2282 12.6142M32.7706 28.5742L32.7529 28.5671C32.5871 28.3836 32.8235 28.0095 32.9153 27.7907C33.4588 26.7495 34.2953 25.6448 35.3471 25.0801C36.3424 24.5683 37.0059 25.1295 36.12 26.1495C35.4318 26.9295 34.5953 27.4765 33.7553 28.0871C33.4694 28.2636 33.0988 28.613 32.7706 28.5742Z" fill="#007EFE"/>
<path d="M30.8188 47.8553V43.3906L32.8659 37.9624H31.3129L30.1094 41.4671H30.0812L28.8247 37.9624H27.24L29.3188 43.3765V47.8553H30.8188Z" fill="#007EFE"/>
<path d="M38.04 40.3234C38.04 38.7705 37.1224 37.821 35.6224 37.821C34.1224 37.821 33.2047 38.7669 33.2047 40.3234V45.4975C33.2047 47.054 34.1224 47.9999 35.6224 47.9999C37.1224 47.9999 38.04 47.054 38.04 45.4975V40.3234ZM36.54 45.4799C36.54 46.214 36.2153 46.6093 35.6224 46.6093C35.0294 46.6093 34.7012 46.214 34.7012 45.4799V40.334C34.7012 39.5999 35.0259 39.2046 35.6224 39.2046C36.2188 39.2046 36.54 39.5999 36.54 40.334V45.4799Z" fill="#007EFE"/>
<path d="M39.4059 37.9624V45.6389C39.4059 47.1918 40.2953 48 41.7106 48C43.1259 48 44.0435 47.1953 44.0435 45.6389V37.9624H42.5471V45.5965C42.5471 46.3165 42.2224 46.5848 41.6965 46.5848C41.1706 46.5848 40.8494 46.3165 40.8494 45.5965V37.9624H39.4094H39.4059Z" fill="#007EFE"/>
<path d="M50.0788 41.1706V40.4648C50.0788 38.8377 49.2035 37.9624 47.5905 37.9624H45.427V47.8553H46.927V43.6695H47.6188L48.8082 47.8553H50.3894L49.0199 43.3448C49.7117 42.9495 50.0788 42.2153 50.0788 41.1671M48.5788 41.0718C48.5788 41.9048 48.2541 42.2859 47.5341 42.2859H46.927V39.3459H47.5341C48.2541 39.3459 48.5788 39.7271 48.5788 40.5601V41.0683V41.0718Z" fill="#007EFE"/>
<path d="M16.6448 49.6978L14.933 59.5907H16.433L16.7577 57.3425H18.413L18.7377 59.5907H20.2659L18.5542 49.6978H16.6483H16.6448ZM16.9553 55.9872L17.5624 51.8189H17.6047L18.2118 55.9872H16.9518H16.9553Z" fill="#007EFE"/>
<path d="M23.4812 49.6976H21.3318V59.5906H23.4812C25.0906 59.5906 25.9694 58.7153 25.9694 57.0882V52.1964C25.9694 50.5694 25.0941 49.6941 23.4812 49.6941M24.473 56.9894C24.473 57.8223 24.1483 58.207 23.4283 58.207H22.8353V51.0847H23.4283C24.1483 51.0847 24.473 51.4659 24.473 52.2988V56.9929V56.9894Z" fill="#007EFE"/>
<path d="M30.5893 55.013H30.5611L29.3893 49.6978H27.4235V59.5907H28.8388V52.7225H28.867L30.1093 58.1789H31.0023L32.2446 52.7225H32.2729V59.5907H33.7693V49.6978H31.7505L30.5893 55.013Z" fill="#007EFE"/>
<path d="M36.8788 49.6978H35.3788V59.5907H36.8788V49.6978Z" fill="#007EFE"/>
<path d="M40.793 53.8518C39.8189 52.9624 39.5365 52.5106 39.5365 51.9565V51.7447C39.5365 51.18 39.8471 50.94 40.2848 50.94C40.8071 50.94 41.0612 51.2506 41.0612 51.9283V52.2389L42.5012 52.0977V51.8153C42.5012 50.3577 41.6542 49.553 40.2671 49.553C38.8801 49.553 38.033 50.3153 38.033 51.773V52.013C38.033 53.0859 38.4848 53.8942 39.8154 55.1224C40.7895 56.0118 41.0718 56.4636 41.0718 57.0883V57.3989C41.0718 58.1047 40.7048 58.3483 40.253 58.3483C39.7165 58.3483 39.4059 58.0236 39.4059 57.3565V56.6789L37.9659 56.82V57.4695C37.9659 58.9271 38.8977 59.7318 40.2848 59.7318C41.6718 59.7318 42.5754 58.9694 42.5754 57.5118V57.0318C42.5754 55.8883 42.1236 55.0836 40.793 53.8518Z" fill="#007EFE"/>
<path d="M45.8365 53.8518C44.8623 52.9624 44.5765 52.5106 44.5765 51.9565V51.7447C44.5765 51.18 44.887 50.94 45.3247 50.94C45.847 50.94 46.1012 51.2506 46.1012 51.9283V52.2389L47.5412 52.0977V51.8153C47.5412 50.3577 46.6941 49.553 45.307 49.553C43.92 49.553 43.0765 50.3153 43.0765 51.773V52.013C43.0765 53.0859 43.5282 53.8942 44.8588 55.1224C45.8329 56.0118 46.1153 56.4636 46.1153 57.0883V57.3989C46.1153 58.1047 45.7482 58.3483 45.2965 58.3483C44.76 58.3483 44.4494 58.0236 44.4494 57.3565V56.6789L43.0094 56.82V57.4695C43.0094 58.9271 43.9412 59.7318 45.3282 59.7318C46.7153 59.7318 47.6188 58.9694 47.6188 57.5118V57.0318C47.6188 55.8883 47.167 55.0836 45.8365 53.8518Z" fill="#007EFE"/>
<path d="M50.0789 49.6978H48.5789V59.5907H50.0789V49.6978Z" fill="#007EFE"/>
<path d="M53.9471 49.5564C52.4471 49.5564 51.5294 50.5023 51.5294 52.0587V57.2329C51.5294 58.7893 52.4471 59.7352 53.9471 59.7352C55.4471 59.7352 56.3647 58.7893 56.3647 57.2329V52.0587C56.3647 50.5058 55.4471 49.5564 53.9471 49.5564ZM54.8682 57.2152C54.8682 57.9493 54.5435 58.3446 53.9506 58.3446C53.3577 58.3446 53.0294 57.9493 53.0294 57.2152V52.0693C53.0294 51.3352 53.3541 50.9399 53.9506 50.9399C54.5471 50.9399 54.8682 51.3352 54.8682 52.0693V57.2152Z" fill="#007EFE"/>
<path d="M61.2812 55.5919H61.253L59.4883 49.6978H57.8188V59.5907H59.2341V53.033H59.2624L61.2247 59.5907H62.6965V49.6978H61.2812V55.5919Z" fill="#007EFE"/>
</g>
<defs>
<clipPath id="clip0_449_1339">
<rect width="78" height="60" fill="white"/>
</clipPath>
</defs>
</svg>
