<svg width="79" height="60" viewBox="0 0 79 60" fill="none" xmlns="http://www.w3.org/2000/svg">
<g clip-path="url(#clip0_1356_17152)">
<path d="M77.7482 18.2754C76.8624 17.3612 75.4929 17.3577 74.3106 17.2871C73.0682 17.2165 71.8224 17.2201 70.5835 17.2448C68.9635 17.2765 67.3435 17.3436 65.7271 17.4565C65.24 17.5095 60.7859 18.0918 60.7612 17.5624V17.5448C60.7753 17.2412 61.2129 16.7754 61.4812 16.4895C62.3353 15.593 63.1718 14.7636 64.0541 13.8812C65.5859 12.2824 67.34 10.8212 68.9176 9.18712C69.4082 8.65418 70.5694 7.13654 69.3306 7.00242C68.4623 7.03065 67.4918 7.6483 66.7294 8.13536C64.3612 9.7483 62.2294 11.8765 60.0765 13.7612C58.4671 15.0812 57.1294 16.7789 55.2447 17.7742C54.2141 18.3107 52.9153 18.3354 51.8847 18.6707C51.0624 18.8965 50.3 19.7401 51.02 20.3965C51.3729 20.693 52.0824 20.7071 52.46 20.8059C53.6459 21.1236 51.4965 22.8636 51.1506 23.3083C49.9718 24.4977 48.5494 25.7259 47.4871 26.9718C46.64 27.9812 46.0647 29.0612 45.62 30.3495C44.9918 30.4165 44.2082 30.8012 43.7776 30.9283C42.3976 31.4295 40.9929 31.7718 39.5 31.8777C38.6035 32.0118 32.6953 32.0189 34.7494 30.1483C35.3882 29.6648 36.1647 29.3118 36.8565 28.8848C38.1553 28.1012 39.68 27.0707 40.1706 25.7471C40.9506 23.6612 39.4647 22.0871 37.3471 22.1754C34.2482 22.1224 30.4329 25.8495 29.8012 28.8001C29.6318 29.5801 29.6141 30.2754 29.7165 30.893C26.42 33.4554 24.4823 34.8954 22.8376 36.1871C19.1141 39.6671 14.3318 45.3848 10.6753 49.5707C9.6447 50.7601 8.70235 51.9318 7.57294 53.0577C6.84235 53.7424 6.14353 54.3707 6.03411 53.873C5.98823 53.3895 6.21411 52.8883 6.39764 52.4365C6.72588 51.6918 7.13529 51.0389 7.7 50.1636C8.24353 49.3342 8.90353 48.3848 9.62353 47.3859C13.0753 42.6883 15.8424 39.0812 19.2906 35.3577C21.8282 32.4812 24.3129 30.6636 26.6318 27.7695C27.4259 26.6718 29.9318 23.5271 27.7082 22.8742C25.2341 22.4118 22.7635 24.4024 20.5682 25.5107C18.0624 26.9083 15.3271 28.553 12.7541 29.693C11.1447 30.3248 8.66353 31.5989 7.47764 29.8412C6.91294 28.5389 7.80588 27.0636 8.27176 25.7754C9.36235 23.1918 10.6612 20.8695 12.62 18.9283C13.2729 18.2507 14.0071 17.6471 14.9035 17.3118L14.9565 17.2942C16.1318 16.8389 17.5823 16.8107 18.8141 16.613C20.3671 16.3801 21.7718 16.0801 23.1729 15.5542C27.2776 14.1071 33.9129 8.03654 32.9176 3.09536C32.3776 1.07654 30.2847 0.208302 28.3082 0.155361C22.4741 0.0706549 18.2741 6.5683 13.7918 11.3542C13.0329 12.1377 12.1753 12.6248 11.1129 12.7201C9.99411 12.8436 8.08117 12.7307 7.60117 13.7577C7.21294 14.7107 8.87529 15.5401 9.49294 16.1859C10.2659 16.9518 9.5 17.9118 8.97764 18.6107C7.75647 20.2271 6.70823 21.7307 5.81176 23.1636C4.50941 25.3271 3.02353 27.9107 3.04117 30.4483C3.13294 35.2907 9.60941 34.8918 12.7223 33.2471C14.0318 32.6189 15.2565 31.8601 16.5765 31.0412C16.9047 30.9036 20.1271 28.5389 19.8659 29.5024C19.6153 30.0883 19.0259 30.7059 18.5812 31.2424C17.3318 32.6754 16.0506 34.1471 14.9 35.5412C11.78 39.3424 8.16588 43.7824 5.16588 47.5412C3.02 50.2801 0.256469 53.7389 0.870586 57.4695C1.45647 59.8554 4.34353 60.0107 6.00588 58.4507C8.23294 56.4989 9.8847 53.7848 11.6671 51.4907C15.2106 47.0471 21.1082 40.073 26.0141 36.1412C27.0588 35.3048 28.1318 34.4612 29.1871 33.6601C29.6706 33.293 30.1082 32.9824 30.5141 32.6754C31.5871 34.013 33.56 34.6307 35.7341 34.6412C38.5294 34.7824 41.3035 34.3165 43.8765 33.1765C44.3106 32.9612 44.8718 32.7036 45.3624 32.3789C45.68 37.3165 54.5459 35.6224 57.6976 33.4271C58.3224 33.0318 61.0471 31.2742 60.1435 30.4695C59.3671 30.2154 58.5059 30.8259 57.8176 31.1507C56.3176 31.9659 54.3271 32.7071 52.58 33.1836C51.5635 33.4624 50.3353 33.7095 49.5553 33.0071C48.8812 32.4601 48.8494 31.313 49.2376 30.5118C50.0776 28.7683 51.44 27.5859 52.6894 26.033C53.9776 24.5224 55.3188 22.9624 56.7694 21.6848C58.2235 20.386 59.7376 20.1318 61.6118 19.8707C63.7188 19.5777 65.8329 19.3554 67.9541 19.2071C70.6859 19.013 73.4671 18.7907 76.1777 19.2777C76.5129 19.3377 76.8447 19.4083 77.1765 19.4895C78.3588 19.7789 78.5071 19.0448 77.7588 18.2718M16.7282 12.6107C17.3212 11.8095 17.9671 10.9907 18.5953 10.1965C20.0212 8.41418 21.56 6.49418 23.3741 5.17771C24.5424 4.32712 26.2082 3.54006 27.6271 3.75183C29.3247 4.02359 29.6212 5.97889 28.94 7.31654C27.3376 10.7401 23.8329 13.1718 20.1306 13.6942C19.4282 13.8001 18.6376 13.8812 17.8259 13.9095C17.4094 13.9201 16.7459 13.9201 16.4706 13.6695L16.4529 13.6518C16.1988 13.3871 16.5165 12.9036 16.7282 12.6142M33.2706 28.5742L33.2529 28.5671C33.0871 28.3836 33.3235 28.0095 33.4153 27.7907C33.9588 26.7495 34.7953 25.6448 35.8471 25.0801C36.8424 24.5683 37.5059 25.1295 36.62 26.1495C35.9318 26.9295 35.0953 27.4765 34.2553 28.0871C33.9694 28.2636 33.5988 28.613 33.2706 28.5742Z" fill="#007EFE"/>
<path d="M31.3188 47.8553V43.3906L33.3659 37.9624H31.8129L30.6094 41.4671H30.5812L29.3247 37.9624H27.74L29.8188 43.3765V47.8553H31.3188Z" fill="#007EFE"/>
<path d="M38.54 40.3235C38.54 38.7706 37.6224 37.8212 36.1224 37.8212C34.6224 37.8212 33.7047 38.767 33.7047 40.3235V45.4976C33.7047 47.0541 34.6224 48 36.1224 48C37.6224 48 38.54 47.0541 38.54 45.4976V40.3235ZM37.04 45.48C37.04 46.2141 36.7153 46.6094 36.1224 46.6094C35.5294 46.6094 35.2012 46.2141 35.2012 45.48V40.3341C35.2012 39.6 35.5259 39.2047 36.1224 39.2047C36.7188 39.2047 37.04 39.6 37.04 40.3341V45.48Z" fill="#007EFE"/>
<path d="M39.9059 37.9624V45.6389C39.9059 47.1918 40.7953 48 42.2106 48C43.6259 48 44.5435 47.1953 44.5435 45.6389V37.9624H43.0471V45.5965C43.0471 46.3165 42.7224 46.5848 42.1965 46.5848C41.6706 46.5848 41.3494 46.3165 41.3494 45.5965V37.9624H39.9094H39.9059Z" fill="#007EFE"/>
<path d="M50.5788 41.1706V40.4648C50.5788 38.8377 49.7035 37.9624 48.0905 37.9624H45.927V47.8553H47.427V43.6695H48.1188L49.3082 47.8553H50.8894L49.5199 43.3448C50.2117 42.9495 50.5788 42.2153 50.5788 41.1671M49.0788 41.0718C49.0788 41.9048 48.7541 42.2859 48.0341 42.2859H47.427V39.3459H48.0341C48.7541 39.3459 49.0788 39.7271 49.0788 40.5601V41.0683V41.0718Z" fill="#007EFE"/>
<path d="M17.1448 49.6976L15.433 59.5906H16.933L17.2577 57.3423H18.913L19.2377 59.5906H20.7659L19.0542 49.6976H17.1483H17.1448ZM17.4553 55.987L18.0624 51.8188H18.1047L18.7118 55.987H17.4518H17.4553Z" fill="#007EFE"/>
<path d="M23.9812 49.6976H21.8318V59.5906H23.9812C25.5906 59.5906 26.4694 58.7153 26.4694 57.0882V52.1964C26.4694 50.5694 25.5941 49.6941 23.9812 49.6941M24.973 56.9894C24.973 57.8223 24.6483 58.207 23.9283 58.207H23.3353V51.0847H23.9283C24.6483 51.0847 24.973 51.4659 24.973 52.2988V56.9929V56.9894Z" fill="#007EFE"/>
<path d="M31.0893 55.0129H31.0611L29.8893 49.6976H27.9235V59.5906H29.3388V52.7223H29.367L30.6093 58.1788H31.5023L32.7446 52.7223H32.7729V59.5906H34.2693V49.6976H32.2505L31.0893 55.0129Z" fill="#007EFE"/>
<path d="M37.3788 49.6976H35.8788V59.5906H37.3788V49.6976Z" fill="#007EFE"/>
<path d="M41.293 53.8517C40.3189 52.9623 40.0365 52.5105 40.0365 51.9564V51.7446C40.0365 51.1799 40.3471 50.9399 40.7848 50.9399C41.3071 50.9399 41.5612 51.2505 41.5612 51.9282V52.2387L43.0012 52.0976V51.8152C43.0012 50.3576 42.1542 49.5529 40.7671 49.5529C39.3801 49.5529 38.533 50.3152 38.533 51.7729V52.0129C38.533 53.0858 38.9848 53.894 40.3154 55.1223C41.2895 56.0117 41.5718 56.4634 41.5718 57.0882V57.3987C41.5718 58.1046 41.2048 58.3482 40.753 58.3482C40.2165 58.3482 39.9059 58.0234 39.9059 57.3564V56.6787L38.4659 56.8199V57.4693C38.4659 58.927 39.3977 59.7317 40.7848 59.7317C42.1718 59.7317 43.0754 58.9693 43.0754 57.5117V57.0317C43.0754 55.8882 42.6236 55.0834 41.293 53.8517Z" fill="#007EFE"/>
<path d="M46.3365 53.8517C45.3623 52.9623 45.0765 52.5105 45.0765 51.9564V51.7446C45.0765 51.1799 45.387 50.9399 45.8247 50.9399C46.347 50.9399 46.6012 51.2505 46.6012 51.9282V52.2387L48.0412 52.0976V51.8152C48.0412 50.3576 47.1941 49.5529 45.807 49.5529C44.42 49.5529 43.5765 50.3152 43.5765 51.7729V52.0129C43.5765 53.0858 44.0282 53.894 45.3588 55.1223C46.3329 56.0117 46.6153 56.4634 46.6153 57.0882V57.3987C46.6153 58.1046 46.2482 58.3482 45.7965 58.3482C45.26 58.3482 44.9494 58.0234 44.9494 57.3564V56.6787L43.5094 56.8199V57.4693C43.5094 58.927 44.4412 59.7317 45.8282 59.7317C47.2153 59.7317 48.1188 58.9693 48.1188 57.5117V57.0317C48.1188 55.8882 47.667 55.0834 46.3365 53.8517Z" fill="#007EFE"/>
<path d="M50.5789 49.6976H49.0789V59.5906H50.5789V49.6976Z" fill="#007EFE"/>
<path d="M54.4471 49.5564C52.9471 49.5564 52.0294 50.5023 52.0294 52.0587V57.2329C52.0294 58.7893 52.9471 59.7352 54.4471 59.7352C55.9471 59.7352 56.8647 58.7893 56.8647 57.2329V52.0587C56.8647 50.5058 55.9471 49.5564 54.4471 49.5564ZM55.3682 57.2152C55.3682 57.9493 55.0435 58.3446 54.4506 58.3446C53.8577 58.3446 53.5294 57.9493 53.5294 57.2152V52.0693C53.5294 51.3352 53.8541 50.9399 54.4506 50.9399C55.0471 50.9399 55.3682 51.3352 55.3682 52.0693V57.2152Z" fill="#007EFE"/>
<path d="M61.7812 55.5917H61.753L59.9883 49.6976H58.3188V59.5906H59.7341V53.0329H59.7624L61.7247 59.5906H63.1965V49.6976H61.7812V55.5917Z" fill="#007EFE"/>
</g>
<defs>
<clipPath id="clip0_1356_17152">
<rect width="78" height="60" fill="white" transform="translate(0.5)"/>
</clipPath>
</defs>
</svg>
