<svg width="80" height="80" viewBox="0 0 80 80" fill="none" xmlns="http://www.w3.org/2000/svg">
<g clip-path="url(#clip0_449_1221)">
<mask id="mask0_449_1221" style="mask-type:luminance" maskUnits="userSpaceOnUse" x="0" y="-1" width="80" height="81">
<path d="M18.1011 -0.00439453H62.0308C71.9121 -0.00439453 79.9385 8.01759 79.9385 17.9033V61.833C79.9385 71.7143 71.9165 79.7407 62.0308 79.7407H18.1011C8.21979 79.7407 0.19342 71.7187 0.19342 61.833V17.9033C0.19342 8.02198 8.21539 -0.00439453 18.1011 -0.00439453Z" fill="white"/>
</mask>
<g mask="url(#mask0_449_1221)">
<path d="M38.8657 -39.8711L-39.6653 41.0535L41.2593 119.585L119.79 38.6599L38.8657 -39.8711Z" fill="url(#paint0_radial_449_1221)"/>
</g>
<path d="M73.0769 28.1538C72.3472 27.4022 71.2264 27.3978 70.2549 27.345C69.2351 27.2879 68.2154 27.2923 67.1956 27.3099C65.8681 27.3362 64.5362 27.389 63.2088 27.4857C62.8088 27.5296 59.156 28.0088 59.134 27.5736V27.5604C59.1472 27.3099 59.5033 26.9274 59.7275 26.6945C60.4264 25.9604 61.1165 25.2791 61.8417 24.5538C63.0989 23.2439 64.5406 22.0439 65.833 20.6989C66.2373 20.2637 67.1868 19.0154 66.1714 18.9055C65.4593 18.9274 64.6637 19.4329 64.0395 19.8373C62.0967 21.1604 60.3472 22.9099 58.5802 24.4571C57.2615 25.5384 56.1626 26.9318 54.6154 27.7494C53.7714 28.189 52.7033 28.211 51.8593 28.4835C51.1824 28.6681 50.5582 29.3626 51.1472 29.8989C51.4373 30.1406 52.0176 30.1538 52.3297 30.2373C53.3055 30.4967 51.5384 31.9253 51.2571 32.2945C50.2901 33.2703 49.1209 34.2769 48.2505 35.3011C47.556 36.1318 47.0813 37.0154 46.7165 38.0703C46.2022 38.1231 45.556 38.4439 45.2044 38.545C44.0703 38.9582 42.9187 39.2395 41.6923 39.3231C40.9582 39.4329 36.1055 39.4417 37.7934 37.9033C38.3165 37.5077 38.9538 37.2176 39.5209 36.8659C40.5846 36.2241 41.8417 35.3758 42.2417 34.2901C42.8835 32.5802 41.6615 31.2879 39.9253 31.3582C37.3802 31.3143 34.2505 34.3736 33.7319 36.7956C33.5956 37.4373 33.578 38.0088 33.6615 38.5143C30.9538 40.6154 29.367 41.7978 28.0176 42.8615C24.9626 45.7187 21.0373 50.4132 18.0351 53.8461C17.1912 54.8219 16.4176 55.7846 15.4857 56.7077C14.8879 57.2703 14.3121 57.7846 14.2198 57.3758C14.1802 56.9802 14.3692 56.567 14.5187 56.1978C14.7868 55.5868 15.1253 55.0505 15.5912 54.334C16.0351 53.6527 16.5758 52.8747 17.1692 52.0527C20 48.1978 22.2725 45.2351 25.1033 42.1802C27.1868 39.8198 29.2264 38.3252 31.1253 35.9516C31.7758 35.0505 33.833 32.4703 32.0088 31.934C29.978 31.556 27.9516 33.1868 26.1494 34.0967C24.0923 35.2439 21.8505 36.5934 19.7362 37.5296C18.4132 38.0483 16.378 39.0945 15.4022 37.6527C14.9406 36.5846 15.6747 35.3758 16.0527 34.3121C16.9494 32.189 18.0132 30.2857 19.622 28.6945C20.1582 28.1362 20.7604 27.6439 21.4945 27.367L21.5384 27.3494C22.5011 26.9758 23.6923 26.9538 24.7033 26.7912C25.978 26.5978 27.1297 26.356 28.2813 25.9252C31.6483 24.7384 37.0945 19.7582 36.2813 15.7011C35.8373 14.0439 34.1187 13.3318 32.4967 13.2879C27.7099 13.2176 24.2637 18.5494 20.5802 22.4791C19.956 23.1209 19.2527 23.5209 18.3824 23.6C17.4637 23.7011 15.8945 23.6088 15.4989 24.4527C15.1824 25.2351 16.545 25.9165 17.0505 26.4439C17.6835 27.0725 17.0549 27.8593 16.6286 28.4307C15.6264 29.7582 14.7648 30.9934 14.0307 32.167C12.9582 33.9428 11.745 36.0615 11.7538 38.145C11.8286 42.1187 17.1472 41.789 19.6967 40.4439C20.7736 39.9296 21.7758 39.3055 22.8615 38.6329C23.1296 38.5187 25.7758 36.5802 25.5604 37.3714C25.3538 37.8549 24.8703 38.3604 24.5055 38.8C23.4769 39.9736 22.4308 41.1824 21.4857 42.3296C18.9231 45.4505 15.956 49.0945 13.4945 52.1802C11.7362 54.4263 9.46372 57.2659 9.96921 60.3296C10.4527 62.2857 12.8176 62.4132 14.1846 61.134C16.0132 59.5296 17.367 57.3055 18.8307 55.4241C21.7406 51.7802 26.5802 46.0527 30.6066 42.8263C31.4637 42.1406 32.3428 41.4461 33.2132 40.7912C33.6088 40.4879 33.9692 40.2373 34.3033 39.9824C35.1868 41.0769 36.8 41.5868 38.5846 41.5956C40.8791 41.7143 43.156 41.3318 45.2659 40.3912C45.622 40.2154 46.0791 40.0044 46.4835 39.7362C46.7428 43.789 54.022 42.4 56.611 40.5978C57.1209 40.2725 59.3582 38.8307 58.6198 38.1714C57.9824 37.9648 57.2747 38.4615 56.7077 38.7296C55.4769 39.3978 53.8417 40.0088 52.4088 40.3956C51.5736 40.6241 50.567 40.8264 49.9253 40.2505C49.3714 39.8022 49.345 38.8615 49.6659 38.2022C50.3516 36.7736 51.4725 35.8022 52.5011 34.523C53.5604 33.2835 54.6593 32.0044 55.8505 30.9538C57.0417 29.8901 58.2857 29.6791 59.8286 29.4637C61.556 29.222 63.2923 29.0417 65.0329 28.9187C67.2747 28.7604 69.5604 28.5758 71.7846 28.9758C72.0615 29.0242 72.334 29.0813 72.6066 29.1472C73.5736 29.3846 73.7011 28.7824 73.0857 28.1494M22.9934 23.5077C23.4813 22.8527 24.0088 22.1758 24.5231 21.5253C25.6923 20.0615 26.9538 18.4835 28.4483 17.4066C29.4066 16.7077 30.7736 16.0659 31.9384 16.2373C33.3319 16.4615 33.5736 18.0659 33.0154 19.1604C31.7011 21.9736 28.822 23.9692 25.7846 24.3956C25.2088 24.4835 24.5582 24.5494 23.8945 24.5714C23.5516 24.5802 23.0066 24.5802 22.7824 24.3736L22.7692 24.356C22.5626 24.1362 22.822 23.745 22.9934 23.5033M36.567 36.6066L36.5538 36.5978C36.4176 36.4483 36.611 36.1406 36.6857 35.9604C37.1341 35.1077 37.8154 34.2022 38.6813 33.7362C39.4989 33.3187 40.0439 33.7758 39.3187 34.611C38.7516 35.2527 38.0659 35.7011 37.3758 36.2022C37.1384 36.3472 36.8395 36.6329 36.567 36.6022" fill="white"/>
<path d="M34.967 52.4351V48.7692L36.6461 44.3121H35.3714L34.3868 47.1912H34.3604L33.3319 44.3121H32.0308L33.7363 48.756V52.4351H34.967Z" fill="white"/>
<path d="M40.8923 46.2505C40.8923 44.9758 40.1362 44.1978 38.9099 44.1978C37.6835 44.1978 36.9274 44.9758 36.9274 46.2505V50.4967C36.9274 51.7714 37.6835 52.5494 38.9099 52.5494C40.1362 52.5494 40.8923 51.7714 40.8923 50.4967V46.2505ZM39.6615 50.4835C39.6615 51.0857 39.3934 51.411 38.9055 51.411C38.4175 51.411 38.1494 51.0857 38.1494 50.4835V46.2593C38.1494 45.6571 38.4175 45.3319 38.9055 45.3319C39.3934 45.3319 39.6615 45.6571 39.6615 46.2593V50.4835Z" fill="white"/>
<path d="M42.0176 44.3121V50.611C42.0176 51.8857 42.7472 52.5494 43.9077 52.5494C45.0681 52.5494 45.8198 51.8857 45.8198 50.611V44.3121H44.589V50.5758C44.589 51.1692 44.3209 51.389 43.8945 51.389C43.4681 51.389 43.2 51.1692 43.2 50.5758V44.3121H42.0176Z" fill="white"/>
<path d="M50.7736 46.9494V46.3692C50.7736 45.033 50.0528 44.3165 48.7297 44.3165H46.9539V52.4395H48.1846V49.0066H48.7517L49.7275 52.4395H51.0286L49.9033 48.7384C50.4703 48.4132 50.7736 47.811 50.7736 46.9538M49.5429 46.8659C49.5429 47.5516 49.2747 47.8637 48.6857 47.8637H48.1846V45.4505H48.6857C49.2791 45.4505 49.5429 45.7626 49.5429 46.4483V46.8659Z" fill="white"/>
<path d="M23.3318 53.9472L21.9296 62.0659H23.1604L23.4285 60.2198H24.7868L25.0549 62.0659H26.3077L24.9055 53.9472H23.3406H23.3318ZM23.5868 59.1077L24.0835 55.6879H24.1186L24.6197 59.1077H23.5868Z" fill="white"/>
<path d="M28.945 53.9472H27.1824V62.0659H28.945C30.2681 62.0659 30.989 61.345 30.989 60.0132V56C30.989 54.6637 30.2681 53.9472 28.945 53.9472ZM29.7582 59.9297C29.7582 60.6154 29.4901 60.9275 28.9011 60.9275H28.4131V55.0813H28.9011C29.4945 55.0813 29.7582 55.3934 29.7582 56.0791V59.9297Z" fill="white"/>
<path d="M34.7824 58.3077H34.756L33.7934 53.9472H32.1802V62.0659H33.3406V56.4264H33.367L34.3868 60.9055H35.1164L36.1362 56.4264H36.1626V62.0659H37.389V53.9472H35.7318L34.7824 58.3077Z" fill="white"/>
<path d="M39.9429 53.9472H38.7121V62.0659H39.9429V53.9472Z" fill="white"/>
<path d="M43.156 57.3538C42.356 56.6242 42.1231 56.2505 42.1231 55.7978V55.622C42.1231 55.156 42.378 54.9582 42.7384 54.9582C43.1692 54.9582 43.3758 55.2132 43.3758 55.7714V56.0264L44.5582 55.9121V55.6791C44.5582 54.4835 43.8637 53.8242 42.7252 53.8242C41.5868 53.8242 40.8923 54.4483 40.8923 55.6439V55.8417C40.8923 56.7253 41.2615 57.3846 42.356 58.3956C43.156 59.1253 43.389 59.4989 43.389 60.0088V60.2637C43.389 60.8439 43.0857 61.0417 42.7165 61.0417C42.2769 61.0417 42.022 60.7736 42.022 60.2286V59.6703L40.8395 59.7846V60.3165C40.8395 61.5121 41.6044 62.1714 42.7428 62.1714C43.8813 62.1714 44.6242 61.5472 44.6242 60.3516V59.956C44.6242 59.0154 44.2549 58.356 43.1648 57.345" fill="white"/>
<path d="M47.2923 57.3538C46.4923 56.6242 46.2593 56.2505 46.2593 55.7978V55.622C46.2593 55.156 46.5143 54.9582 46.8747 54.9582C47.3011 54.9582 47.5121 55.2132 47.5121 55.7714V56.0264L48.6945 55.9121V55.6791C48.6945 54.4835 48 53.8242 46.8615 53.8242C45.7231 53.8242 45.0286 54.4483 45.0286 55.6439V55.8417C45.0286 56.7253 45.3978 57.3846 46.4923 58.3956C47.2923 59.1253 47.5253 59.4989 47.5253 60.0088V60.2637C47.5253 60.8439 47.222 61.0417 46.8527 61.0417C46.4132 61.0417 46.1582 60.7736 46.1582 60.2286V59.6703L44.9758 59.7846V60.3165C44.9758 61.5121 45.7407 62.1714 46.8791 62.1714C48.0176 62.1714 48.7604 61.5472 48.7604 60.3516V59.956C48.7604 59.0154 48.3912 58.356 47.3011 57.345" fill="white"/>
<path d="M50.7736 53.9472H49.5428V62.0659H50.7736V53.9472Z" fill="white"/>
<path d="M53.9517 53.8286C52.7209 53.8286 51.9692 54.6066 51.9692 55.8813V60.1274C51.9692 61.4022 52.7253 62.1802 53.9517 62.1802C55.178 62.1802 55.9341 61.4022 55.9341 60.1274V55.8813C55.9341 54.6066 55.178 53.8286 53.9517 53.8286ZM54.7077 60.1187C54.7077 60.7209 54.4396 61.0461 53.9517 61.0461C53.4637 61.0461 53.1956 60.7209 53.1956 60.1187V55.8945C53.1956 55.2923 53.4637 54.967 53.9517 54.967C54.4396 54.967 54.7077 55.2923 54.7077 55.8945V60.1187Z" fill="white"/>
<path d="M59.9692 58.7824H59.9472L58.4967 53.9472H57.1296V62.0659H58.2901V56.6813H58.3121L59.9252 62.0659H61.1296V53.9472H59.9692V58.7824Z" fill="white"/>
</g>
<defs>
<radialGradient id="paint0_radial_449_1221" cx="0" cy="0" r="1" gradientUnits="userSpaceOnUse" gradientTransform="translate(71.3066 8.86149) rotate(134.14) scale(92.7692)">
<stop stop-color="#007EFE"/>
<stop offset="1" stop-color="#0449BA"/>
</radialGradient>
<clipPath id="clip0_449_1221">
<rect width="80" height="80" fill="white"/>
</clipPath>
</defs>
</svg>
