<svg width="10" height="10" viewBox="0 0 10 10" fill="none" xmlns="http://www.w3.org/2000/svg">
<g clip-path="url(#clip0_356_1674)">
<path d="M9.36682 3.90681C9.30535 3.71665 9.13668 3.58158 8.93713 3.5636L6.22654 3.31748L5.1547 0.808732C5.07567 0.624873 4.89568 0.505859 4.6957 0.505859C4.49572 0.505859 4.31573 0.624873 4.2367 0.809161L3.16486 3.31748L0.453841 3.5636C0.254649 3.58202 0.0864109 3.71665 0.0245754 3.90681C-0.0372601 4.09698 0.0198464 4.30555 0.17053 4.43704L2.21941 6.23392L1.61525 8.89528C1.57104 9.09096 1.64699 9.29324 1.80935 9.4106C1.89662 9.47366 1.99873 9.50576 2.10169 9.50576C2.19047 9.50576 2.27853 9.48182 2.35756 9.43454L4.6957 8.03711L7.03298 9.43454C7.20401 9.53743 7.41961 9.52804 7.58162 9.4106C7.74405 9.29288 7.81993 9.09053 7.77572 8.89528L7.17156 6.23392L9.22044 4.43739C9.37112 4.30555 9.42866 4.09733 9.36682 3.90681Z" fill="#FFC107"/>
</g>
<defs>
<clipPath id="clip0_356_1674">
<rect width="9.3913" height="9.3913" fill="white" transform="translate(0 0.304443)"/>
</clipPath>
</defs>
</svg>
