<svg width="10" height="10" viewBox="0 0 10 10" fill="none" xmlns="http://www.w3.org/2000/svg">
<g clip-path="url(#clip0_356_1682)">
<path d="M9.92684 3.89983C9.89476 3.80066 9.8339 3.71329 9.752 3.64882C9.6701 3.58435 9.57088 3.54571 9.46695 3.53782L6.88774 3.31866C6.87546 3.31839 6.86353 3.31442 6.85353 3.30728C6.84353 3.30013 6.83591 3.29014 6.83166 3.27861L5.75144 0.824477C5.71059 0.729405 5.64256 0.648519 5.5559 0.591968C5.46924 0.535418 5.36781 0.505723 5.26434 0.506611H5.26016C5.15592 0.506489 5.054 0.537389 4.96737 0.595376C4.88075 0.653363 4.81334 0.735815 4.77373 0.832235L3.76825 3.21755C3.76417 3.22915 3.7567 3.23926 3.74681 3.24656C3.73692 3.25386 3.72506 3.25801 3.71277 3.25849L1.04502 3.52737C0.941526 3.5378 0.843357 3.57832 0.762638 3.64392C0.681918 3.70953 0.622186 3.79734 0.590821 3.89652C0.559455 3.99569 0.55783 4.10189 0.586145 4.20197C0.614461 4.30206 0.671478 4.39166 0.750151 4.45971L2.70798 6.15308C2.71776 6.16054 2.72507 6.17077 2.72896 6.18243C2.73285 6.1941 2.73315 6.20667 2.72981 6.2185L2.16115 8.83868C2.13908 8.94033 2.14728 9.04621 2.18473 9.14325C2.22218 9.24029 2.28724 9.32423 2.37186 9.38471C2.45649 9.44519 2.55698 9.47955 2.66092 9.48355C2.76485 9.48755 2.86769 9.46101 2.95671 9.40721L5.17216 8.0684C5.18229 8.0614 5.19428 8.05761 5.20658 8.05751C5.21889 8.05741 5.23094 8.06102 5.24118 8.06785L7.55739 9.4184C7.64697 9.47172 7.75038 9.49718 7.85448 9.49154C7.95857 9.4859 8.05864 9.44942 8.14193 9.38675C8.22632 9.32557 8.29059 9.24067 8.32658 9.14286C8.36257 9.04504 8.36865 8.93873 8.34404 8.83745L7.75538 6.31684C7.75185 6.30506 7.75195 6.29249 7.75566 6.28076C7.75937 6.26904 7.76652 6.2587 7.77618 6.25109L9.77647 4.46545C9.85483 4.39673 9.91097 4.30625 9.93774 4.20553C9.96452 4.1048 9.96072 3.99839 9.92684 3.89983ZM9.46688 4.11874L7.46668 5.90428C7.39468 5.9675 7.34135 6.0492 7.31245 6.14054C7.28355 6.23188 7.28019 6.32939 7.30272 6.42251L7.89143 8.94327C7.89443 8.95612 7.8936 8.96957 7.88904 8.98196C7.88448 8.99435 7.87639 9.00513 7.86577 9.01296C7.85515 9.0208 7.84246 9.02536 7.82929 9.02607C7.8161 9.02678 7.80301 9.02361 7.79161 9.01696L5.47528 7.66639C5.32704 7.57787 5.20699 7.62032 5.20699 7.59276C5.20699 7.4905 5.26366 0.971453 5.26366 0.971453H5.26438C5.2776 0.970806 5.2907 0.974361 5.30178 0.981608C5.31287 0.988856 5.32138 0.999424 5.32609 1.0118L6.40618 3.46587C6.44406 3.55386 6.50528 3.62981 6.58322 3.68551C6.66115 3.74121 6.75284 3.77454 6.84835 3.78189L9.42761 4.00103C9.44076 4.00216 9.45328 4.00711 9.46365 4.01527C9.47401 4.02343 9.48176 4.03445 9.48594 4.04696C9.49011 4.05948 9.49053 4.07294 9.48715 4.08569C9.48376 4.09844 9.47671 4.10992 9.46688 4.11872V4.11874Z" fill="#FFC107"/>
</g>
<defs>
<clipPath id="clip0_356_1682">
<rect width="9.39" height="9.39" fill="white" transform="translate(0.565186 0.304443)"/>
</clipPath>
</defs>
</svg>
