<?xml version="1.0" standalone="no"?>
<!DOCTYPE svg PUBLIC "-//W3C//DTD SVG 1.1//EN" "http://www.w3.org/Graphics/SVG/1.1/DTD/svg11.dtd" >
<svg xmlns="http://www.w3.org/2000/svg" xmlns:xlink="http://www.w3.org/1999/xlink" version="1.1">
<metadata>
Created by FontForge 20201107 at Fri Jun 21 13:04:34 2024
 By 
Copyright (c) 2018 by atipo. All rights reserved.
</metadata>
<defs>
<font id="BasierSquare-Regular" horiz-adv-x="1206" >
  <font-face 
    font-family="Basier Square"
    font-weight="400"
    font-stretch="normal"
    units-per-em="2048"
    panose-1="0 0 5 0 0 0 0 0 0 0"
    ascent="1638"
    descent="-410"
    x-height="1047"
    cap-height="1434"
    bbox="-332 -502 2322 2007"
    underline-thickness="102"
    underline-position="-511"
    unicode-range="U+0020-25FC"
  />
<missing-glyph horiz-adv-x="1925" 
 />
    <glyph glyph-name=".notdef" horiz-adv-x="1925" 
 />
    <glyph glyph-name=".null" horiz-adv-x="0" 
 />
    <glyph glyph-name="nonmarkingreturn" horiz-adv-x="682" 
 />
    <glyph glyph-name="space" unicode=" " horiz-adv-x="614" 
 />
    <glyph glyph-name="exclam" unicode="!" horiz-adv-x="569" 
d="M330 455h-97l-43 782v197h193v-197zM395 0h-221v225h221v-225z" />
    <glyph glyph-name="quotedbl" unicode="&#x22;" horiz-adv-x="851" 
d="M297 901h-111l-32 301v232h176v-232zM666 901h-111l-33 301v232h176v-232z" />
    <glyph glyph-name="numbersign" unicode="#" horiz-adv-x="1402" 
d="M1300 1030v-151h-278l-57 -334h233v-152h-258l-68 -393h-147l68 393h-304l-67 -393h-148l68 393h-240v152h265l57 334h-219v151h246l67 404h148l-68 -404h303l68 404h147l-67 -404h251zM514 545h303l57 334h-303z" />
    <glyph glyph-name="dollar" unicode="$" horiz-adv-x="1294" 
d="M1182 393q0 -176 -122.5 -284t-338.5 -125v-168h-139v168q-225 13 -349.5 131t-130.5 315h183q8 -122 84.5 -196t212.5 -87v515l-52 10q-193 42 -286.5 135.5t-93.5 251.5q0 171 113 274.5t319 116.5v168h139v-170q198 -19 316 -133.5t120 -288.5h-182q-5 106 -69 173.5
t-185 84.5v-469l53 -10q408 -83 408 -412zM580 846h2v440q-246 -24 -246 -227q0 -160 244 -213zM721 631v-484q274 24 274 246q0 96 -64 151.5t-192 82.5z" />
    <glyph glyph-name="percent" unicode="%" horiz-adv-x="1748" 
d="M670 815q-74 -102 -226 -102q-150 0 -227 102q-74 103 -74 270q0 168 74 271q76 102 227 102q152 0 226 -102q75 -100 75 -271q0 -170 -75 -270zM471 0h-162v20l971 1414h158v-21zM289 1085q0 -241 155 -241q156 0 156 241q0 242 -156 242q-155 0 -155 -242zM1530 84
q-73 -102 -225 -102q-151 0 -228 102q-73 101 -73 270q0 170 73 271q77 102 228 102q152 0 225 -102q76 -101 76 -271q0 -169 -76 -270zM1149 354q0 -241 156 -241q155 0 155 241q0 242 -155 242q-156 0 -156 -242z" />
    <glyph glyph-name="ampersand" unicode="&#x26;" horiz-adv-x="1497" 
d="M1210 815h185v-20l-312 -461l297 -314v-20h-227l-176 188q-176 -206 -406 -206q-189 0 -315 108q-123 111 -123 287q0 125 66 213.5t202 165.5l31 18l-24 27q-80 86 -114 158.5t-34 162.5q0 143 102 236t261 94h4q163 0 264 -94q102 -91 102 -240q0 -123 -65 -203
q-65 -81 -226 -170l-6 -4l271 -284zM575 868l11 -10l6 4q109 59 166 107q37 31 51 64.5t14 80.5q0 85 -52 132.5t-146 47.5h-4q-86 -1 -136.5 -49.5t-50.5 -126.5q0 -109 141 -250zM571 141q162 0 293 168l-321 346l-45 -24q-96 -54 -141 -112.5t-44 -141.5
q2 -106 72.5 -171t185.5 -65z" />
    <glyph glyph-name="quotesingle" unicode="'" horiz-adv-x="483" 
d="M297 901h-111l-32 301v232h176v-232z" />
    <glyph glyph-name="parenleft" unicode="(" horiz-adv-x="747" 
d="M430 1536h133v-20q-299 -391 -299 -910q0 -518 299 -909v-21h-133q-328 398 -328 930t328 930z" />
    <glyph glyph-name="parenright" unicode=")" horiz-adv-x="747" 
d="M184 1536h133q328 -398 328 -930t-328 -930h-133v21q299 391 299 909q0 519 -299 910v20z" />
    <glyph glyph-name="asterisk" unicode="*" horiz-adv-x="995" 
d="M575 782h-155l33 258l-9 7l-219 -146l-71 139l249 84v9l-249 84l71 139l215 -152l9 8l-29 263h155l-28 -263l8 -8l215 152l72 -139l-250 -84v-9l250 -84l-72 -139l-219 146l-8 -7z" />
    <glyph glyph-name="plus" unicode="+" horiz-adv-x="974" 
d="M573 143h-163v424h-400v148h400v424h163v-424h392v-148h-392v-424z" />
    <glyph glyph-name="comma" unicode="," horiz-adv-x="487" 
d="M225 -274h-139v20l64 465h202v-21z" />
    <glyph glyph-name="hyphen" unicode="-" horiz-adv-x="954" 
d="M791 520h-627v160h627v-160z" />
    <glyph glyph-name="period" unicode="." horiz-adv-x="487" 
d="M354 0h-221v225h221v-225z" />
    <glyph glyph-name="slash" unicode="/" horiz-adv-x="794" 
d="M186 -272h-155v20l575 1761h158v-20z" />
    <glyph glyph-name="zero" unicode="0" horiz-adv-x="1286" 
d="M143 721q0 737 500 737t500 -737q0 -739 -500 -739t-500 739zM965 721q0 582 -322 582q-321 0 -321 -582q0 -248 61 -408q73 -176 260 -176q93 0 159.5 45.5t98.5 130.5q64 154 64 408z" />
    <glyph glyph-name="one" unicode="1" horiz-adv-x="870" 
d="M645 0h-174v1239h-8l-330 -258h-20v176l356 277h176v-1434z" />
    <glyph glyph-name="two" unicode="2" horiz-adv-x="1165" 
d="M1032 0h-895v135l490 572q109 129 123 147q81 107 81 211q0 110 -66.5 174t-189.5 64q-128 0 -198 -71t-70 -200h-174q0 193 118.5 309.5t323.5 116.5q200 0 316 -110q119 -107 119 -277q0 -111 -58 -205q-54 -89 -207 -268l-370 -430v-8h657v-160z" />
    <glyph glyph-name="three" unicode="3" horiz-adv-x="1234" 
d="M616 -18q-217 0 -344 112q-129 114 -129 303h172q2 -118 81.5 -190t217.5 -72q140 0 218.5 71.5t78.5 194.5q0 129 -82.5 199t-234.5 70h-125v153h121q123 0 199.5 68t76.5 178q0 108 -66 172t-190 64q-128 0 -198.5 -66.5t-75.5 -183.5h-174q11 191 129.5 297t324.5 106
q191 0 310 -104q121 -103 121 -273q0 -230 -216 -313v-8q124 -38 192.5 -132.5t68.5 -224.5q0 -182 -127 -303q-124 -118 -349 -118z" />
    <glyph glyph-name="four" unicode="4" horiz-adv-x="1204" 
d="M920 0h-175v303h-653v180l580 951h248v-975h192v-156h-192v-303zM260 467v-8h485v801h-8z" />
    <glyph glyph-name="five" unicode="5" horiz-adv-x="1216" 
d="M606 -18q-217 0 -344 118q-129 120 -129 306h174q0 -118 81 -193.5t218 -75.5q151 0 226 86t75 240q0 147 -76.5 233t-222.5 86q-168 0 -270 -141h-180l55 793h803v-158h-651l-33 -457h8q108 117 295 117q211 0 330 -131q118 -127 118 -336q0 -227 -123.5 -357
t-353.5 -130z" />
    <glyph glyph-name="six" unicode="6" horiz-adv-x="1273" 
d="M649 -18q-263 0 -385 192q-121 195 -121 520q0 319 117 531q61 111 166.5 172t243.5 61q183 0 303.5 -101.5t140.5 -269.5h-178q-10 98 -82.5 155.5t-183.5 57.5q-183 0 -269 -157q-84 -159 -84 -404h9q105 197 348 197q214 0 334 -135q122 -131 122 -336
q0 -209 -131 -346q-128 -137 -350 -137zM952 461q0 144 -80.5 232.5t-220.5 88.5q-143 0 -223 -87.5t-80 -231.5q0 -142 82.5 -234t220.5 -92t219.5 91t81.5 233z" />
    <glyph glyph-name="seven" unicode="7" horiz-adv-x="1107" 
d="M387 0h-172v20l621 1244v8h-744v162h924v-172z" />
    <glyph glyph-name="eight" unicode="8" horiz-adv-x="1232" 
d="M856 764v-8q244 -92 244 -361q0 -192 -129 -301.5t-355 -111.5q-226 2 -354.5 111.5t-128.5 301.5q0 269 244 361v8q-201 89 -201 315q0 173 118 275.5t322 103.5q204 -1 322.5 -103.5t118.5 -275.5q0 -226 -201 -315zM352 1071q0 -107 69.5 -174t194.5 -68q125 1 195 68
t70 174q0 108 -69 171.5t-196 64.5q-127 -1 -195.5 -64.5t-68.5 -171.5zM616 133q150 1 228 74t78 201q0 125 -77.5 197t-228.5 73q-151 -1 -228 -73t-77 -197q0 -128 77.5 -201t227.5 -74z" />
    <glyph glyph-name="nine" unicode="9" horiz-adv-x="1273" 
d="M604 -18q-184 0 -304 101t-140 269h178q10 -98 82.5 -155.5t183.5 -57.5q184 0 266 156q86 157 86 405h-8q-105 -196 -348 -196q-212 0 -336 133q-121 136 -121 338q0 208 129 346q131 137 353 137q263 0 383 -194q122 -192 122 -519q0 -319 -116 -532
q-61 -110 -166.5 -170.5t-243.5 -60.5zM623 657q143 0 223 88t80 232q0 142 -82.5 234t-220.5 92t-219.5 -91t-81.5 -233q0 -144 80.5 -233t220.5 -89z" />
    <glyph glyph-name="colon" unicode=":" horiz-adv-x="487" 
d="M354 729h-221v225h221v-225zM354 0h-221v225h221v-225z" />
    <glyph glyph-name="semicolon" unicode=";" horiz-adv-x="487" 
d="M354 729h-221v225h221v-225zM225 -274h-139v20l64 465h202v-21z" />
    <glyph glyph-name="less" unicode="&#x3c;" horiz-adv-x="1064" 
d="M963 162v-187l-861 510v185l861 510v-187l-699 -411v-9z" />
    <glyph glyph-name="equal" unicode="=" horiz-adv-x="974" 
d="M965 758h-955v147h955v-147zM965 369h-955v147h955v-147z" />
    <glyph glyph-name="greater" unicode="&#x3e;" horiz-adv-x="1064" 
d="M963 485l-861 -510v187l699 411v9l-699 411v187l861 -510v-185z" />
    <glyph glyph-name="question" unicode="?" horiz-adv-x="1112" 
d="M616 455h-163v32q0 120 41 185q48 71 143 145l65 51q104 82 107 211q0 101 -64.5 161t-183.5 60q-130 0 -196 -69t-66 -191h-176q0 176 113 295t325 119q192 0 310 -102t118 -269q0 -194 -155 -313l-86 -68q-78 -60 -105 -100t-27 -115v-32zM645 0h-221v225h221v-225z
" />
    <glyph glyph-name="at" unicode="@" horiz-adv-x="1875" 
d="M946 -205q-365 0 -590 225q-223 223 -223 603q0 366 232 598q234 231 600 231q339 0 557 -197q219 -198 219 -522q0 -229 -99 -385q-98 -155 -284 -155q-80 0 -138.5 40t-68.5 107h-8q-71 -141 -248 -141q-152 0 -241 110.5t-89 292.5q0 181 94 297q95 117 261 117
q68 0 128 -34t89 -89h8l14 100h139l-18 -544q-3 -111 96 -111q97 0 156 115q57 111 57 280q0 268 -176 424q-178 158 -455 158q-296 0 -483 -199q-186 -198 -186 -506q0 -301 182 -489q184 -187 477 -187q247 0 420 72v-135q-168 -76 -422 -76zM920 342q101 0 157 78t56 203
q0 118 -52 186t-149 68q-96 0 -149.5 -77.5t-53.5 -199.5q0 -116 50 -187t141 -71z" />
    <glyph glyph-name="A" unicode="A" horiz-adv-x="1396" 
d="M588 1434h219l528 -1414v-20h-190l-135 375h-627l-135 -375h-187v20zM692 1235l-252 -700h512l-252 700h-8z" />
    <glyph glyph-name="B" unicode="B" horiz-adv-x="1363" 
d="M795 0h-590v1434h575q187 0 302.5 -101t115.5 -272q0 -214 -180 -293v-8q233 -94 233 -346q0 -195 -121 -304.5t-335 -109.5zM381 1274v-455h356q132 0 205.5 61.5t73.5 180.5q0 103 -66.5 158t-189.5 55h-379zM381 664v-502h393q132 0 212.5 67.5t80.5 184.5
q0 122 -76 186t-217 64h-393z" />
    <glyph glyph-name="C" unicode="C" horiz-adv-x="1452" 
d="M756 -18q-304 0 -469 198q-164 200 -164 535q0 337 166 536q168 201 467 201q251 0 400.5 -132t172.5 -366h-184q-19 157 -117.5 243.5t-271.5 86.5q-97 0 -174.5 -31.5t-128 -84.5t-84 -127t-48 -154.5t-14.5 -171.5t14.5 -171.5t48 -154t84 -126.5t128 -84.5
t174.5 -31.5q335 0 391 318h182q-31 -230 -177.5 -356.5t-395.5 -126.5z" />
    <glyph glyph-name="D" unicode="D" horiz-adv-x="1441" 
d="M680 0h-475v1434h475q298 0 469 -195q170 -194 170 -522q0 -317 -166 -516q-165 -201 -473 -201zM383 1270v-1108h279q233 0 352 155q121 157 121 400q0 238 -121 395q-122 158 -352 158h-279z" />
    <glyph glyph-name="E" unicode="E" horiz-adv-x="1249" 
d="M1126 0h-921v1434h921v-164h-743v-449h680v-164h-680v-495h743v-162z" />
    <glyph glyph-name="F" unicode="F" horiz-adv-x="1226" 
d="M383 0h-178v1434h899v-164h-721v-482h651v-163h-651v-625z" />
    <glyph glyph-name="G" unicode="G" horiz-adv-x="1476" 
d="M750 -18q-302 0 -465 196q-162 198 -162 535q0 340 162 538q165 201 465 201q258 0 407 -131q151 -130 172 -346h-184q-14 142 -117.5 225.5t-277.5 83.5q-97 0 -174 -32t-126.5 -85.5t-82.5 -128t-46.5 -155t-13.5 -170.5q0 -243 105 -406q109 -160 338 -160
q206 0 319 125q115 127 115 320h-393v162h563v-121q0 -300 -160 -477q-158 -174 -444 -174z" />
    <glyph glyph-name="H" unicode="H" horiz-adv-x="1505" 
d="M1122 823v611h178v-1434h-178v657h-739v-657h-178v1434h178v-611h739z" />
    <glyph glyph-name="I" unicode="I" horiz-adv-x="589" 
d="M385 0h-180v1434h180v-1434z" />
    <glyph glyph-name="J" unicode="J" horiz-adv-x="1089" 
d="M481 -18q-194 0 -307 116q-113 119 -113 312h181q0 -120 63 -189t180 -69t178.5 69.5t61.5 194.5v1018h180v-1018q0 -199 -114 -316.5t-310 -117.5z" />
    <glyph glyph-name="K" unicode="K" horiz-adv-x="1292" 
d="M1251 1413l-643 -657l664 -736v-20h-215l-674 745v-745h-178v1434h178v-668l655 668h213v-21z" />
    <glyph glyph-name="L" unicode="L" horiz-adv-x="1126" 
d="M1075 0h-870v1434h178v-1270h692v-164z" />
    <glyph glyph-name="M" unicode="M" horiz-adv-x="1802" 
d="M375 0h-170v1434h211l483 -875h8l484 875h206v-1434h-170v1149h-8l-508 -903h-20l-508 909h-8v-1155z" />
    <glyph glyph-name="N" unicode="N" horiz-adv-x="1521" 
d="M379 0h-174v1434h194l734 -1141h8v1141h176v-1434h-197l-733 1135h-8v-1135z" />
    <glyph glyph-name="O" unicode="O" horiz-adv-x="1515" 
d="M758 1452q316 0 475 -205q160 -204 160 -530q0 -324 -160 -531q-158 -204 -475 -204q-316 0 -475 202q-160 207 -160 533q0 325 158 530q159 205 477 205zM758 1284q-99 0 -177.5 -31.5t-129 -84t-84 -126.5t-47 -154t-13.5 -171q0 -244 107 -406q106 -161 344 -161
q236 0 342 161q108 163 108 406q0 241 -108 405q-107 162 -342 162z" />
    <glyph glyph-name="P" unicode="P" horiz-adv-x="1329" 
d="M383 0h-178v1434h528q219 0 344 -125q129 -126 129 -328q0 -208 -129 -334q-130 -127 -344 -127h-350v-520zM383 1272v-588h328q149 0 230 77t81 220q0 137 -82.5 214t-228.5 77h-328z" />
    <glyph glyph-name="Q" unicode="Q" horiz-adv-x="1515" 
d="M1393 717q0 -387 -207 -582l192 -264v-21h-194l-140 191q-124 -59 -286 -59q-316 0 -475 202q-160 207 -160 533q0 325 158 530q159 205 477 205q316 0 475 -205q160 -204 160 -530zM758 150q105 0 182 32l-176 244v20h194l119 -163q131 149 131 434q0 241 -108 405
q-107 162 -342 162q-99 0 -177.5 -31.5t-129 -84t-84 -126.5t-47 -154t-13.5 -171q0 -244 107 -406q106 -161 344 -161z" />
    <glyph glyph-name="R" unicode="R" horiz-adv-x="1372" 
d="M918 590l385 -570v-20h-195l-377 567h-348v-567h-178v1434h567q213 0 334 -121t121 -309q0 -156 -82 -264t-227 -150zM762 1270h-379v-539h379q134 0 206 70t72 200q0 128 -72.5 198.5t-205.5 70.5z" />
    <glyph glyph-name="S" unicode="S" horiz-adv-x="1294" 
d="M645 -18q-254 0 -395.5 119.5t-147.5 328.5h183q8 -136 101.5 -211.5t258.5 -75.5q350 0 350 250q0 96 -64 151.5t-192 82.5l-209 45q-193 42 -286.5 135.5t-93.5 251.5q0 184 131.5 288.5t365.5 104.5q232 0 369 -119q138 -117 141 -307h-182q-6 124 -90.5 193
t-241.5 69q-307 0 -307 -229q0 -160 244 -213l194 -41q408 -83 408 -412q0 -192 -143 -301.5t-394 -109.5z" />
    <glyph glyph-name="T" unicode="T" horiz-adv-x="1212" 
d="M696 0h-180v1270h-444v164h1069v-164h-445v-1270z" />
    <glyph glyph-name="U" unicode="U" horiz-adv-x="1462" 
d="M729 -18q-254 0 -399.5 139.5t-145.5 384.5v928h178v-924q0 -172 94.5 -268.5t272.5 -96.5q180 0 274.5 96t94.5 269v924h180v-928q0 -246 -145.5 -385t-403.5 -139z" />
    <glyph glyph-name="V" unicode="V" horiz-adv-x="1359" 
d="M770 0h-182l-527 1413v21h187l430 -1194h8l424 1194h188v-21z" />
    <glyph glyph-name="W" unicode="W" horiz-adv-x="1855" 
d="M592 0h-178l-353 1413v21h175l274 -1155h8l316 1155h184l319 -1155h9l272 1155h176v-21l-356 -1413h-181l-325 1145h-8z" />
    <glyph glyph-name="X" unicode="X" horiz-adv-x="1292" 
d="M240 0h-199v20l489 697v8l-475 688v21h199l387 -584h8l387 584h199v-21l-475 -688v-8l489 -697v-20h-198l-402 573h-8z" />
    <glyph glyph-name="Y" unicode="Y" horiz-adv-x="1329" 
d="M756 0h-181v598l-514 815v21h201l402 -664h8l399 664h197v-21l-512 -815v-598z" />
    <glyph glyph-name="Z" unicode="Z" horiz-adv-x="1222" 
d="M1141 0h-1059v158l823 1102v8h-805v166h1028v-162l-821 -1100v-8h834v-164z" />
    <glyph glyph-name="bracketleft" unicode="[" horiz-adv-x="706" 
d="M522 -324h-420v1860h414v-131h-262v-1600h268v-129z" />
    <glyph glyph-name="backslash" unicode="\" horiz-adv-x="794" 
d="M764 -272h-156l-577 1761v20h157l576 -1761v-20z" />
    <glyph glyph-name="bracketright" unicode="]" horiz-adv-x="706" 
d="M604 -324h-420v129h269v1600h-263v131h414v-1860z" />
    <glyph glyph-name="asciicircum" unicode="^" horiz-adv-x="1204" 
d="M279 635h-177v20l408 779h184l408 -779v-20h-176l-320 637h-8z" />
    <glyph glyph-name="underscore" unicode="_" horiz-adv-x="1210" 
d="M1087 -201h-964v146h964v-146z" />
    <glyph glyph-name="grave" unicode="`" horiz-adv-x="534" 
d="M463 1194h-154l-237 279v20h235l156 -279v-20z" />
    <glyph glyph-name="a" unicode="a" horiz-adv-x="1124" 
d="M467 -18q-163 0 -266 92q-99 92 -99 231q0 148 111.5 238t321.5 90h258v67q0 98 -62.5 158t-179.5 60q-107 0 -168.5 -52.5t-63.5 -134.5h-165q0 151 110 242q115 92 287 92q193 0 301 -102q109 -103 109 -258v-705h-146l-12 147h-8q-98 -165 -328 -165zM498 125
q131 0 213 82t82 199v90h-258q-259 0 -259 -189q0 -84 57.5 -133t164.5 -49z" />
    <glyph glyph-name="b" unicode="b" horiz-adv-x="1226" 
d="M680 -18q-216 0 -315 163h-9l-22 -145h-150v1516h172v-615h9q99 164 315 164q214 0 328 -150q113 -149 116 -391q-2 -254 -119.5 -398t-324.5 -144zM651 135q149 0 224 105t75 284q0 178 -75 282.5t-224 104.5q-143 0 -221 -107t-78 -280t78 -281t221 -108z" />
    <glyph glyph-name="c" unicode="c" horiz-adv-x="1112" 
d="M578 -18q-229 0 -352.5 142.5t-123.5 397.5q0 253 123.5 398t349.5 145q196 0 307.5 -102.5t123.5 -274.5h-172q-7 104 -76.5 163.5t-182.5 59.5q-149 0 -224 -104.5t-75 -284.5q0 -183 74.5 -286t224.5 -103q116 0 184 57t79 162h172q-18 -175 -128 -272.5t-304 -97.5z
" />
    <glyph glyph-name="d" unicode="d" 
d="M547 -18q-207 0 -325 144t-120 398q3 241 117 391t328 150q216 0 315 -164h8v615h172v-1516h-149l-23 145h-8q-99 -163 -315 -163zM575 135q143 0 221 108t78 281t-78 280t-221 107q-149 0 -224 -104.5t-75 -282.5q0 -179 75 -284t224 -105z" />
    <glyph glyph-name="e" unicode="e" horiz-adv-x="1130" 
d="M578 -18q-226 0 -351 149t-125 391q0 240 121 391q122 152 352 152q215 0 334 -143q119 -140 119 -367v-84h-745q0 -156 77 -246t218 -90q105 0 174.5 43.5t89.5 124.5h172q-21 -145 -144 -233q-122 -88 -292 -88zM285 614h565q0 134 -72 215.5t-203 81.5
q-136 0 -210.5 -81t-79.5 -216z" />
    <glyph glyph-name="f" unicode="f" horiz-adv-x="757" 
d="M422 0h-172v903h-187v144h187v182q0 137 83 222t222 85h131v-147h-102q-78 0 -120 -42.5t-42 -117.5v-182h254v-144h-254v-903z" />
    <glyph glyph-name="g" unicode="g" 
d="M580 -487q-199 0 -320 100q-124 103 -127 254h166q6 -91 79.5 -149t201.5 -58q139 0 214.5 77.5t75.5 205.5v202h-8q-99 -163 -315 -163q-215 0 -328 149q-114 150 -117 391q2 254 120 398.5t325 144.5q216 0 315 -164h8l23 146h149v-1108q0 -187 -122 -306
q-123 -120 -340 -120zM575 135q143 0 221 107t78 280t-78 281t-221 108q-149 0 -224 -105t-75 -284q0 -178 75 -282.5t224 -104.5z" />
    <glyph glyph-name="h" unicode="h" horiz-adv-x="1218" 
d="M356 0h-172v1516h172v-633h9q95 182 319 182q173 0 272 -102.5t99 -282.5v-680h-172v653q0 258 -246 258q-130 0 -205.5 -90t-75.5 -248v-573z" />
    <glyph glyph-name="i" unicode="i" horiz-adv-x="520" 
d="M367 1264h-193v200h193v-200zM356 0h-172v1047h172v-1047z" />
    <glyph glyph-name="j" unicode="j" horiz-adv-x="548" 
d="M395 1264h-192v200h192v-200zM82 -487h-82v151h78q135 0 135 150v1233h172v-1231q0 -153 -74.5 -228t-228.5 -75z" />
    <glyph glyph-name="k" unicode="k" horiz-adv-x="1054" 
d="M184 0v1516h172v-1516h-172zM1001 1026l-423 -438l436 -568v-20h-199l-459 588l443 459h202v-21z" />
    <glyph glyph-name="l" unicode="l" horiz-adv-x="520" 
d="M356 0h-172v1516h172v-1516z" />
    <glyph glyph-name="m" unicode="m" horiz-adv-x="1855" 
d="M1331 1065q171 0 266 -102.5t95 -282.5v-680h-172v653q0 258 -232 258q-123 0 -192.5 -87.5t-69.5 -245.5v-578h-172v653q0 258 -231 258q-124 0 -195.5 -88t-71.5 -245v-578h-172v1047h150l14 -164h8q95 182 314 182q226 0 315 -182h8q95 182 338 182z" />
    <glyph glyph-name="n" unicode="n" horiz-adv-x="1210" 
d="M356 0h-172v1047h150l14 -164h8q95 182 324 182q172 0 269.5 -102.5t97.5 -282.5v-680h-173v653q0 258 -241 258q-131 0 -204 -87.5t-73 -245.5v-578z" />
    <glyph glyph-name="o" unicode="o" horiz-adv-x="1150" 
d="M575 -18q-235 0 -354 149t-119 391q0 240 121 391q122 152 352 152q231 0 353 -152q121 -151 121 -391t-121 -391q-119 -149 -353 -149zM575 135q150 0 224.5 101.5t74.5 285.5t-74.5 286.5t-224.5 102.5q-149 0 -224 -103t-75 -286t75 -285t224 -102z" />
    <glyph glyph-name="p" unicode="p" horiz-adv-x="1226" 
d="M356 -469h-172v1516h150l22 -146h9q99 164 315 164q207 0 324.5 -144.5t119.5 -398.5q-3 -242 -116 -391t-328 -149q-216 0 -315 163h-9v-614zM651 135q149 0 224 104.5t75 282.5q0 179 -75 284t-224 105q-143 0 -221 -108t-78 -281t78 -280t221 -107z" />
    <glyph glyph-name="q" unicode="q" 
d="M1042 -469h-172v614h-8q-99 -163 -315 -163q-215 0 -328 149q-114 150 -117 391q2 254 120 398.5t325 144.5q216 0 315 -164h8l23 146h149v-1516zM575 135q143 0 221 107t78 280t-78 281t-221 108q-149 0 -224 -105t-75 -284q0 -178 75 -282.5t224 -104.5z" />
    <glyph glyph-name="r" unicode="r" horiz-adv-x="798" 
d="M356 0h-172v1047h150l14 -177h8q32 88 106 138.5t171 50.5h94v-166h-82q-289 0 -289 -385v-508z" />
    <glyph glyph-name="s" unicode="s" horiz-adv-x="1046" 
d="M530 -18q-191 0 -307.5 97.5t-120.5 266.5h172q0 -101 68.5 -156t187.5 -55q240 0 240 150q0 114 -160 149l-209 39q-129 26 -197.5 101.5t-68.5 191.5q0 132 105.5 215.5t275.5 83.5q180 0 292 -92.5t112 -245.5h-168q-4 95 -67 144t-169 49q-99 0 -157 -40.5
t-58 -113.5q0 -121 182 -148l164 -30q157 -36 227 -105.5t70 -197.5q0 -140 -119 -222q-118 -81 -295 -81z" />
    <glyph glyph-name="t" unicode="t" horiz-adv-x="780" 
d="M688 0h-156q-146 0 -211 70t-65 211v620h-174v146h178v280h168v-280h256v-146h-256v-606q0 -75 32.5 -109t104.5 -34h123v-152z" />
    <glyph glyph-name="u" unicode="u" horiz-adv-x="1189" 
d="M530 -16q-172 0 -269 102.5t-97 282.5v678h172v-652q0 -258 242 -258q131 0 203.5 88t72.5 246v576h172v-1047h-149l-15 166h-8q-95 -182 -324 -182z" />
    <glyph glyph-name="v" unicode="v" horiz-adv-x="1077" 
d="M631 0h-178l-412 1026v21h178l322 -846h8l309 846h178v-21z" />
    <glyph glyph-name="w" unicode="w" horiz-adv-x="1536" 
d="M516 0h-178l-297 1026v21h178l209 -814h8l246 814h176l246 -814h8l209 814h174v-21l-295 -1026h-178l-246 813h-8z" />
    <glyph glyph-name="x" unicode="x" horiz-adv-x="989" 
d="M203 0h-183v20l367 506l-354 500v21h184l277 -404h8l274 404h187v-21l-357 -496l363 -510v-20h-181l-286 414h-8z" />
    <glyph glyph-name="y" unicode="y" horiz-adv-x="1079" 
d="M41 1026v21h184l318 -822h8l307 822h180v-21l-579 -1495h-174v20l178 457l-2 6z" />
    <glyph glyph-name="z" unicode="z" horiz-adv-x="1028" 
d="M915 0h-802v141l596 752v8h-594v146h796v-144l-594 -749v-9h598v-145z" />
    <glyph glyph-name="braceleft" unicode="{" horiz-adv-x="880" 
d="M260 610v-8q184 -24 184 -229v-348q0 -117 45.5 -166t159.5 -49h47v-134h-55q-185 0 -266.5 82t-81.5 260v322q0 175 -191 184v164q191 9 191 184v322q0 178 81.5 260t266.5 82h55v-133h-47q-114 0 -159.5 -49t-45.5 -166v-348q0 -206 -184 -230z" />
    <glyph glyph-name="bar" unicode="|" horiz-adv-x="561" 
d="M356 -283h-151v1839h151v-1839z" />
    <glyph glyph-name="braceright" unicode="}" horiz-adv-x="880" 
d="M588 1194v-322q0 -175 190 -184v-164q-190 -9 -190 -184v-322q0 -178 -82 -260t-266 -82h-56v134h47q114 0 159.5 49t45.5 166v348q0 205 185 229v8q-185 24 -185 230v348q0 117 -45.5 166t-159.5 49h-47v133h56q184 0 266 -82t82 -260z" />
    <glyph glyph-name="asciitilde" unicode="~" horiz-adv-x="1173" 
d="M788 444q-95 0 -198 56l-94 51q-60 31 -111 31q-111 0 -176 -117l-117 84q99 194 293 194q98 0 193 -53l94 -51q56 -33 116 -33q112 0 177 117l116 -84q-100 -195 -293 -195z" />
    <glyph glyph-name="uni00A0" unicode="&#xa0;" horiz-adv-x="614" 
 />
    <glyph glyph-name="exclamdown" unicode="&#xa1;" horiz-adv-x="569" 
d="M395 821h-221v226h221v-226zM383 -387h-193v197l43 782h97l53 -782v-197z" />
    <glyph glyph-name="cent" unicode="&#xa2;" horiz-adv-x="1112" 
d="M838 537h172q-14 -158 -107 -254t-256 -113v-170h-139v170q-196 20 -301 161t-105 376q0 232 106 375t300 163v189h139v-189q164 -18 256 -117.5t103 -255.5h-172q-12 178 -187 218v-766q173 35 191 213zM276 707q0 -160 58 -260t174 -123v766q-115 -23 -173.5 -124
t-58.5 -259z" />
    <glyph glyph-name="sterling" unicode="&#xa3;" horiz-adv-x="1230" 
d="M1149 0h-1065v166q162 3 162 164v309h-164v149h164v267q0 163 121 284q119 119 321 119q198 0 318 -123t120 -286h-174q0 109 -72.5 182.5t-195.5 73.5q-125 0 -195.5 -69.5t-70.5 -180.5v-267h510v-149h-510v-317q0 -116 -68 -154v-8h799v-160z" />
    <glyph glyph-name="currency" unicode="&#xa4;" horiz-adv-x="1216" 
d="M373 127l-150 -156l-121 121l150 156q-72 113 -72 241q0 135 76 248l-154 158l123 121l154 -160q113 72 237 72t228 -64l147 152l123 -121l-143 -150q84 -119 84 -256q0 -144 -82 -251l141 -146l-121 -121l-143 148q-109 -68 -234 -68q-130 0 -243 76zM330 489
q0 -126 82 -208t204 -82t201 82q82 82 82 208q0 127 -80.5 208t-202.5 81t-204 -82t-82 -207z" />
    <glyph glyph-name="yen" unicode="&#xa5;" horiz-adv-x="1329" 
d="M1071 1434h197v-21l-408 -649h270v-166h-374v-182h374v-166h-374v-250h-181v250h-376v166h376v182h-376v166h272l-410 649v21h201l402 -664h8z" />
    <glyph glyph-name="brokenbar" unicode="&#xa6;" horiz-adv-x="561" 
d="M356 823h-151v733h151v-733zM356 -283h-151v734h151v-734z" />
    <glyph glyph-name="section" unicode="&#xa7;" horiz-adv-x="1116" 
d="M549 -502q-168 0 -277 103q-107 101 -110 264h170q4 -103 62 -161t155 -58q98 0 150.5 47.5t52.5 132.5q0 94 -86 168l-430 350q-134 113 -134 277q0 176 177 276q-84 96 -84 223q0 148 103 240t269 92q169 0 277 -102q107 -101 110 -265h-170q-4 103 -62 161.5
t-155 58.5q-94 0 -148 -48t-54 -133q0 -97 86 -168l387 -313q176 -141 176 -313q0 -83 -49.5 -156.5t-126.5 -120.5q84 -96 84 -223q0 -153 -100 -242.5t-273 -89.5zM344 471l393 -324q50 26 79.5 70.5t29.5 93.5q0 108 -92 185l-375 307q-109 -59 -109 -176q0 -94 74 -156z
" />
    <glyph glyph-name="dieresis" unicode="&#xa8;" horiz-adv-x="788" 
d="M322 1264h-211v211h211v-211zM678 1264h-211v211h211v-211z" />
    <glyph glyph-name="copyright" unicode="&#xa9;" horiz-adv-x="1679" 
d="M1556 717q-3 -316 -202 -527q-199 -208 -514 -208t-514 208q-200 212 -203 527q3 315 203 524q199 211 514 211t514 -211q199 -208 202 -524zM1419 717q-3 272 -157 436q-155 168 -422 168t-422 -168q-155 -165 -158 -436q3 -270 158 -438q156 -166 422 -166t422 166
q154 167 157 438zM844 416q179 0 200 166h130q-11 -131 -96 -206t-232 -75q-172 0 -265.5 109t-93.5 301t93.5 301.5t263.5 109.5q150 0 234.5 -78t90.5 -206h-129q-6 79 -57.5 123.5t-138.5 44.5q-112 0 -169 -78.5t-57 -216.5t57 -216.5t169 -78.5z" />
    <glyph glyph-name="ordfeminine" unicode="&#xaa;" horiz-adv-x="788" 
d="M352 606q-108 0 -179 63.5t-71 157.5q0 97 78.5 160.5t216.5 63.5q72 0 164 -25v53q0 138 -153 138q-72 0 -111 -31t-39 -86h-121q0 100 77 164.5t194 64.5q126 0 202 -70t76 -176v-465h-111l-8 91h-6q-65 -103 -209 -103zM373 717q84 0 136 48t52 124v33q-86 24 -164 24
q-164 0 -164 -119q0 -110 140 -110z" />
    <glyph glyph-name="guillemotleft" unicode="&#xab;" horiz-adv-x="1171" 
d="M578 135h-156l-340 434v21l340 434h156v-20l-287 -424l287 -424v-21zM1049 135h-156l-340 434v21l340 434h156v-20l-287 -424l287 -424v-21z" />
    <glyph glyph-name="uni00AD" unicode="&#xad;" horiz-adv-x="954" 
d="M791 520h-627v160h627v-160z" />
    <glyph glyph-name="registered" unicode="&#xae;" horiz-adv-x="970" 
d="M782 729q-116 -119 -297 -119t-297 119t-116 303t116 303t297 119t297 -119q117 -120 117 -303t-117 -303zM256 791q86 -89 229 -89q144 0 230 89t86 241q0 153 -86 242q-85 88 -230 88q-144 0 -229 -88q-86 -89 -86 -242q0 -152 86 -241zM422 813h-90v426h176
q67 0 109 -37t42 -94q0 -97 -79 -131l100 -152v-12h-90l-96 152h-72v-152zM422 1159v-115h84q61 0 61 58q0 57 -61 57h-84z" />
    <glyph glyph-name="overscore" unicode="&#xaf;" horiz-adv-x="702" 
d="M631 1264h-559v166h559v-166z" />
    <glyph glyph-name="degree" unicode="&#xb0;" horiz-adv-x="954" 
d="M731 854q-100 -100 -254 -100t-254 100t-100 252t100 252t254 100t254 -100t100 -252t-100 -252zM324 948q57 -63 153 -63q97 0 154 63t57 158t-57 158t-154 63q-96 0 -153 -63q-58 -64 -58 -158t58 -158z" />
    <glyph glyph-name="plusminus" unicode="&#xb1;" horiz-adv-x="974" 
d="M573 430h-163v342h-400v148h400v342h163v-342h392v-148h-392v-342zM965 137h-955v148h955v-148z" />
    <glyph glyph-name="uni00B2" unicode="&#xb2;" horiz-adv-x="825" 
d="M723 518h-619v129l316 314q78 78 105.5 125t27.5 104q0 53 -39 90t-106 37q-72 0 -112 -40t-40 -99h-154q0 114 84 198q85 85 222 82q144 0 221 -80q80 -80 80 -184q0 -80 -38 -149t-132 -160l-226 -217v-6h410v-144z" />
    <glyph glyph-name="uni00B3" unicode="&#xb3;" horiz-adv-x="851" 
d="M426 506q-147 0 -235.5 81t-88.5 208h146q2 -66 50.5 -107t127.5 -41q80 0 123 38t43 110q0 64 -44 99.5t-128 35.5h-107v139h105q151 0 151 133q0 51 -40 84t-107 33q-150 0 -160 -141h-147q5 130 85.5 205t225.5 75q135 1 218 -69.5t83 -186.5q0 -64 -32 -114.5
t-79 -75.5v-8q61 -24 97.5 -79t36.5 -128q0 -131 -88.5 -211t-235.5 -80z" />
    <glyph glyph-name="acute" unicode="&#xb4;" horiz-adv-x="534" 
d="M225 1194h-153v20l155 279h236v-20z" />
    <glyph glyph-name="paragraph" unicode="&#xb6;" horiz-adv-x="1325" 
d="M600 -213h-154v936q-159 0 -272 113t-113 274q0 159 113 272t272 113h674v-141h-141v-1567h-154v1567h-225v-1567z" />
    <glyph glyph-name="middot" unicode="&#xb7;" horiz-adv-x="487" 
d="M354 504h-221v225h221v-225z" />
    <glyph glyph-name="cedilla" unicode="&#xb8;" horiz-adv-x="614" 
d="M303 -446q-102 0 -166.5 49t-64.5 137h123q0 -70 106 -70q42 0 69 18t27 50q0 29 -24.5 47t-65.5 18h-65l-52 64l82 162h146l-74 -123q88 0 143.5 -46.5t55.5 -121.5q0 -83 -61.5 -133.5t-178.5 -50.5z" />
    <glyph glyph-name="uni00B9" unicode="&#xb9;" horiz-adv-x="589" 
d="M487 508h-153v747h-8l-203 -155h-21v155l232 179h153v-926z" />
    <glyph glyph-name="ordmasculine" unicode="&#xba;" horiz-adv-x="847" 
d="M424 606q-152 0 -237 99.5t-85 261.5t85.5 262t236.5 100q152 0 236.5 -100t84.5 -262q0 -163 -83.5 -262t-237.5 -99zM604 967q0 239 -180 239t-180 -239q0 -238 180 -238t180 238z" />
    <glyph glyph-name="guillemotright" unicode="&#xbb;" horiz-adv-x="1171" 
d="M618 569l-339 -434h-156v21l287 424l-287 424v20h156l339 -434v-21zM1090 569l-340 -434h-156v21l287 424l-287 424v20h156l340 -434v-21z" />
    <glyph glyph-name="onequarter" unicode="&#xbc;" horiz-adv-x="1824" 
d="M487 508h-153v747h-8l-203 -155h-21v155l232 179h153v-926zM520 0h-162v20l889 1414h158v-21zM1597 0h-151v195h-422v157l377 574h196v-588h125v-143h-125v-195zM1178 346v-8h268v412h-8z" />
    <glyph glyph-name="onehalf" unicode="&#xbd;" horiz-adv-x="1888" 
d="M487 508h-153v747h-8l-203 -155h-21v155l232 179h153v-926zM520 0h-162v20l889 1414h158v-21zM1786 0h-619v129l316 313q78 78 105.5 125.5t27.5 104.5q0 53 -39.5 90t-106.5 37q-72 0 -111.5 -40.5t-39.5 -99.5h-154q0 113 84 197t221 84q145 0 222 -80q80 -80 80 -184
q0 -80 -38 -149t-132 -160l-226 -217v-7h410v-143z" />
    <glyph glyph-name="threequarters" unicode="&#xbe;" horiz-adv-x="2009" 
d="M426 506q-147 0 -235.5 81t-88.5 208h146q2 -66 50.5 -107t127.5 -41q80 0 123 38t43 110q0 64 -44 99.5t-128 35.5h-107v139h105q151 0 151 133q0 51 -40 84t-107 33q-150 0 -160 -141h-147q5 130 85.5 205t225.5 75q135 1 218 -69.5t83 -186.5q0 -64 -32 -114.5
t-79 -75.5v-8q61 -24 97.5 -79t36.5 -128q0 -131 -88.5 -211t-235.5 -80zM705 0h-162v20l889 1414h157v-21zM1782 0h-152v195h-422v157l377 574h197v-588h125v-143h-125v-195zM1362 346v-8h268v412h-8z" />
    <glyph glyph-name="questiondown" unicode="&#xbf;" horiz-adv-x="1112" 
d="M688 821h-221v226h221v-226zM551 -408q-192 0 -310 102t-118 269q0 193 156 313l86 68q75 57 102 98q29 43 29 117v33h163v-33q0 -122 -43 -186q-42 -67 -141 -144l-65 -51q-107 -82 -107 -211q0 -101 64.5 -161t183.5 -60q130 0 196 69t66 191h176q0 -174 -115 -295
q-113 -119 -323 -119z" />
    <glyph glyph-name="Agrave" unicode="&#xc0;" horiz-adv-x="1396" 
d="M817 1602v-21h-153l-238 279v20h236zM588 1434h219l528 -1414v-20h-190l-135 375h-627l-135 -375h-187v20zM692 1235l-252 -700h512l-252 700h-8z" />
    <glyph glyph-name="Aacute" unicode="&#xc1;" horiz-adv-x="1396" 
d="M979 1880v-20l-238 -279h-153v21l155 278h236zM588 1434h219l528 -1414v-20h-190l-135 375h-627l-135 -375h-187v20zM692 1235l-252 -700h512l-252 700h-8z" />
    <glyph glyph-name="Acircumflex" unicode="&#xc2;" horiz-adv-x="1396" 
d="M707 1749h-9l-147 -164h-170v21l209 270h227l209 -270v-21h-172zM588 1434h219l528 -1414v-20h-190l-135 375h-627l-135 -375h-187v20zM692 1235l-252 -700h512l-252 700h-8z" />
    <glyph glyph-name="Atilde" unicode="&#xc3;" horiz-adv-x="1396" 
d="M545 1706q-33 0 -54.5 -24t-21.5 -64h-123v31q0 95 55.5 147.5t145.5 52.5q69 0 137 -45l29 -18q50 -29 82 -29t53.5 25t21.5 63h121v-30q0 -96 -54 -148.5t-144 -52.5q-68 0 -136 45l-28 18q-50 29 -84 29zM588 1434h219l528 -1414v-20h-190l-135 375h-627l-135 -375
h-187v20zM692 1235l-252 -700h512l-252 700h-8z" />
    <glyph glyph-name="Adieresis" unicode="&#xc4;" horiz-adv-x="1396" 
d="M420 1862h211v-211h-211v211zM776 1862h211v-211h-211v211zM588 1434h219l528 -1414v-20h-190l-135 375h-627l-135 -375h-187v20zM692 1235l-252 -700h512l-252 700h-8z" />
    <glyph glyph-name="Aring" unicode="&#xc5;" horiz-adv-x="1396" 
d="M696 1559q-99 0 -163 62.5t-64 160.5t64.5 161.5t162.5 63.5q103 0 166.5 -62.5t63.5 -162.5q0 -98 -65 -160.5t-165 -62.5zM694 1882q-59 4 -83.5 -48.5t0 -104.5t83.5 -46q62 -6 87.5 46t0 104.5t-87.5 48.5zM588 1434h219l528 -1414v-20h-190l-135 375h-627l-135 -375
h-187v20zM692 1235l-252 -700h512l-252 700h-8z" />
    <glyph glyph-name="AE" unicode="&#xc6;" horiz-adv-x="1863" 
d="M248 0h-187v20l527 1414h1153v-164h-873l168 -449h641v-164h-579l184 -495h459v-162h-596l-135 375h-627zM692 1235l-252 -700h512l-252 700h-8z" />
    <glyph glyph-name="Ccedilla" unicode="&#xc7;" horiz-adv-x="1452" 
d="M756 147q335 0 391 318h182q-30 -217 -161.5 -342.5t-354.5 -138.5l-47 -78q88 0 143.5 -46.5t55.5 -121.5q0 -83 -61.5 -133.5t-178.5 -50.5q-102 0 -166.5 49t-64.5 137h122q0 -70 107 -70q42 0 69 18t27 50q0 29 -24.5 47t-65.5 18h-65l-52 64l60 119
q-264 27 -408 221q-141 197 -141 508q0 337 166 536q168 201 467 201q251 0 400.5 -132t172.5 -366h-184q-19 157 -117.5 243.5t-271.5 86.5q-97 0 -174.5 -31.5t-128 -84.5t-84 -127t-48 -154.5t-14.5 -171.5t14.5 -171.5t48 -154t84 -126.5t128 -84.5t174.5 -31.5z" />
    <glyph glyph-name="Egrave" unicode="&#xc8;" horiz-adv-x="1249" 
d="M799 1581h-154l-237 279v20h235l156 -278v-21zM1126 0h-921v1434h921v-164h-743v-449h680v-164h-680v-495h743v-162z" />
    <glyph glyph-name="Eacute" unicode="&#xc9;" horiz-adv-x="1249" 
d="M723 1581h-154v21l156 278h236v-20zM1126 0h-921v1434h921v-164h-743v-449h680v-164h-680v-495h743v-162z" />
    <glyph glyph-name="Ecircumflex" unicode="&#xca;" horiz-adv-x="1249" 
d="M532 1585h-170v21l209 270h228l209 -270v-21h-172l-148 164h-8zM1126 0h-921v1434h921v-164h-743v-449h680v-164h-680v-495h743v-162z" />
    <glyph glyph-name="Edieresis" unicode="&#xcb;" horiz-adv-x="1249" 
d="M612 1651h-211v211h211v-211zM969 1651h-211v211h211v-211zM1126 0h-921v1434h921v-164h-743v-449h680v-164h-680v-495h743v-162z" />
    <glyph glyph-name="Igrave" unicode="&#xcc;" horiz-adv-x="589" 
d="M416 1581h-154l-237 279v20h235l156 -278v-21zM385 0h-180v1434h180v-1434z" />
    <glyph glyph-name="Iacute" unicode="&#xcd;" horiz-adv-x="589" 
d="M340 1581h-154v21l156 278h236v-20zM385 0h-180v1434h180v-1434z" />
    <glyph glyph-name="Icircumflex" unicode="&#xce;" horiz-adv-x="589" 
d="M150 1585h-170v21l208 270h228l209 -270v-21h-172l-148 164h-8zM385 0h-180v1434h180v-1434z" />
    <glyph glyph-name="Idieresis" unicode="&#xcf;" horiz-adv-x="589" 
d="M229 1651h-211v211h211v-211zM586 1651h-211v211h211v-211zM385 0h-180v1434h180v-1434z" />
    <glyph glyph-name="Eth" unicode="&#xd0;" horiz-adv-x="1546" 
d="M309 1434h475q298 0 469 -195q170 -194 170 -522q0 -317 -166 -516q-165 -201 -473 -201h-475v657h-145v166h145v611zM487 162h279q233 0 352 155q121 157 121 400q0 238 -121 395q-122 158 -352 158h-279v-447h404v-166h-404v-495z" />
    <glyph glyph-name="Ntilde" unicode="&#xd1;" horiz-adv-x="1521" 
d="M881 1614q-68 0 -136 45l-28 18q-50 29 -84 29q-33 0 -54.5 -24t-21.5 -64h-123v31q0 95 55.5 147.5t145.5 52.5q69 0 137 -45l29 -18q50 -29 82 -29t53.5 25t21.5 63h121v-30q0 -96 -54 -148.5t-144 -52.5zM379 0h-174v1434h194l734 -1141h8v1141h176v-1434h-197
l-733 1135h-8v-1135z" />
    <glyph glyph-name="Ograve" unicode="&#xd2;" horiz-adv-x="1515" 
d="M889 1581h-154l-237 279v20h235l156 -278v-21zM758 1452q316 0 475 -205q160 -204 160 -530q0 -324 -160 -531q-158 -204 -475 -204q-316 0 -475 202q-160 207 -160 533q0 325 158 530q159 205 477 205zM758 1284q-99 0 -177.5 -31.5t-129 -84t-84 -126.5t-47 -154
t-13.5 -171q0 -244 107 -406q106 -161 344 -161q236 0 342 161q108 163 108 406q0 241 -108 405q-107 162 -342 162z" />
    <glyph glyph-name="Oacute" unicode="&#xd3;" horiz-adv-x="1515" 
d="M813 1581h-154v21l156 278h236v-20zM758 1452q316 0 475 -205q160 -204 160 -530q0 -324 -160 -531q-158 -204 -475 -204q-316 0 -475 202q-160 207 -160 533q0 325 158 530q159 205 477 205zM758 1284q-99 0 -177.5 -31.5t-129 -84t-84 -126.5t-47 -154t-13.5 -171
q0 -244 107 -406q106 -161 344 -161q236 0 342 161q108 163 108 406q0 241 -108 405q-107 162 -342 162z" />
    <glyph glyph-name="Ocircumflex" unicode="&#xd4;" horiz-adv-x="1515" 
d="M623 1585h-170v21l209 270h227l209 -270v-21h-172l-148 164h-8zM758 1452q316 0 475 -205q160 -204 160 -530q0 -324 -160 -531q-158 -204 -475 -204q-316 0 -475 202q-160 207 -160 533q0 325 158 530q159 205 477 205zM758 1284q-99 0 -177.5 -31.5t-129 -84
t-84 -126.5t-47 -154t-13.5 -171q0 -244 107 -406q106 -161 344 -161q236 0 342 161q108 163 108 406q0 241 -108 405q-107 162 -342 162z" />
    <glyph glyph-name="Otilde" unicode="&#xd5;" horiz-adv-x="1515" 
d="M864 1614q-67 0 -135 45l-29 18q-50 29 -84 29q-33 0 -54 -24t-21 -64h-123v31q0 95 55 147.5t145 52.5q70 0 138 -45l28 -18q50 -29 82 -29t54 25t22 63h121v-30q0 -96 -54.5 -148.5t-144.5 -52.5zM758 1452q316 0 475 -205q160 -204 160 -530q0 -324 -160 -531
q-158 -204 -475 -204q-316 0 -475 202q-160 207 -160 533q0 325 158 530q159 205 477 205zM758 1284q-99 0 -177.5 -31.5t-129 -84t-84 -126.5t-47 -154t-13.5 -171q0 -244 107 -406q106 -161 344 -161q236 0 342 161q108 163 108 406q0 241 -108 405q-107 162 -342 162z
" />
    <glyph glyph-name="Odieresis" unicode="&#xd6;" horiz-adv-x="1515" 
d="M702 1651h-210v211h210v-211zM1059 1651h-211v211h211v-211zM758 1452q316 0 475 -205q160 -204 160 -530q0 -324 -160 -531q-158 -204 -475 -204q-316 0 -475 202q-160 207 -160 533q0 325 158 530q159 205 477 205zM758 1284q-99 0 -177.5 -31.5t-129 -84t-84 -126.5
t-47 -154t-13.5 -171q0 -244 107 -406q106 -161 344 -161q236 0 342 161q108 163 108 406q0 241 -108 405q-107 162 -342 162z" />
    <glyph glyph-name="multiply" unicode="&#xd7;" horiz-adv-x="841" 
d="M434 539l-307 -299l-111 110l306 297l-306 297l111 111l307 -299l307 299l111 -111l-305 -297l305 -297l-111 -110z" />
    <glyph glyph-name="Oslash" unicode="&#xd8;" horiz-adv-x="1515" 
d="M1255 1511h162v-20l-182 -246q158 -199 158 -528q0 -324 -160 -531q-158 -204 -475 -204q-225 0 -377 110l-125 -170h-158v21l183 245q-158 196 -158 529q0 325 158 530q159 205 477 205q224 0 375 -109zM307 717q0 -230 86 -375l633 858q-110 84 -268 84
q-99 0 -177.5 -31.5t-129 -84t-84 -126.5t-47 -154t-13.5 -171zM1208 717q0 230 -86 375l-635 -856q109 -86 271 -86q236 0 342 161q108 163 108 406z" />
    <glyph glyph-name="Ugrave" unicode="&#xd9;" horiz-adv-x="1462" 
d="M842 1581h-154l-237 279v20h235l156 -278v-21zM729 -18q-254 0 -399.5 139.5t-145.5 384.5v928h178v-924q0 -172 94.5 -268.5t272.5 -96.5q180 0 274.5 96t94.5 269v924h180v-928q0 -246 -145.5 -385t-403.5 -139z" />
    <glyph glyph-name="Uacute" unicode="&#xda;" horiz-adv-x="1462" 
d="M766 1581h-154v21l156 278h236v-20zM729 -18q-254 0 -399.5 139.5t-145.5 384.5v928h178v-924q0 -172 94.5 -268.5t272.5 -96.5q180 0 274.5 96t94.5 269v924h180v-928q0 -246 -145.5 -385t-403.5 -139z" />
    <glyph glyph-name="Ucircumflex" unicode="&#xdb;" horiz-adv-x="1462" 
d="M575 1585h-169v21l208 270h228l209 -270v-21h-172l-148 164h-8zM729 -18q-254 0 -399.5 139.5t-145.5 384.5v928h178v-924q0 -172 94.5 -268.5t272.5 -96.5q180 0 274.5 96t94.5 269v924h180v-928q0 -246 -145.5 -385t-403.5 -139z" />
    <glyph glyph-name="Udieresis" unicode="&#xdc;" horiz-adv-x="1462" 
d="M655 1651h-211v211h211v-211zM1012 1651h-211v211h211v-211zM729 -18q-254 0 -399.5 139.5t-145.5 384.5v928h178v-924q0 -172 94.5 -268.5t272.5 -96.5q180 0 274.5 96t94.5 269v924h180v-928q0 -246 -145.5 -385t-403.5 -139z" />
    <glyph glyph-name="Yacute" unicode="&#xdd;" horiz-adv-x="1329" 
d="M717 1581h-154v21l156 278h235v-20zM756 0h-181v598l-514 815v21h201l402 -664h8l399 664h197v-21l-512 -815v-598z" />
    <glyph glyph-name="Thorn" unicode="&#xde;" horiz-adv-x="1228" 
d="M385 0h-180v1434h180v-205h348q219 0 344 -125q129 -126 129 -328q0 -208 -129 -334q-130 -127 -344 -127h-348v-315zM385 1067v-588h326q149 0 230 77t81 220q0 137 -82.5 214t-228.5 77h-326z" />
    <glyph glyph-name="germandbls" unicode="&#xdf;" horiz-adv-x="1300" 
d="M840 -18q-173 0 -277 97.5t-108 266.5h172q0 -101 56.5 -156t156.5 -55q86 0 135 39t49 111q0 102 -139 149l-131 45q-143 49 -205 109.5t-62 165.5q0 59 20.5 104t53.5 72.5t72.5 50t79.5 41.5t73 39.5t53.5 52.5t20.5 74q0 88 -64.5 141t-183.5 53q-256 0 -256 -276
v-1106h-172v1126q0 175 113 291q113 119 315 119t312 -104t110 -244q0 -88 -37 -151.5t-98 -96.5q-25 -12 -66.5 -30t-68 -30t-55 -29.5t-42.5 -39.5t-14 -49q0 -30 12 -50t42 -38q36 -22 129 -56l88 -30q142 -50 208 -122t66 -181q0 -141 -106 -222t-252 -81z" />
    <glyph glyph-name="agrave" unicode="&#xe0;" horiz-adv-x="1124" 
d="M676 1194h-154l-237 279v20h235l156 -279v-20zM467 -18q-163 0 -266 92q-99 92 -99 231q0 148 111.5 238t321.5 90h258v67q0 98 -62.5 158t-179.5 60q-107 0 -168.5 -52.5t-63.5 -134.5h-165q0 151 110 242q115 92 287 92q193 0 301 -102q109 -103 109 -258v-705h-146
l-12 147h-8q-98 -165 -328 -165zM498 125q131 0 213 82t82 199v90h-258q-259 0 -259 -189q0 -84 57.5 -133t164.5 -49z" />
    <glyph glyph-name="aacute" unicode="&#xe1;" horiz-adv-x="1124" 
d="M600 1194h-154v20l156 279h236v-20zM467 -18q-163 0 -266 92q-99 92 -99 231q0 148 111.5 238t321.5 90h258v67q0 98 -62.5 158t-179.5 60q-107 0 -168.5 -52.5t-63.5 -134.5h-165q0 151 110 242q115 92 287 92q193 0 301 -102q109 -103 109 -258v-705h-146l-12 147h-8
q-98 -165 -328 -165zM498 125q131 0 213 82t82 199v90h-258q-259 0 -259 -189q0 -84 57.5 -133t164.5 -49z" />
    <glyph glyph-name="acircumflex" unicode="&#xe2;" horiz-adv-x="1124" 
d="M410 1198h-170v21l209 270h227l209 -270v-21h-172l-148 164h-8zM467 -18q-163 0 -266 92q-99 92 -99 231q0 148 111.5 238t321.5 90h258v67q0 98 -62.5 158t-179.5 60q-107 0 -168.5 -52.5t-63.5 -134.5h-165q0 151 110 242q115 92 287 92q193 0 301 -102
q109 -103 109 -258v-705h-146l-12 147h-8q-98 -165 -328 -165zM498 125q131 0 213 82t82 199v90h-258q-259 0 -259 -189q0 -84 57.5 -133t164.5 -49z" />
    <glyph glyph-name="atilde" unicode="&#xe3;" horiz-adv-x="1124" 
d="M651 1227q-67 0 -135 45l-29 18q-50 29 -84 29q-33 0 -54 -24t-21 -64h-123v31q0 95 55.5 147.5t145.5 52.5q69 0 137 -45l28 -18q50 -29 82 -29t54 25t22 63h121v-31q0 -96 -54.5 -148t-144.5 -52zM467 -18q-163 0 -266 92q-99 92 -99 231q0 148 111.5 238t321.5 90h258
v67q0 98 -62.5 158t-179.5 60q-107 0 -168.5 -52.5t-63.5 -134.5h-165q0 151 110 242q115 92 287 92q193 0 301 -102q109 -103 109 -258v-705h-146l-12 147h-8q-98 -165 -328 -165zM498 125q131 0 213 82t82 199v90h-258q-259 0 -259 -189q0 -84 57.5 -133t164.5 -49z" />
    <glyph glyph-name="adieresis" unicode="&#xe4;" horiz-adv-x="1124" 
d="M489 1264h-210v211h210v-211zM846 1264h-211v211h211v-211zM467 -18q-163 0 -266 92q-99 92 -99 231q0 148 111.5 238t321.5 90h258v67q0 98 -62.5 158t-179.5 60q-107 0 -168.5 -52.5t-63.5 -134.5h-165q0 151 110 242q115 92 287 92q193 0 301 -102q109 -103 109 -258
v-705h-146l-12 147h-8q-98 -165 -328 -165zM498 125q131 0 213 82t82 199v90h-258q-259 0 -259 -189q0 -84 57.5 -133t164.5 -49z" />
    <glyph glyph-name="aring" unicode="&#xe5;" horiz-adv-x="1124" 
d="M555 1171q-99 0 -163 63t-64 161t64.5 161.5t162.5 63.5q102 0 165.5 -62.5t63.5 -162.5q0 -98 -64.5 -161t-164.5 -63zM553 1296q62 -6 87.5 46t0 104.5t-87.5 48.5q-59 4 -83.5 -48.5t0 -104.5t83.5 -46zM467 -18q-163 0 -266 92q-99 92 -99 231q0 148 111.5 238
t321.5 90h258v67q0 98 -62.5 158t-179.5 60q-107 0 -168.5 -52.5t-63.5 -134.5h-165q0 151 110 242q115 92 287 92q193 0 301 -102q109 -103 109 -258v-705h-146l-12 147h-8q-98 -165 -328 -165zM498 125q131 0 213 82t82 199v90h-258q-259 0 -259 -189q0 -84 57.5 -133
t164.5 -49z" />
    <glyph glyph-name="ae" unicode="&#xe6;" horiz-adv-x="1806" 
d="M467 -18q-163 0 -266 92q-99 92 -99 231q0 148 111.5 238t321.5 90h258v67q0 98 -62.5 158t-179.5 60q-107 0 -168.5 -52.5t-63.5 -134.5h-165q0 151 110 242q115 92 287 92q234 0 346 -160h8q121 160 346 160q215 0 334 -143q119 -140 119 -367v-84h-746q0 -156 77 -246
t218 -90q105 0 175 43.5t90 124.5h172q-21 -145 -144 -233q-122 -88 -293 -88q-263 0 -381 213h-8q-46 -93 -148.5 -153t-248.5 -60zM961 614h565q0 134 -72 215.5t-203 81.5q-136 0 -210.5 -81t-79.5 -216zM498 125q131 0 213 82t82 199v90h-258q-259 0 -259 -189
q0 -84 57.5 -133t164.5 -49z" />
    <glyph glyph-name="ccedilla" unicode="&#xe7;" horiz-adv-x="1112" 
d="M838 352h172q-14 -164 -112 -260t-273 -108l-47 -78q88 0 143 -46.5t55 -121.5q0 -83 -61 -133.5t-178 -50.5q-102 0 -167 49t-65 137h123q0 -70 107 -70q42 0 69 18t27 50q0 29 -24.5 47t-65.5 18h-66l-51 64l61 121q-185 29 -284 168t-99 366q0 253 123.5 398
t349.5 145q196 0 307.5 -102.5t123.5 -274.5h-172q-7 104 -76.5 163.5t-182.5 59.5q-149 0 -224 -104.5t-75 -284.5q0 -183 74.5 -286t224.5 -103q116 0 184 57t79 162z" />
    <glyph glyph-name="egrave" unicode="&#xe8;" horiz-adv-x="1130" 
d="M696 1194h-153l-238 279v20h236l155 -279v-20zM578 -18q-226 0 -351 149t-125 391q0 240 121 391q122 152 352 152q215 0 334 -143q119 -140 119 -367v-84h-745q0 -156 77 -246t218 -90q105 0 174.5 43.5t89.5 124.5h172q-21 -145 -144 -233q-122 -88 -292 -88zM285 614
h565q0 134 -72 215.5t-203 81.5q-136 0 -210.5 -81t-79.5 -216z" />
    <glyph glyph-name="eacute" unicode="&#xe9;" horiz-adv-x="1130" 
d="M621 1194h-154v20l156 279h235v-20zM578 -18q-226 0 -351 149t-125 391q0 240 121 391q122 152 352 152q215 0 334 -143q119 -140 119 -367v-84h-745q0 -156 77 -246t218 -90q105 0 174.5 43.5t89.5 124.5h172q-21 -145 -144 -233q-122 -88 -292 -88zM285 614h565
q0 134 -72 215.5t-203 81.5q-136 0 -210.5 -81t-79.5 -216z" />
    <glyph glyph-name="ecircumflex" unicode="&#xea;" horiz-adv-x="1130" 
d="M430 1198h-170v21l209 270h227l209 -270v-21h-172l-147 164h-8zM578 -18q-226 0 -351 149t-125 391q0 240 121 391q122 152 352 152q215 0 334 -143q119 -140 119 -367v-84h-745q0 -156 77 -246t218 -90q105 0 174.5 43.5t89.5 124.5h172q-21 -145 -144 -233
q-122 -88 -292 -88zM285 614h565q0 134 -72 215.5t-203 81.5q-136 0 -210.5 -81t-79.5 -216z" />
    <glyph glyph-name="edieresis" unicode="&#xeb;" horiz-adv-x="1130" 
d="M510 1264h-211v211h211v-211zM866 1264h-211v211h211v-211zM578 -18q-226 0 -351 149t-125 391q0 240 121 391q122 152 352 152q215 0 334 -143q119 -140 119 -367v-84h-745q0 -156 77 -246t218 -90q105 0 174.5 43.5t89.5 124.5h172q-21 -145 -144 -233
q-122 -88 -292 -88zM285 614h565q0 134 -72 215.5t-203 81.5q-136 0 -210.5 -81t-79.5 -216z" />
    <glyph glyph-name="igrave" unicode="&#xec;" horiz-adv-x="520" 
d="M391 1194h-153l-238 279v20h236l155 -279v-20zM356 0h-172v1047h172v-1047z" />
    <glyph glyph-name="iacute" unicode="&#xed;" horiz-adv-x="520" 
d="M315 1194h-153v20l155 279h236v-20zM356 0h-172v1047h172v-1047z" />
    <glyph glyph-name="icircumflex" unicode="&#xee;" horiz-adv-x="520" 
d="M125 1198h-170v21l209 270h227l209 -270v-21h-172l-147 164h-9zM356 0h-172v1047h172v-1047z" />
    <glyph glyph-name="idieresis" unicode="&#xef;" horiz-adv-x="520" 
d="M205 1264h-211v211h211v-211zM561 1264h-211v211h211v-211zM356 0h-172v1047h172v-1047z" />
    <glyph glyph-name="eth" unicode="&#xf0;" horiz-adv-x="1150" 
d="M1049 524v-2q0 -240 -121 -391q-119 -149 -353 -149q-235 0 -354 149t-119 391q0 240 121 391q122 152 352 152q43 0 105 -10q-71 89 -160 172l-213 -125l-71 110l178 107q-127 99 -264 176v21h219q105 -60 178 -119l194 114l72 -112l-158 -92q321 -291 379 -635
q15 -65 15 -148zM575 135q150 0 224.5 101.5t74.5 285.5t-74.5 286.5t-224.5 102.5q-149 0 -224 -103t-75 -286t75 -285t224 -102z" />
    <glyph glyph-name="ntilde" unicode="&#xf1;" horiz-adv-x="1210" 
d="M754 1227q-68 0 -136 45l-28 18q-50 29 -84 29q-33 0 -54.5 -24t-21.5 -64h-123v31q0 95 55.5 147.5t145.5 52.5q69 0 137 -45l29 -18q50 -29 82 -29t53.5 25t21.5 63h121v-31q0 -96 -54 -148t-144 -52zM356 0h-172v1047h150l14 -164h8q95 182 324 182
q172 0 269.5 -102.5t97.5 -282.5v-680h-173v653q0 258 -241 258q-131 0 -204 -87.5t-73 -245.5v-578z" />
    <glyph glyph-name="ograve" unicode="&#xf2;" horiz-adv-x="1150" 
d="M696 1194h-153l-238 279v20h236l155 -279v-20zM575 -18q-235 0 -354 149t-119 391q0 240 121 391q122 152 352 152q231 0 353 -152q121 -151 121 -391t-121 -391q-119 -149 -353 -149zM575 135q150 0 224.5 101.5t74.5 285.5t-74.5 286.5t-224.5 102.5q-149 0 -224 -103
t-75 -286t75 -285t224 -102z" />
    <glyph glyph-name="oacute" unicode="&#xf3;" horiz-adv-x="1150" 
d="M621 1194h-154v20l156 279h235v-20zM575 -18q-235 0 -354 149t-119 391q0 240 121 391q122 152 352 152q231 0 353 -152q121 -151 121 -391t-121 -391q-119 -149 -353 -149zM575 135q150 0 224.5 101.5t74.5 285.5t-74.5 286.5t-224.5 102.5q-149 0 -224 -103t-75 -286
t75 -285t224 -102z" />
    <glyph glyph-name="ocircumflex" unicode="&#xf4;" horiz-adv-x="1150" 
d="M430 1198h-170v21l209 270h227l209 -270v-21h-172l-147 164h-8zM575 -18q-235 0 -354 149t-119 391q0 240 121 391q122 152 352 152q231 0 353 -152q121 -151 121 -391t-121 -391q-119 -149 -353 -149zM575 135q150 0 224.5 101.5t74.5 285.5t-74.5 286.5t-224.5 102.5
q-149 0 -224 -103t-75 -286t75 -285t224 -102z" />
    <glyph glyph-name="otilde" unicode="&#xf5;" horiz-adv-x="1150" 
d="M672 1227q-67 0 -135 45l-29 18q-50 29 -84 29q-33 0 -54.5 -24t-21.5 -64h-123v31q0 95 55.5 147.5t145.5 52.5q69 0 137 -45l29 -18q50 -29 82 -29t54 25t22 63h120v-31q0 -96 -54 -148t-144 -52zM575 -18q-235 0 -354 149t-119 391q0 240 121 391q122 152 352 152
q231 0 353 -152q121 -151 121 -391t-121 -391q-119 -149 -353 -149zM575 135q150 0 224.5 101.5t74.5 285.5t-74.5 286.5t-224.5 102.5q-149 0 -224 -103t-75 -286t75 -285t224 -102z" />
    <glyph glyph-name="odieresis" unicode="&#xf6;" horiz-adv-x="1150" 
d="M510 1264h-211v211h211v-211zM866 1264h-211v211h211v-211zM575 -18q-235 0 -354 149t-119 391q0 240 121 391q122 152 352 152q231 0 353 -152q121 -151 121 -391t-121 -391q-119 -149 -353 -149zM575 135q150 0 224.5 101.5t74.5 285.5t-74.5 286.5t-224.5 102.5
q-149 0 -224 -103t-75 -286t75 -285t224 -102z" />
    <glyph glyph-name="divide" unicode="&#xf7;" horiz-adv-x="974" 
d="M487 856q-59 0 -89.5 32.5t-30.5 90.5q0 57 30.5 89t89.5 32q57 0 89 -32.5t32 -88.5t-32.5 -89.5t-88.5 -33.5zM965 567h-955v148h955v-148zM487 182q-59 0 -89.5 32.5t-30.5 90.5q0 57 30.5 89t89.5 32q57 0 89 -32.5t32 -88.5t-32.5 -89.5t-88.5 -33.5z" />
    <glyph glyph-name="oslash" unicode="&#xf8;" horiz-adv-x="1150" 
d="M895 1124h154v-20l-125 -186q125 -143 125 -396q0 -240 -121 -391q-119 -149 -353 -149q-140 0 -243 59l-80 -119h-150v21l123 184q-123 144 -123 395q0 240 121 391q122 152 352 152q143 0 242 -57zM276 522q0 -152 52 -246l399 598q-61 37 -152 37q-149 0 -224 -103
t-75 -286zM874 522q0 156 -51 248l-401 -596q62 -39 153 -39q150 0 224.5 101.5t74.5 285.5z" />
    <glyph glyph-name="ugrave" unicode="&#xf9;" horiz-adv-x="1189" 
d="M719 1194h-154l-237 279v20h235l156 -279v-20zM530 -16q-172 0 -269 102.5t-97 282.5v678h172v-652q0 -258 242 -258q131 0 203.5 88t72.5 246v576h172v-1047h-149l-15 166h-8q-95 -182 -324 -182z" />
    <glyph glyph-name="uacute" unicode="&#xfa;" horiz-adv-x="1189" 
d="M643 1194h-154v20l156 279h236v-20zM530 -16q-172 0 -269 102.5t-97 282.5v678h172v-652q0 -258 242 -258q131 0 203.5 88t72.5 246v576h172v-1047h-149l-15 166h-8q-95 -182 -324 -182z" />
    <glyph glyph-name="ucircumflex" unicode="&#xfb;" horiz-adv-x="1189" 
d="M453 1198h-170v21l209 270h227l209 -270v-21h-172l-148 164h-8zM530 -16q-172 0 -269 102.5t-97 282.5v678h172v-652q0 -258 242 -258q131 0 203.5 88t72.5 246v576h172v-1047h-149l-15 166h-8q-95 -182 -324 -182z" />
    <glyph glyph-name="udieresis" unicode="&#xfc;" horiz-adv-x="1189" 
d="M532 1264h-210v211h210v-211zM889 1264h-211v211h211v-211zM530 -16q-172 0 -269 102.5t-97 282.5v678h172v-652q0 -258 242 -258q131 0 203.5 88t72.5 246v576h172v-1047h-149l-15 166h-8q-95 -182 -324 -182z" />
    <glyph glyph-name="yacute" unicode="&#xfd;" horiz-adv-x="1079" 
d="M596 1194h-154v20l156 279h236v-20zM41 1026v21h184l318 -822h8l307 822h180v-21l-579 -1495h-174v20l178 457l-2 6z" />
    <glyph glyph-name="thorn" unicode="&#xfe;" horiz-adv-x="1228" 
d="M680 1065q207 0 324.5 -144.5t119.5 -398.5q-3 -242 -116 -391t-328 -149q-216 0 -315 163h-9v-614h-172v1985h172v-615h9q99 164 315 164zM651 135q149 0 224 104.5t75 282.5q0 179 -75 284t-224 105q-143 0 -221 -108t-78 -281t78 -280t221 -107z" />
    <glyph glyph-name="ydieresis" unicode="&#xff;" horiz-adv-x="1079" 
d="M485 1264h-211v211h211v-211zM842 1264h-211v211h211v-211zM41 1026v21h184l318 -822h8l307 822h180v-21l-579 -1495h-174v20l178 457l-2 6z" />
    <glyph glyph-name="Amacron" unicode="&#x100;" horiz-adv-x="1396" 
d="M422 1817h559v-166h-559v166zM588 1434h219l528 -1414v-20h-190l-135 375h-627l-135 -375h-187v20zM692 1235l-252 -700h512l-252 700h-8z" />
    <glyph glyph-name="amacron" unicode="&#x101;" horiz-adv-x="1124" 
d="M840 1264h-559v166h559v-166zM467 -18q-163 0 -266 92q-99 92 -99 231q0 148 111.5 238t321.5 90h258v67q0 98 -62.5 158t-179.5 60q-107 0 -168.5 -52.5t-63.5 -134.5h-165q0 151 110 242q115 92 287 92q193 0 301 -102q109 -103 109 -258v-705h-146l-12 147h-8
q-98 -165 -328 -165zM498 125q131 0 213 82t82 199v90h-258q-259 0 -259 -189q0 -84 57.5 -133t164.5 -49z" />
    <glyph glyph-name="Abreve" unicode="&#x102;" horiz-adv-x="1396" 
d="M696 1585q-139 0 -219 80t-80 211h150q9 -133 149 -133q141 0 150 133h149q0 -133 -78 -212t-221 -79zM588 1434h219l528 -1414v-20h-190l-135 375h-627l-135 -375h-187v20zM692 1235l-252 -700h512l-252 700h-8z" />
    <glyph glyph-name="abreve" unicode="&#x103;" horiz-adv-x="1124" 
d="M555 1198q-139 0 -219 80t-80 211h150q9 -133 149 -133q141 0 150 133h149q0 -133 -78 -212t-221 -79zM467 -18q-163 0 -266 92q-99 92 -99 231q0 148 111.5 238t321.5 90h258v67q0 98 -62.5 158t-179.5 60q-107 0 -168.5 -52.5t-63.5 -134.5h-165q0 151 110 242
q115 92 287 92q193 0 301 -102q109 -103 109 -258v-705h-146l-12 147h-8q-98 -165 -328 -165zM498 125q131 0 213 82t82 199v90h-258q-259 0 -259 -189q0 -84 57.5 -133t164.5 -49z" />
    <glyph glyph-name="Aogonek" unicode="&#x104;" horiz-adv-x="1396" 
d="M1335 20v-20q-174 -82 -174 -199q0 -47 31 -71.5t78 -24.5h65v-147h-102q-100 0 -168 57t-68 149q0 147 148 236l-135 375h-627l-135 -375h-187v20l527 1414h219zM692 1235l-252 -700h512l-252 700h-8z" />
    <glyph glyph-name="aogonek" unicode="&#x105;" horiz-adv-x="1124" 
d="M961 705v-705q-175 -82 -175 -199q0 -47 31 -71.5t78 -24.5h66v-147h-103q-100 0 -167.5 57t-67.5 149q0 170 190 261l-10 122h-8q-98 -165 -328 -165q-163 0 -266 92q-99 92 -99 231q0 148 111.5 238t321.5 90h258v67q0 98 -62.5 158t-179.5 60q-107 0 -168.5 -52.5
t-63.5 -134.5h-165q0 151 110 242q115 92 287 92q193 0 301 -102q109 -103 109 -258zM793 406v90h-258q-259 0 -259 -189q0 -84 57.5 -133t164.5 -49q131 0 213 82t82 199z" />
    <glyph glyph-name="Cacute" unicode="&#x106;" horiz-adv-x="1452" 
d="M801 1581h-154v21l156 278h235v-20zM756 -18q-304 0 -469 198q-164 200 -164 535q0 337 166 536q168 201 467 201q251 0 400.5 -132t172.5 -366h-184q-19 157 -117.5 243.5t-271.5 86.5q-97 0 -174.5 -31.5t-128 -84.5t-84 -127t-48 -154.5t-14.5 -171.5t14.5 -171.5
t48 -154t84 -126.5t128 -84.5t174.5 -31.5q335 0 391 318h182q-31 -230 -177.5 -356.5t-395.5 -126.5z" />
    <glyph glyph-name="cacute" unicode="&#x107;" horiz-adv-x="1112" 
d="M623 1194h-154v20l156 279h235v-20zM578 -18q-229 0 -352.5 142.5t-123.5 397.5q0 253 123.5 398t349.5 145q196 0 307.5 -102.5t123.5 -274.5h-172q-7 104 -76.5 163.5t-182.5 59.5q-149 0 -224 -104.5t-75 -284.5q0 -183 74.5 -286t224.5 -103q116 0 184 57t79 162h172
q-18 -175 -128 -272.5t-304 -97.5z" />
    <glyph glyph-name="Ccircumflex" unicode="&#x108;" horiz-adv-x="1452" 
d="M610 1585h-170v21l209 270h228l208 -270v-21h-172l-147 164h-8zM756 -18q-304 0 -469 198q-164 200 -164 535q0 337 166 536q168 201 467 201q251 0 400.5 -132t172.5 -366h-184q-19 157 -117.5 243.5t-271.5 86.5q-97 0 -174.5 -31.5t-128 -84.5t-84 -127t-48 -154.5
t-14.5 -171.5t14.5 -171.5t48 -154t84 -126.5t128 -84.5t174.5 -31.5q335 0 391 318h182q-31 -230 -177.5 -356.5t-395.5 -126.5z" />
    <glyph glyph-name="ccircumflex" unicode="&#x109;" horiz-adv-x="1112" 
d="M432 1198h-170v21l209 270h227l209 -270v-21h-172l-147 164h-8zM578 -18q-229 0 -352.5 142.5t-123.5 397.5q0 253 123.5 398t349.5 145q196 0 307.5 -102.5t123.5 -274.5h-172q-7 104 -76.5 163.5t-182.5 59.5q-149 0 -224 -104.5t-75 -284.5q0 -183 74.5 -286
t224.5 -103q116 0 184 57t79 162h172q-18 -175 -128 -272.5t-304 -97.5z" />
    <glyph glyph-name="Cdotaccent" unicode="&#x10a;" horiz-adv-x="1452" 
d="M852 1651h-193v200h193v-200zM756 -18q-304 0 -469 198q-164 200 -164 535q0 337 166 536q168 201 467 201q251 0 400.5 -132t172.5 -366h-184q-19 157 -117.5 243.5t-271.5 86.5q-97 0 -174.5 -31.5t-128 -84.5t-84 -127t-48 -154.5t-14.5 -171.5t14.5 -171.5t48 -154
t84 -126.5t128 -84.5t174.5 -31.5q335 0 391 318h182q-31 -230 -177.5 -356.5t-395.5 -126.5z" />
    <glyph glyph-name="cdotaccent" unicode="&#x10b;" horiz-adv-x="1112" 
d="M674 1264h-193v200h193v-200zM578 -18q-229 0 -352.5 142.5t-123.5 397.5q0 253 123.5 398t349.5 145q196 0 307.5 -102.5t123.5 -274.5h-172q-7 104 -76.5 163.5t-182.5 59.5q-149 0 -224 -104.5t-75 -284.5q0 -183 74.5 -286t224.5 -103q116 0 184 57t79 162h172
q-18 -175 -128 -272.5t-304 -97.5z" />
    <glyph glyph-name="Ccaron" unicode="&#x10c;" horiz-adv-x="1452" 
d="M870 1585h-227l-209 270v21h170l148 -164h8l147 164h172v-21zM756 -18q-304 0 -469 198q-164 200 -164 535q0 337 166 536q168 201 467 201q251 0 400.5 -132t172.5 -366h-184q-19 157 -117.5 243.5t-271.5 86.5q-97 0 -174.5 -31.5t-128 -84.5t-84 -127t-48 -154.5
t-14.5 -171.5t14.5 -171.5t48 -154t84 -126.5t128 -84.5t174.5 -31.5q335 0 391 318h182q-31 -230 -177.5 -356.5t-395.5 -126.5z" />
    <glyph glyph-name="ccaron" unicode="&#x10d;" horiz-adv-x="1112" 
d="M692 1198h-227l-209 270v21h170l147 -164h9l147 164h172v-21zM578 -18q-229 0 -352.5 142.5t-123.5 397.5q0 253 123.5 398t349.5 145q196 0 307.5 -102.5t123.5 -274.5h-172q-7 104 -76.5 163.5t-182.5 59.5q-149 0 -224 -104.5t-75 -284.5q0 -183 74.5 -286t224.5 -103
q116 0 184 57t79 162h172q-18 -175 -128 -272.5t-304 -97.5z" />
    <glyph glyph-name="Dcaron" unicode="&#x10e;" horiz-adv-x="1441" 
d="M752 1585h-228l-209 270v21h170l148 -164h8l147 164h173v-21zM680 0h-475v1434h475q298 0 469 -195q170 -194 170 -522q0 -317 -166 -516q-165 -201 -473 -201zM383 1270v-1108h279q233 0 352 155q121 157 121 400q0 238 -121 395q-122 158 -352 158h-279z" />
    <glyph glyph-name="dcaron" unicode="&#x10f;" 
d="M547 -18q-207 0 -325 144t-120 398q3 241 117 391t328 150q216 0 315 -164h8v615h172v-1516h-149l-23 145h-8q-99 -163 -315 -163zM1278 1167h-121v349h193v-21zM575 135q143 0 221 108t78 281t-78 280t-221 107q-149 0 -224 -104.5t-75 -282.5q0 -179 75 -284t224 -105z
" />
    <glyph glyph-name="Dcroat" unicode="&#x110;" horiz-adv-x="1546" 
d="M309 1434h475q298 0 469 -195q170 -194 170 -522q0 -317 -166 -516q-165 -201 -473 -201h-475v657h-145v166h145v611zM487 162h279q233 0 352 155q121 157 121 400q0 238 -121 395q-122 158 -352 158h-279v-447h404v-166h-404v-495z" />
    <glyph glyph-name="dslash" unicode="&#x111;" 
d="M1042 1362h138v-133h-138v-1229h-149l-23 145h-8q-99 -163 -315 -163q-207 0 -325 144t-120 398q3 241 117 391t328 150q216 0 315 -164h8v328h-231v133h231v154h172v-154zM575 135q143 0 221 108t78 281t-78 280t-221 107q-149 0 -224 -104.5t-75 -282.5q0 -179 75 -284
t224 -105z" />
    <glyph glyph-name="Emacron" unicode="&#x112;" horiz-adv-x="1249" 
d="M963 1651h-560v166h560v-166zM1126 0h-921v1434h921v-164h-743v-449h680v-164h-680v-495h743v-162z" />
    <glyph glyph-name="emacron" unicode="&#x113;" horiz-adv-x="1130" 
d="M860 1264h-559v166h559v-166zM578 -18q-226 0 -351 149t-125 391q0 240 121 391q122 152 352 152q215 0 334 -143q119 -140 119 -367v-84h-745q0 -156 77 -246t218 -90q105 0 174.5 43.5t89.5 124.5h172q-21 -145 -144 -233q-122 -88 -292 -88zM285 614h565
q0 134 -72 215.5t-203 81.5q-136 0 -210.5 -81t-79.5 -216z" />
    <glyph glyph-name="Ebreve" unicode="&#x114;" horiz-adv-x="1249" 
d="M678 1585q-139 0 -219 80t-80 211h149q9 -133 150 -133q140 0 149 133h150q0 -133 -78 -212t-221 -79zM1126 0h-921v1434h921v-164h-743v-449h680v-164h-680v-495h743v-162z" />
    <glyph glyph-name="ebreve" unicode="&#x115;" horiz-adv-x="1130" 
d="M575 1198q-139 0 -219 80t-80 211h150q9 -133 149 -133q141 0 150 133h149q0 -133 -78 -212t-221 -79zM578 -18q-226 0 -351 149t-125 391q0 240 121 391q122 152 352 152q215 0 334 -143q119 -140 119 -367v-84h-745q0 -156 77 -246t218 -90q105 0 174.5 43.5
t89.5 124.5h172q-21 -145 -144 -233q-122 -88 -292 -88zM285 614h565q0 134 -72 215.5t-203 81.5q-136 0 -210.5 -81t-79.5 -216z" />
    <glyph glyph-name="Edotaccent" unicode="&#x116;" horiz-adv-x="1249" 
d="M774 1651h-192v200h192v-200zM1126 0h-921v1434h921v-164h-743v-449h680v-164h-680v-495h743v-162z" />
    <glyph glyph-name="edotaccent" unicode="&#x117;" horiz-adv-x="1130" 
d="M672 1264h-193v200h193v-200zM578 -18q-226 0 -351 149t-125 391q0 240 121 391q122 152 352 152q215 0 334 -143q119 -140 119 -367v-84h-745q0 -156 77 -246t218 -90q105 0 174.5 43.5t89.5 124.5h172q-21 -145 -144 -233q-122 -88 -292 -88zM285 614h565
q0 134 -72 215.5t-203 81.5q-136 0 -210.5 -81t-79.5 -216z" />
    <glyph glyph-name="Eogonek" unicode="&#x118;" horiz-adv-x="1249" 
d="M1126 1434v-164h-743v-449h680v-164h-680v-495h743v-162h-4q-174 -82 -174 -199q0 -47 31 -71.5t78 -24.5h65v-147h-102q-100 0 -168 57t-68 149q0 146 146 236h-725v1434h921z" />
    <glyph glyph-name="eogonek" unicode="&#x119;" horiz-adv-x="1130" 
d="M1028 555v-84h-745q0 -156 77 -246t218 -90q105 0 174.5 43.5t89.5 124.5h172q-17 -109 -96 -189.5t-197 -113.5q-174 -82 -174 -199q0 -47 30.5 -71.5t77.5 -24.5h66v-147h-103q-100 0 -167.5 57t-67.5 149q0 134 125 222q-189 23 -299 170q-107 146 -107 366
q0 240 121 391q122 152 352 152q215 0 334 -143q119 -140 119 -367zM285 614h565q0 134 -72 215.5t-203 81.5q-136 0 -210.5 -81t-79.5 -216z" />
    <glyph glyph-name="Ecaron" unicode="&#x11a;" horiz-adv-x="1249" 
d="M793 1585h-228l-209 270v21h170l148 -164h8l147 164h172v-21zM1126 0h-921v1434h921v-164h-743v-449h680v-164h-680v-495h743v-162z" />
    <glyph glyph-name="ecaron" unicode="&#x11b;" horiz-adv-x="1130" 
d="M690 1198h-227l-209 270v21h170l147 -164h9l147 164h172v-21zM578 -18q-226 0 -351 149t-125 391q0 240 121 391q122 152 352 152q215 0 334 -143q119 -140 119 -367v-84h-745q0 -156 77 -246t218 -90q105 0 174.5 43.5t89.5 124.5h172q-21 -145 -144 -233
q-122 -88 -292 -88zM285 614h565q0 134 -72 215.5t-203 81.5q-136 0 -210.5 -81t-79.5 -216z" />
    <glyph glyph-name="Gcircumflex" unicode="&#x11c;" horiz-adv-x="1476" 
d="M606 1585h-170v21l209 270h227l209 -270v-21h-172l-147 164h-8zM750 -18q-302 0 -465 196q-162 198 -162 535q0 340 162 538q165 201 465 201q258 0 407 -131q151 -130 172 -346h-184q-14 142 -117.5 225.5t-277.5 83.5q-97 0 -174 -32t-126.5 -85.5t-82.5 -128
t-46.5 -155t-13.5 -170.5q0 -243 105 -406q109 -160 338 -160q206 0 319 125q115 127 115 320h-393v162h563v-121q0 -300 -160 -477q-158 -174 -444 -174z" />
    <glyph glyph-name="gcircumflex" unicode="&#x11d;" 
d="M430 1198h-170v21l209 270h227l209 -270v-21h-172l-147 164h-8zM580 -487q-199 0 -320 100q-124 103 -127 254h166q6 -91 79.5 -149t201.5 -58q139 0 214.5 77.5t75.5 205.5v202h-8q-99 -163 -315 -163q-215 0 -328 149q-114 150 -117 391q2 254 120 398.5t325 144.5
q216 0 315 -164h8l23 146h149v-1108q0 -187 -122 -306q-123 -120 -340 -120zM575 135q143 0 221 107t78 280t-78 281t-221 108q-149 0 -224 -105t-75 -284q0 -178 75 -282.5t224 -104.5z" />
    <glyph glyph-name="Gbreve" unicode="&#x11e;" horiz-adv-x="1476" 
d="M752 1585q-139 0 -219 80t-80 211h149q9 -133 150 -133q140 0 149 133h150q0 -133 -78 -212t-221 -79zM750 -18q-302 0 -465 196q-162 198 -162 535q0 340 162 538q165 201 465 201q258 0 407 -131q151 -130 172 -346h-184q-14 142 -117.5 225.5t-277.5 83.5
q-97 0 -174 -32t-126.5 -85.5t-82.5 -128t-46.5 -155t-13.5 -170.5q0 -243 105 -406q109 -160 338 -160q206 0 319 125q115 127 115 320h-393v162h563v-121q0 -300 -160 -477q-158 -174 -444 -174z" />
    <glyph glyph-name="gbreve" unicode="&#x11f;" 
d="M575 1198q-139 0 -219 80t-80 211h150q9 -133 149 -133q141 0 150 133h149q0 -133 -78 -212t-221 -79zM580 -487q-199 0 -320 100q-124 103 -127 254h166q6 -91 79.5 -149t201.5 -58q139 0 214.5 77.5t75.5 205.5v202h-8q-99 -163 -315 -163q-215 0 -328 149
q-114 150 -117 391q2 254 120 398.5t325 144.5q216 0 315 -164h8l23 146h149v-1108q0 -187 -122 -306q-123 -120 -340 -120zM575 135q143 0 221 107t78 280t-78 281t-221 108q-149 0 -224 -105t-75 -284q0 -178 75 -282.5t224 -104.5z" />
    <glyph glyph-name="Gdotaccent" unicode="&#x120;" horiz-adv-x="1476" 
d="M848 1651h-193v200h193v-200zM750 -18q-302 0 -465 196q-162 198 -162 535q0 340 162 538q165 201 465 201q258 0 407 -131q151 -130 172 -346h-184q-14 142 -117.5 225.5t-277.5 83.5q-97 0 -174 -32t-126.5 -85.5t-82.5 -128t-46.5 -155t-13.5 -170.5q0 -243 105 -406
q109 -160 338 -160q206 0 319 125q115 127 115 320h-393v162h563v-121q0 -300 -160 -477q-158 -174 -444 -174z" />
    <glyph glyph-name="gdotaccent" unicode="&#x121;" 
d="M672 1264h-193v200h193v-200zM580 -487q-199 0 -320 100q-124 103 -127 254h166q6 -91 79.5 -149t201.5 -58q139 0 214.5 77.5t75.5 205.5v202h-8q-99 -163 -315 -163q-215 0 -328 149q-114 150 -117 391q2 254 120 398.5t325 144.5q216 0 315 -164h8l23 146h149v-1108
q0 -187 -122 -306q-123 -120 -340 -120zM575 135q143 0 221 107t78 280t-78 281t-221 108q-149 0 -224 -105t-75 -284q0 -178 75 -282.5t224 -104.5z" />
    <glyph glyph-name="Gcommaaccent" unicode="&#x122;" horiz-adv-x="1476" 
d="M750 -18q-302 0 -465 196q-162 198 -162 535q0 340 162 538q165 201 465 201q258 0 407 -131q151 -130 172 -346h-184q-14 142 -117.5 225.5t-277.5 83.5q-97 0 -174 -32t-126.5 -85.5t-82.5 -128t-46.5 -155t-13.5 -170.5q0 -243 105 -406q109 -160 338 -160
q206 0 319 125q115 127 115 320h-393v162h563v-121q0 -300 -160 -477q-158 -174 -444 -174zM768 -432h-129v20l37 308h192v-21z" />
    <glyph glyph-name="gcommaaccent" unicode="&#x123;" 
d="M598 1505h129v-20l-37 -307h-192v20zM580 -487q-199 0 -320 100q-124 103 -127 254h166q6 -91 79.5 -149t201.5 -58q139 0 214.5 77.5t75.5 205.5v202h-8q-99 -163 -315 -163q-215 0 -328 149q-114 150 -117 391q2 254 120 398.5t325 144.5q216 0 315 -164h8l23 146h149
v-1108q0 -187 -122 -306q-123 -120 -340 -120zM575 135q143 0 221 107t78 280t-78 281t-221 108q-149 0 -224 -105t-75 -284q0 -178 75 -282.5t224 -104.5z" />
    <glyph glyph-name="Hcircumflex" unicode="&#x124;" horiz-adv-x="1505" 
d="M750 1749h-9l-147 -164h-170v21l209 270h227l209 -270v-21h-172zM1122 823v611h178v-1434h-178v657h-739v-657h-178v1434h178v-611h739z" />
    <glyph glyph-name="hcircumflex" unicode="&#x125;" horiz-adv-x="1218" 
d="M125 1608h-170v20l209 270h227l209 -270v-20h-172l-147 164h-9zM356 0h-172v1516h172v-633h9q95 182 319 182q173 0 272 -102.5t99 -282.5v-680h-172v653q0 258 -246 258q-130 0 -205.5 -90t-75.5 -248v-573z" />
    <glyph glyph-name="Hbar" unicode="&#x126;" horiz-adv-x="1505" 
d="M1300 1233h121v-146h-121v-1087h-178v657h-739v-657h-178v1087h-125v146h125v201h178v-201h739v201h178v-201zM383 823h739v264h-739v-264z" />
    <glyph glyph-name="hbar" unicode="&#x127;" horiz-adv-x="1218" 
d="M684 1065q173 0 272 -102.5t99 -282.5v-680h-172v653q0 258 -246 258q-130 0 -205.5 -90t-75.5 -248v-573h-172v1229h-135v133h135v154h172v-154h234v-133h-234v-346h9q95 182 319 182z" />
    <glyph glyph-name="Itilde" unicode="&#x128;" horiz-adv-x="589" 
d="M391 1614q-67 0 -135 45l-29 18q-50 29 -84 29q-33 0 -54 -24t-21 -64h-123v31q0 95 55 147.5t145 52.5q70 0 138 -45l28 -18q50 -29 82 -29t54 25t22 63h121v-30q0 -96 -54.5 -148.5t-144.5 -52.5zM385 0h-180v1434h180v-1434z" />
    <glyph glyph-name="itilde" unicode="&#x129;" horiz-adv-x="520" 
d="M367 1227q-68 0 -136 45l-28 18q-50 29 -84 29q-33 0 -54.5 -24t-21.5 -64h-123v31q0 95 55.5 147.5t145.5 52.5q69 0 137 -45l29 -18q50 -29 82 -29t53.5 25t21.5 63h121v-31q0 -96 -54 -148t-144 -52zM356 0h-172v1047h172v-1047z" />
    <glyph glyph-name="Imacron" unicode="&#x12a;" horiz-adv-x="589" 
d="M580 1651h-560v166h560v-166zM385 0h-180v1434h180v-1434z" />
    <glyph glyph-name="imacron" unicode="&#x12b;" horiz-adv-x="520" 
d="M555 1264h-559v166h559v-166zM356 0h-172v1047h172v-1047z" />
    <glyph glyph-name="Ibreve" unicode="&#x12c;" horiz-adv-x="589" 
d="M295 1585q-139 0 -219 80t-80 211h149q9 -133 150 -133q140 0 149 133h150q0 -133 -78 -212t-221 -79zM385 0h-180v1434h180v-1434z" />
    <glyph glyph-name="ibreve" unicode="&#x12d;" horiz-adv-x="520" 
d="M270 1198q-139 0 -219 80t-80 211h150q9 -133 149 -133q141 0 150 133h149q0 -133 -78 -212t-221 -79zM356 0h-172v1047h172v-1047z" />
    <glyph glyph-name="Iogonek" unicode="&#x12e;" horiz-adv-x="589" 
d="M385 1434v-1434q-174 -82 -174 -199q0 -47 30.5 -71.5t77.5 -24.5h66v-147h-102q-100 0 -168 57t-68 149q0 152 158 242v1428h180z" />
    <glyph glyph-name="iogonek" unicode="&#x12f;" horiz-adv-x="520" 
d="M174 1264v200h193v-200h-193zM184 12v1035h172v-1047q-174 -82 -174 -199q0 -47 31 -71.5t78 -24.5h65v-147h-102q-100 0 -168 57t-68 149q0 157 166 248z" />
    <glyph glyph-name="Idot" unicode="&#x130;" horiz-adv-x="589" 
d="M391 1651h-192v200h192v-200zM385 0h-180v1434h180v-1434z" />
    <glyph glyph-name="dotlessi" unicode="&#x131;" horiz-adv-x="520" 
d="M356 0h-172v1047h172v-1047z" />
    <glyph glyph-name="IJ" unicode="&#x132;" horiz-adv-x="1679" 
d="M385 0h-180v1434h180v-1434zM1071 -18q-194 0 -307 116q-113 119 -113 312h180q0 -120 63.5 -189t180.5 -69t178.5 69.5t61.5 194.5v1018h180v-1018q0 -199 -114 -316.5t-310 -117.5z" />
    <glyph glyph-name="ij" unicode="&#x133;" horiz-adv-x="1069" 
d="M367 1264h-193v200h193v-200zM915 1264h-192v200h192v-200zM356 0h-172v1047h172v-1047zM602 -487h-82v151h78q135 0 135 150v1233h172v-1231q0 -153 -74.5 -228t-228.5 -75z" />
    <glyph glyph-name="Jcircumflex" unicode="&#x134;" horiz-adv-x="1089" 
d="M662 1585h-170v21l208 270h228l209 -270v-21h-172l-148 164h-8zM481 -18q-194 0 -307 116q-113 119 -113 312h181q0 -120 63 -189t180 -69t178.5 69.5t61.5 194.5v1018h180v-1018q0 -199 -114 -316.5t-310 -117.5z" />
    <glyph glyph-name="jcircumflex" unicode="&#x135;" horiz-adv-x="548" 
d="M150 1198h-170v21l208 270h228l209 -270v-21h-172l-148 164h-8zM82 -487h-82v151h78q135 0 135 150v1233h172v-1231q0 -153 -74.5 -228t-228.5 -75z" />
    <glyph glyph-name="Kcommaaccent" unicode="&#x136;" horiz-adv-x="1292" 
d="M1251 1413l-643 -657l664 -736v-20h-215l-674 745v-745h-178v1434h178v-668l655 668h213v-21zM598 -432v20l37 308h192v-21l-100 -307h-129z" />
    <glyph glyph-name="kcommaaccent" unicode="&#x137;" horiz-adv-x="1054" 
d="M184 0v1516h172v-1516h-172zM1001 1026l-423 -438l436 -568v-20h-199l-459 588l443 459h202v-21zM455 -432v20l37 308h192v-21l-100 -307h-129z" />
    <glyph glyph-name="kgreenlandic" unicode="&#x138;" horiz-adv-x="1054" 
d="M184 0v1047h172v-1047h-172zM1001 1026l-423 -459l436 -547v-20h-199l-459 567l443 480h202v-21z" />
    <glyph glyph-name="Lacute" unicode="&#x139;" horiz-adv-x="1126" 
d="M338 1581h-154v21l156 278h235v-20zM1075 0h-870v1434h178v-1270h692v-164z" />
    <glyph glyph-name="lacute" unicode="&#x13a;" horiz-adv-x="520" 
d="M315 1604h-153v20l155 279h236v-21zM356 0h-172v1516h172v-1516z" />
    <glyph glyph-name="Lcommaaccent" unicode="&#x13b;" horiz-adv-x="1126" 
d="M1075 0h-870v1434h178v-1270h692v-164zM639 -432h-129v20l37 308h192v-21z" />
    <glyph glyph-name="lcommaaccent" unicode="&#x13c;" horiz-adv-x="520" 
d="M356 0h-172v1516h172v-1516zM262 -432h-129v20l37 308h192v-21z" />
    <glyph glyph-name="Lcaron" unicode="&#x13d;" horiz-adv-x="1126" 
d="M1075 0h-870v1434h178v-1270h692v-164zM776 1085h-121v349h193v-21z" />
    <glyph glyph-name="lcaron" unicode="&#x13e;" horiz-adv-x="561" 
d="M356 0h-172v1516h172v-1516zM592 1167h-121v349h193v-21z" />
    <glyph glyph-name="Ldot" unicode="&#x13f;" horiz-adv-x="1228" 
d="M1075 0h-870v1434h178v-1270h692v-164zM911 645h-221v225h221v-225z" />
    <glyph glyph-name="ldot" unicode="&#x140;" horiz-adv-x="753" 
d="M356 0h-172v1516h172v-1516zM702 647h-221v225h221v-225z" />
    <glyph glyph-name="Lslash" unicode="&#x141;" horiz-adv-x="1269" 
d="M526 616v-452h693v-164h-871v547l-123 -49h-20v157l143 58v721h178v-652l369 148h20v-162z" />
    <glyph glyph-name="lslash" unicode="&#x142;" horiz-adv-x="731" 
d="M629 930h20v-162l-200 -102v-666h-173v578l-153 -80h-21v157l174 90v771h173v-680z" />
    <glyph glyph-name="Nacute" unicode="&#x143;" horiz-adv-x="1521" 
d="M829 1581h-153v21l155 278h236v-20zM379 0h-174v1434h194l734 -1141h8v1141h176v-1434h-197l-733 1135h-8v-1135z" />
    <glyph glyph-name="nacute" unicode="&#x144;" horiz-adv-x="1210" 
d="M702 1194h-153v20l156 279h235v-20zM356 0h-172v1047h150l14 -164h8q95 182 324 182q172 0 269.5 -102.5t97.5 -282.5v-680h-173v653q0 258 -241 258q-131 0 -204 -87.5t-73 -245.5v-578z" />
    <glyph glyph-name="Ncommaaccent" unicode="&#x145;" horiz-adv-x="1521" 
d="M379 0h-174v1434h194l734 -1141h8v1141h176v-1434h-197l-733 1135h-8v-1135zM758 -432h-129v20l37 308h192v-21z" />
    <glyph glyph-name="ncommaaccent" unicode="&#x146;" horiz-adv-x="1210" 
d="M356 0h-172v1047h150l14 -164h8q95 182 324 182q172 0 269.5 -102.5t97.5 -282.5v-680h-173v653q0 258 -241 258q-131 0 -204 -87.5t-73 -245.5v-578zM621 -432h-129v20l36 308h193v-21z" />
    <glyph glyph-name="Ncaron" unicode="&#x147;" horiz-adv-x="1521" 
d="M899 1585h-227l-209 270v21h170l147 -164h8l148 164h172v-21zM379 0h-174v1434h194l734 -1141h8v1141h176v-1434h-197l-733 1135h-8v-1135z" />
    <glyph glyph-name="ncaron" unicode="&#x148;" horiz-adv-x="1210" 
d="M772 1198h-227l-209 270v21h170l147 -164h9l147 164h172v-21zM356 0h-172v1047h150l14 -164h8q95 182 324 182q172 0 269.5 -102.5t97.5 -282.5v-680h-173v653q0 258 -241 258q-131 0 -204 -87.5t-73 -245.5v-578z" />
    <glyph glyph-name="napostrophe" unicode="&#x149;" horiz-adv-x="1210" 
d="M49 948h-139v21l63 465h203v-21zM356 0h-172v1047h150l14 -164h8q95 182 324 182q172 0 269.5 -102.5t97.5 -282.5v-680h-173v653q0 258 -241 258q-131 0 -204 -87.5t-73 -245.5v-578z" />
    <glyph glyph-name="Eng" unicode="&#x14a;" horiz-adv-x="1521" 
d="M1141 293v1141h176v-1489q0 -199 -114 -316.5t-310 -117.5v170q120 0 184 69.5t64 194.5v55h-21l-733 1135h-8v-1135h-174v1434h194l734 -1141h8z" />
    <glyph glyph-name="eng" unicode="&#x14b;" horiz-adv-x="1210" 
d="M680 1065q172 0 269.5 -102.5t97.5 -282.5v-864q0 -153 -74.5 -228t-229.5 -75q-37 0 -81 12v145q40 -6 77 -6q135 0 135 150v839q0 258 -241 258q-131 0 -204 -87.5t-73 -245.5v-578h-172v1047h150l14 -164h8q95 182 324 182z" />
    <glyph glyph-name="Omacron" unicode="&#x14c;" horiz-adv-x="1515" 
d="M1053 1651h-559v166h559v-166zM758 1452q316 0 475 -205q160 -204 160 -530q0 -324 -160 -531q-158 -204 -475 -204q-316 0 -475 202q-160 207 -160 533q0 325 158 530q159 205 477 205zM758 1284q-99 0 -177.5 -31.5t-129 -84t-84 -126.5t-47 -154t-13.5 -171
q0 -244 107 -406q106 -161 344 -161q236 0 342 161q108 163 108 406q0 241 -108 405q-107 162 -342 162z" />
    <glyph glyph-name="omacron" unicode="&#x14d;" horiz-adv-x="1150" 
d="M860 1264h-559v166h559v-166zM575 -18q-235 0 -354 149t-119 391q0 240 121 391q122 152 352 152q231 0 353 -152q121 -151 121 -391t-121 -391q-119 -149 -353 -149zM575 135q150 0 224.5 101.5t74.5 285.5t-74.5 286.5t-224.5 102.5q-149 0 -224 -103t-75 -286t75 -285
t224 -102z" />
    <glyph glyph-name="Obreve" unicode="&#x14e;" horiz-adv-x="1515" 
d="M768 1585q-139 0 -219 80t-80 211h149q9 -133 150 -133t150 133h149q0 -133 -78 -212t-221 -79zM758 1452q316 0 475 -205q160 -204 160 -530q0 -324 -160 -531q-158 -204 -475 -204q-316 0 -475 202q-160 207 -160 533q0 325 158 530q159 205 477 205zM758 1284
q-99 0 -177.5 -31.5t-129 -84t-84 -126.5t-47 -154t-13.5 -171q0 -244 107 -406q106 -161 344 -161q236 0 342 161q108 163 108 406q0 241 -108 405q-107 162 -342 162z" />
    <glyph glyph-name="obreve" unicode="&#x14f;" horiz-adv-x="1150" 
d="M575 1198q-139 0 -219 80t-80 211h150q9 -133 149 -133q141 0 150 133h149q0 -133 -78 -212t-221 -79zM575 -18q-235 0 -354 149t-119 391q0 240 121 391q122 152 352 152q231 0 353 -152q121 -151 121 -391t-121 -391q-119 -149 -353 -149zM575 135q150 0 224.5 101.5
t74.5 285.5t-74.5 286.5t-224.5 102.5q-149 0 -224 -103t-75 -286t75 -285t224 -102z" />
    <glyph glyph-name="Ohungarumlaut" unicode="&#x150;" horiz-adv-x="1515" 
d="M666 1581h-129v21l110 278h209v-20zM948 1581h-129v21l111 278h209v-20zM758 1452q316 0 475 -205q160 -204 160 -530q0 -324 -160 -531q-158 -204 -475 -204q-316 0 -475 202q-160 207 -160 533q0 325 158 530q159 205 477 205zM758 1284q-99 0 -177.5 -31.5t-129 -84
t-84 -126.5t-47 -154t-13.5 -171q0 -244 107 -406q106 -161 344 -161q236 0 342 161q108 163 108 406q0 241 -108 405q-107 162 -342 162z" />
    <glyph glyph-name="ohungarumlaut" unicode="&#x151;" horiz-adv-x="1150" 
d="M473 1194h-129v20l111 279h209v-20zM756 1194h-129v20l110 279h209v-20zM575 -18q-235 0 -354 149t-119 391q0 240 121 391q122 152 352 152q231 0 353 -152q121 -151 121 -391t-121 -391q-119 -149 -353 -149zM575 135q150 0 224.5 101.5t74.5 285.5t-74.5 286.5
t-224.5 102.5q-149 0 -224 -103t-75 -286t75 -285t224 -102z" />
    <glyph glyph-name="OE" unicode="&#x152;" horiz-adv-x="2252" 
d="M2130 1434v-164h-744v-449h680v-164h-680v-495h744v-162h-922v164q-159 -182 -450 -182q-316 0 -475 202q-160 207 -160 533q0 325 158 530q159 205 477 205q292 0 450 -180v162h922zM758 1284q-99 0 -177.5 -31.5t-129 -84t-84 -126.5t-47 -154t-13.5 -171
q0 -244 107 -406q106 -161 344 -161q236 0 342 161q108 163 108 406q0 241 -108 405q-107 162 -342 162z" />
    <glyph glyph-name="oe" unicode="&#x153;" horiz-adv-x="1902" 
d="M1800 555v-84h-745q0 -156 77 -246t218 -90q105 0 174.5 43.5t89.5 124.5h172q-21 -145 -144 -233q-122 -88 -292 -88q-260 0 -385 198q-125 -198 -390 -198q-235 0 -354 149t-119 391q0 240 121 391q122 152 352 152q260 0 386 -199q126 199 387 199q214 0 333 -143
q119 -140 119 -367zM575 135q150 0 224.5 101.5t74.5 285.5t-74.5 286.5t-224.5 102.5q-149 0 -224 -103t-75 -286t75 -285t224 -102zM1057 614h565q0 134 -72 215.5t-202 81.5q-136 0 -211 -81t-80 -216z" />
    <glyph glyph-name="Racute" unicode="&#x154;" horiz-adv-x="1372" 
d="M987 1880v-20l-237 -279h-154v21l156 278h235zM918 590l385 -570v-20h-195l-377 567h-348v-567h-178v1434h567q213 0 334 -121t121 -309q0 -156 -82 -264t-227 -150zM762 1270h-379v-539h379q134 0 206 70t72 200q0 128 -72.5 198.5t-205.5 70.5z" />
    <glyph glyph-name="racute" unicode="&#x155;" horiz-adv-x="798" 
d="M500 1194h-154v20l156 279h235v-20zM356 0h-172v1047h150l14 -177h8q32 88 106 138.5t171 50.5h94v-166h-82q-289 0 -289 -385v-508z" />
    <glyph glyph-name="Rcommaaccent" unicode="&#x156;" horiz-adv-x="1372" 
d="M918 590l385 -570v-20h-195l-377 567h-348v-567h-178v1434h567q213 0 334 -121t121 -309q0 -156 -82 -264t-227 -150zM762 1270h-379v-539h379q134 0 206 70t72 200q0 128 -72.5 198.5t-205.5 70.5zM596 -432v20l37 308h192v-21l-100 -307h-129z" />
    <glyph glyph-name="rcommaaccent" unicode="&#x157;" horiz-adv-x="798" 
d="M356 0h-172v1047h150l14 -177h8q32 88 106 138.5t171 50.5h94v-166h-82q-289 0 -289 -385v-508zM309 -432h-129v20l37 308h193v-21z" />
    <glyph glyph-name="Rcaron" unicode="&#x158;" horiz-adv-x="1372" 
d="M1028 1855l-209 -270h-227l-209 270v21h170l147 -164h9l147 164h172v-21zM918 590l385 -570v-20h-195l-377 567h-348v-567h-178v1434h567q213 0 334 -121t121 -309q0 -156 -82 -264t-227 -150zM762 1270h-379v-539h379q134 0 206 70t72 200q0 128 -72.5 198.5
t-205.5 70.5z" />
    <glyph glyph-name="rcaron" unicode="&#x159;" horiz-adv-x="798" 
d="M569 1198h-227l-209 270v21h170l148 -164h8l147 164h172v-21zM356 0h-172v1047h150l14 -177h8q32 88 106 138.5t171 50.5h94v-166h-82q-289 0 -289 -385v-508z" />
    <glyph glyph-name="Sacute" unicode="&#x15a;" horiz-adv-x="1294" 
d="M694 1581h-153v21l155 278h236v-20zM645 -18q-254 0 -395.5 119.5t-147.5 328.5h183q8 -136 101.5 -211.5t258.5 -75.5q350 0 350 250q0 96 -64 151.5t-192 82.5l-209 45q-193 42 -286.5 135.5t-93.5 251.5q0 184 131.5 288.5t365.5 104.5q232 0 369 -119
q138 -117 141 -307h-182q-6 124 -90.5 193t-241.5 69q-307 0 -307 -229q0 -160 244 -213l194 -41q408 -83 408 -412q0 -192 -143 -301.5t-394 -109.5z" />
    <glyph glyph-name="sacute" unicode="&#x15b;" horiz-adv-x="1046" 
d="M580 1194h-154v20l156 279h235v-20zM530 -18q-191 0 -307.5 97.5t-120.5 266.5h172q0 -101 68.5 -156t187.5 -55q240 0 240 150q0 114 -160 149l-209 39q-129 26 -197.5 101.5t-68.5 191.5q0 132 105.5 215.5t275.5 83.5q180 0 292 -92.5t112 -245.5h-168q-4 95 -67 144
t-169 49q-99 0 -157 -40.5t-58 -113.5q0 -121 182 -148l164 -30q157 -36 227 -105.5t70 -197.5q0 -140 -119 -222q-118 -81 -295 -81z" />
    <glyph glyph-name="Scircumflex" unicode="&#x15c;" horiz-adv-x="1294" 
d="M504 1585h-170v21l209 270h227l209 -270v-21h-172l-148 164h-8zM645 -18q-254 0 -395.5 119.5t-147.5 328.5h183q8 -136 101.5 -211.5t258.5 -75.5q350 0 350 250q0 96 -64 151.5t-192 82.5l-209 45q-193 42 -286.5 135.5t-93.5 251.5q0 184 131.5 288.5t365.5 104.5
q232 0 369 -119q138 -117 141 -307h-182q-6 124 -90.5 193t-241.5 69q-307 0 -307 -229q0 -160 244 -213l194 -41q408 -83 408 -412q0 -192 -143 -301.5t-394 -109.5z" />
    <glyph glyph-name="scircumflex" unicode="&#x15d;" horiz-adv-x="1046" 
d="M389 1198h-170v21l209 270h227l209 -270v-21h-172l-147 164h-8zM530 -18q-191 0 -307.5 97.5t-120.5 266.5h172q0 -101 68.5 -156t187.5 -55q240 0 240 150q0 114 -160 149l-209 39q-129 26 -197.5 101.5t-68.5 191.5q0 132 105.5 215.5t275.5 83.5q180 0 292 -92.5
t112 -245.5h-168q-4 95 -67 144t-169 49q-99 0 -157 -40.5t-58 -113.5q0 -121 182 -148l164 -30q157 -36 227 -105.5t70 -197.5q0 -140 -119 -222q-118 -81 -295 -81z" />
    <glyph glyph-name="Scedilla" unicode="&#x15e;" horiz-adv-x="1294" 
d="M1182 393q0 -179 -128.5 -288t-351.5 -121l-47 -78q88 0 143.5 -46.5t55.5 -121.5q0 -83 -61.5 -133.5t-178.5 -50.5q-102 0 -166.5 49t-64.5 137h123q0 -70 106 -70q42 0 69.5 18.5t27.5 49.5q0 29 -25 47t-66 18h-65l-51 64l59 119q-215 20 -334 136t-125 308h183
q8 -136 101.5 -211.5t258.5 -75.5q350 0 350 250q0 96 -64 151.5t-192 82.5l-209 45q-193 42 -286.5 135.5t-93.5 251.5q0 184 131.5 288.5t365.5 104.5q232 0 369 -119q138 -117 141 -307h-182q-6 124 -90.5 193t-241.5 69q-307 0 -307 -229q0 -160 244 -213l194 -41
q408 -83 408 -412z" />
    <glyph glyph-name="scedilla" unicode="&#x15f;" horiz-adv-x="1046" 
d="M944 285q0 -125 -98 -206t-256 -95l-47 -78q88 0 143 -46.5t55 -121.5q0 -83 -61 -133.5t-178 -50.5q-102 0 -167 49t-65 137h123q0 -70 107 -70q42 0 69 18t27 50q0 29 -24.5 47t-65.5 18h-66l-51 64l62 119q-157 20 -251 116t-98 244h172q0 -101 68.5 -156t187.5 -55
q240 0 240 150q0 114 -160 149l-209 39q-129 26 -197.5 101.5t-68.5 191.5q0 132 105.5 215.5t275.5 83.5q180 0 292 -92.5t112 -245.5h-168q-4 95 -67 144t-169 49q-99 0 -157 -40.5t-58 -113.5q0 -121 182 -148l164 -30q157 -36 227 -105.5t70 -197.5z" />
    <glyph glyph-name="Scaron" unicode="&#x160;" horiz-adv-x="1294" 
d="M764 1585h-227l-209 270v21h170l147 -164h8l148 164h172v-21zM645 -18q-254 0 -395.5 119.5t-147.5 328.5h183q8 -136 101.5 -211.5t258.5 -75.5q350 0 350 250q0 96 -64 151.5t-192 82.5l-209 45q-193 42 -286.5 135.5t-93.5 251.5q0 184 131.5 288.5t365.5 104.5
q232 0 369 -119q138 -117 141 -307h-182q-6 124 -90.5 193t-241.5 69q-307 0 -307 -229q0 -160 244 -213l194 -41q408 -83 408 -412q0 -192 -143 -301.5t-394 -109.5z" />
    <glyph glyph-name="scaron" unicode="&#x161;" horiz-adv-x="1046" 
d="M649 1198h-227l-209 270v21h170l147 -164h9l147 164h172v-21zM530 -18q-191 0 -307.5 97.5t-120.5 266.5h172q0 -101 68.5 -156t187.5 -55q240 0 240 150q0 114 -160 149l-209 39q-129 26 -197.5 101.5t-68.5 191.5q0 132 105.5 215.5t275.5 83.5q180 0 292 -92.5
t112 -245.5h-168q-4 95 -67 144t-169 49q-99 0 -157 -40.5t-58 -113.5q0 -121 182 -148l164 -30q157 -36 227 -105.5t70 -197.5q0 -140 -119 -222q-118 -81 -295 -81z" />
    <glyph glyph-name="uni0162" unicode="&#x162;" horiz-adv-x="1212" 
d="M696 0h-180v1270h-444v164h1069v-164h-445v-1270zM596 -432h-129v20l37 308h192v-21z" />
    <glyph glyph-name="uni0163" unicode="&#x163;" horiz-adv-x="780" 
d="M688 0h-156q-146 0 -211 70t-65 211v620h-174v146h178v280h168v-280h256v-146h-256v-606q0 -75 32.5 -109t104.5 -34h123v-152zM479 -432h-129v20l37 308h193v-21z" />
    <glyph glyph-name="Tcaron" unicode="&#x164;" horiz-adv-x="1212" 
d="M727 1585h-227l-209 270v21h170l147 -164h8l148 164h172v-21zM696 0h-180v1270h-444v164h1069v-164h-445v-1270z" />
    <glyph glyph-name="tcaron" unicode="&#x165;" horiz-adv-x="780" 
d="M674 1167h-121v349h192v-21zM688 0h-156q-146 0 -211 70t-65 211v620h-174v146h178v280h168v-280h256v-146h-256v-606q0 -75 32.5 -109t104.5 -34h123v-152z" />
    <glyph glyph-name="Tbar" unicode="&#x166;" horiz-adv-x="1212" 
d="M1141 1434v-164h-445v-410h363v-153h-363v-707h-180v707h-362v153h362v410h-444v164h1069z" />
    <glyph glyph-name="tbar" unicode="&#x167;" horiz-adv-x="780" 
d="M668 145h20v-147q-69 -16 -156 -16q-146 0 -211 70t-65 210v318h-174v145h174v176h-174v146h178v223l148 57h20v-280h256v-146h-256v-176h240v-145h-240v-304q0 -75 32.5 -109t104.5 -34q57 0 103 12z" />
    <glyph glyph-name="Utilde" unicode="&#x168;" horiz-adv-x="1462" 
d="M817 1614q-67 0 -135 45l-29 18q-50 29 -84 29q-33 0 -54 -24t-21 -64h-123v31q0 95 55 147.5t145 52.5q70 0 138 -45l28 -18q50 -29 82 -29t54 25t22 63h121v-30q0 -96 -54.5 -148.5t-144.5 -52.5zM729 -18q-254 0 -399.5 139.5t-145.5 384.5v928h178v-924
q0 -172 94.5 -268.5t272.5 -96.5q180 0 274.5 96t94.5 269v924h180v-928q0 -246 -145.5 -385t-403.5 -139z" />
    <glyph glyph-name="utilde" unicode="&#x169;" horiz-adv-x="1189" 
d="M694 1227q-67 0 -135 45l-29 18q-50 29 -84 29q-33 0 -54 -24t-21 -64h-123v31q0 95 55.5 147.5t145.5 52.5q69 0 137 -45l28 -18q50 -29 82 -29t54 25t22 63h121v-31q0 -96 -54.5 -148t-144.5 -52zM530 -16q-172 0 -269 102.5t-97 282.5v678h172v-652q0 -258 242 -258
q131 0 203.5 88t72.5 246v576h172v-1047h-149l-15 166h-8q-95 -182 -324 -182z" />
    <glyph glyph-name="Umacron" unicode="&#x16a;" horiz-adv-x="1462" 
d="M1006 1651h-560v166h560v-166zM729 -18q-254 0 -399.5 139.5t-145.5 384.5v928h178v-924q0 -172 94.5 -268.5t272.5 -96.5q180 0 274.5 96t94.5 269v924h180v-928q0 -246 -145.5 -385t-403.5 -139z" />
    <glyph glyph-name="umacron" unicode="&#x16b;" horiz-adv-x="1189" 
d="M883 1264h-559v166h559v-166zM530 -16q-172 0 -269 102.5t-97 282.5v678h172v-652q0 -258 242 -258q131 0 203.5 88t72.5 246v576h172v-1047h-149l-15 166h-8q-95 -182 -324 -182z" />
    <glyph glyph-name="Ubreve" unicode="&#x16c;" horiz-adv-x="1462" 
d="M721 1585q-139 0 -219 80t-80 211h149q9 -133 150 -133q140 0 149 133h150q0 -133 -78 -212t-221 -79zM729 -18q-254 0 -399.5 139.5t-145.5 384.5v928h178v-924q0 -172 94.5 -268.5t272.5 -96.5q180 0 274.5 96t94.5 269v924h180v-928q0 -246 -145.5 -385t-403.5 -139z
" />
    <glyph glyph-name="ubreve" unicode="&#x16d;" horiz-adv-x="1189" 
d="M598 1198q-139 0 -219 80t-80 211h150q9 -133 149 -133q141 0 150 133h149q0 -133 -78 -212t-221 -79zM530 -16q-172 0 -269 102.5t-97 282.5v678h172v-652q0 -258 242 -258q131 0 203.5 88t72.5 246v576h172v-1047h-149l-15 166h-8q-95 -182 -324 -182z" />
    <glyph glyph-name="Uring" unicode="&#x16e;" horiz-adv-x="1462" 
d="M721 1559q-99 0 -163 62.5t-64 160.5t64.5 161.5t162.5 63.5q102 0 165.5 -62.5t63.5 -162.5q0 -98 -64.5 -160.5t-164.5 -62.5zM719 1683q62 -6 87.5 46t0 104.5t-87.5 48.5q-59 4 -83.5 -48.5t0 -104.5t83.5 -46zM729 -18q-254 0 -399.5 139.5t-145.5 384.5v928h178
v-924q0 -172 94.5 -268.5t272.5 -96.5q180 0 274.5 96t94.5 269v924h180v-928q0 -246 -145.5 -385t-403.5 -139z" />
    <glyph glyph-name="uring" unicode="&#x16f;" horiz-adv-x="1189" 
d="M598 1171q-99 0 -163 63t-64 161t64.5 161.5t162.5 63.5q102 0 165.5 -62.5t63.5 -162.5q0 -98 -64.5 -161t-164.5 -63zM596 1296q62 -6 87.5 46t0 104.5t-87.5 48.5q-59 4 -83.5 -48.5t0 -104.5t83.5 -46zM530 -16q-172 0 -269 102.5t-97 282.5v678h172v-652
q0 -258 242 -258q131 0 203.5 88t72.5 246v576h172v-1047h-149l-15 166h-8q-95 -182 -324 -182z" />
    <glyph glyph-name="Uhungarumlaut" unicode="&#x170;" horiz-adv-x="1462" 
d="M618 1581h-129v21l111 278h209v-20zM901 1581h-129v21l111 278h209v-20zM729 -18q-254 0 -399.5 139.5t-145.5 384.5v928h178v-924q0 -172 94.5 -268.5t272.5 -96.5q180 0 274.5 96t94.5 269v924h180v-928q0 -246 -145.5 -385t-403.5 -139z" />
    <glyph glyph-name="uhungarumlaut" unicode="&#x171;" horiz-adv-x="1189" 
d="M496 1194h-129v20l110 279h209v-20zM778 1194h-129v20l111 279h209v-20zM530 -16q-172 0 -269 102.5t-97 282.5v678h172v-652q0 -258 242 -258q131 0 203.5 88t72.5 246v576h172v-1047h-149l-15 166h-8q-95 -182 -324 -182z" />
    <glyph glyph-name="Uogonek" unicode="&#x172;" horiz-adv-x="1462" 
d="M1098 510v924h180v-928q0 -210 -107.5 -343.5t-304.5 -168.5q-159 -82 -159 -193q0 -47 30.5 -71.5t77.5 -24.5h66v-147h-103q-100 0 -167.5 57t-67.5 149q0 134 121 220q-224 19 -352 157t-128 365v928h178v-924q0 -172 94.5 -268.5t272.5 -96.5q180 0 274.5 96
t94.5 269z" />
    <glyph glyph-name="uogonek" unicode="&#x173;" horiz-adv-x="1189" 
d="M1026 1047v-1047q-174 -82 -174 -199q0 -47 31 -71.5t78 -24.5h65v-147h-102q-100 0 -168 57t-68 149q0 171 186 259l-12 143h-8q-95 -182 -324 -182q-172 0 -269 102.5t-97 282.5v678h172v-652q0 -258 242 -258q131 0 203.5 88t72.5 246v576h172z" />
    <glyph glyph-name="Wcircumflex" unicode="&#x174;" horiz-adv-x="1855" 
d="M778 1585h-170v21l209 270h227l209 -270v-21h-172l-147 164h-8zM592 0h-178l-353 1413v21h175l274 -1155h8l316 1155h184l319 -1155h9l272 1155h176v-21l-356 -1413h-181l-325 1145h-8z" />
    <glyph glyph-name="wcircumflex" unicode="&#x175;" horiz-adv-x="1536" 
d="M631 1176h-170v20l209 270h227l209 -270v-20h-172l-148 163h-8zM516 0h-178l-297 1026v21h178l209 -814h8l246 814h176l246 -814h8l209 814h174v-21l-295 -1026h-178l-246 813h-8z" />
    <glyph glyph-name="Ycircumflex" unicode="&#x176;" horiz-adv-x="1329" 
d="M526 1585h-170v21l209 270h228l208 -270v-21h-172l-147 164h-8zM756 0h-181v598l-514 815v21h201l402 -664h8l399 664h197v-21l-512 -815v-598z" />
    <glyph glyph-name="ycircumflex" unicode="&#x177;" horiz-adv-x="1079" 
d="M406 1198h-170v21l208 270h228l209 -270v-21h-172l-148 164h-8zM41 1026v21h184l318 -822h8l307 822h180v-21l-579 -1495h-174v20l178 457l-2 6z" />
    <glyph glyph-name="Ydieresis" unicode="&#x178;" horiz-adv-x="1329" 
d="M606 1651h-211v211h211v-211zM963 1651h-211v211h211v-211zM756 0h-181v598l-514 815v21h201l402 -664h8l399 664h197v-21l-512 -815v-598z" />
    <glyph glyph-name="Zacute" unicode="&#x179;" horiz-adv-x="1222" 
d="M651 1581h-153v21l155 278h236v-20zM1141 0h-1059v158l823 1102v8h-805v166h1028v-162l-821 -1100v-8h834v-164z" />
    <glyph glyph-name="zacute" unicode="&#x17a;" horiz-adv-x="1028" 
d="M559 1194h-153v20l155 279h236v-20zM915 0h-802v141l596 752v8h-594v146h796v-144l-594 -749v-9h598v-145z" />
    <glyph glyph-name="Zdotaccent" unicode="&#x17b;" horiz-adv-x="1222" 
d="M702 1651h-192v200h192v-200zM1141 0h-1059v158l823 1102v8h-805v166h1028v-162l-821 -1100v-8h834v-164z" />
    <glyph glyph-name="zdotaccent" unicode="&#x17c;" horiz-adv-x="1028" 
d="M610 1264h-192v200h192v-200zM915 0h-802v141l596 752v8h-594v146h796v-144l-594 -749v-9h598v-145z" />
    <glyph glyph-name="Zcaron" unicode="&#x17d;" horiz-adv-x="1222" 
d="M721 1585h-227l-209 270v21h170l147 -164h8l148 164h172v-21zM1141 0h-1059v158l823 1102v8h-805v166h1028v-162l-821 -1100v-8h834v-164z" />
    <glyph glyph-name="zcaron" unicode="&#x17e;" horiz-adv-x="1028" 
d="M629 1198h-228l-208 270v21h169l148 -164h8l148 164h172v-21zM915 0h-802v141l596 752v8h-594v146h796v-144l-594 -749v-9h598v-145z" />
    <glyph glyph-name="florin" unicode="&#x192;" horiz-adv-x="888" 
d="M254 -469h-172v20l176 1149h-174v144h197l47 313q47 326 348 326h131v-148h-121q-161 -3 -188 -186l-47 -305h270v-144h-291z" />
    <glyph glyph-name="uni01CD" unicode="&#x1cd;" horiz-adv-x="1396" 
d="M1020 1855l-209 -270h-227l-209 270v21h170l147 -164h8l148 164h172v-21zM588 1434h219l528 -1414v-20h-190l-135 375h-627l-135 -375h-187v20zM692 1235l-252 -700h512l-252 700h-8z" />
    <glyph glyph-name="uni01CE" unicode="&#x1ce;" horiz-adv-x="1124" 
d="M670 1198h-228l-209 270v21h170l148 -164h8l148 164h172v-21zM467 -18q-163 0 -266 92q-99 92 -99 231q0 148 111.5 238t321.5 90h258v67q0 98 -62.5 158t-179.5 60q-107 0 -168.5 -52.5t-63.5 -134.5h-165q0 151 110 242q115 92 287 92q193 0 301 -102
q109 -103 109 -258v-705h-146l-12 147h-8q-98 -165 -328 -165zM498 125q131 0 213 82t82 199v90h-258q-259 0 -259 -189q0 -84 57.5 -133t164.5 -49z" />
    <glyph glyph-name="uni01CF" unicode="&#x1cf;" horiz-adv-x="589" 
d="M410 1585h-228l-209 270v21h170l148 -164h8l147 164h172v-21zM385 0h-180v1434h180v-1434z" />
    <glyph glyph-name="uni01D0" unicode="&#x1d0;" horiz-adv-x="520" 
d="M385 1198h-227l-209 270v21h170l147 -164h8l148 164h172v-21zM356 0h-172v1047h172v-1047z" />
    <glyph glyph-name="uni01D1" unicode="&#x1d1;" horiz-adv-x="1515" 
d="M883 1585h-228l-209 270v21h170l148 -164h8l148 164h172v-21zM758 1452q316 0 475 -205q160 -204 160 -530q0 -324 -160 -531q-158 -204 -475 -204q-316 0 -475 202q-160 207 -160 533q0 325 158 530q159 205 477 205zM758 1284q-99 0 -177.5 -31.5t-129 -84t-84 -126.5
t-47 -154t-13.5 -171q0 -244 107 -406q106 -161 344 -161q236 0 342 161q108 163 108 406q0 241 -108 405q-107 162 -342 162z" />
    <glyph glyph-name="uni01D2" unicode="&#x1d2;" horiz-adv-x="1150" 
d="M690 1198h-227l-209 270v21h170l147 -164h9l147 164h172v-21zM575 -18q-235 0 -354 149t-119 391q0 240 121 391q122 152 352 152q231 0 353 -152q121 -151 121 -391t-121 -391q-119 -149 -353 -149zM575 135q150 0 224.5 101.5t74.5 285.5t-74.5 286.5t-224.5 102.5
q-149 0 -224 -103t-75 -286t75 -285t224 -102z" />
    <glyph glyph-name="Gcaron" unicode="&#x1e6;" horiz-adv-x="1476" 
d="M866 1585h-227l-209 270v21h170l148 -164h8l147 164h172v-21zM750 -18q-302 0 -465 196q-162 198 -162 535q0 340 162 538q165 201 465 201q258 0 407 -131q151 -130 172 -346h-184q-14 142 -117.5 225.5t-277.5 83.5q-97 0 -174 -32t-126.5 -85.5t-82.5 -128t-46.5 -155
t-13.5 -170.5q0 -243 105 -406q109 -160 338 -160q206 0 319 125q115 127 115 320h-393v162h563v-121q0 -300 -160 -477q-158 -174 -444 -174z" />
    <glyph glyph-name="gcaron" unicode="&#x1e7;" 
d="M690 1198h-227l-209 270v21h170l147 -164h9l147 164h172v-21zM580 -487q-199 0 -320 100q-124 103 -127 254h166q6 -91 79.5 -149t201.5 -58q139 0 214.5 77.5t75.5 205.5v202h-8q-99 -163 -315 -163q-215 0 -328 149q-114 150 -117 391q2 254 120 398.5t325 144.5
q216 0 315 -164h8l23 146h149v-1108q0 -187 -122 -306q-123 -120 -340 -120zM575 135q143 0 221 107t78 280t-78 281t-221 108q-149 0 -224 -105t-75 -284q0 -178 75 -282.5t224 -104.5z" />
    <glyph glyph-name="Scommaaccent" unicode="&#x218;" horiz-adv-x="1294" 
d="M645 -18q-254 0 -395.5 119.5t-147.5 328.5h183q8 -136 101.5 -211.5t258.5 -75.5q350 0 350 250q0 96 -64 151.5t-192 82.5l-209 45q-193 42 -286.5 135.5t-93.5 251.5q0 184 131.5 288.5t365.5 104.5q232 0 369 -119q138 -117 141 -307h-182q-6 124 -90.5 193
t-241.5 69q-307 0 -307 -229q0 -160 244 -213l194 -41q408 -83 408 -412q0 -192 -143 -301.5t-394 -109.5zM643 -432h-129v20l37 308h192v-21z" />
    <glyph glyph-name="scommaaccent" unicode="&#x219;" horiz-adv-x="1046" 
d="M530 -18q-191 0 -307.5 97.5t-120.5 266.5h172q0 -101 68.5 -156t187.5 -55q240 0 240 150q0 114 -160 149l-209 39q-129 26 -197.5 101.5t-68.5 191.5q0 132 105.5 215.5t275.5 83.5q180 0 292 -92.5t112 -245.5h-168q-4 95 -67 144t-169 49q-99 0 -157 -40.5
t-58 -113.5q0 -121 182 -148l164 -30q157 -36 227 -105.5t70 -197.5q0 -140 -119 -222q-118 -81 -295 -81zM530 -432h-129v20l37 308h193v-21z" />
    <glyph glyph-name="uni021A" unicode="&#x21a;" horiz-adv-x="1212" 
d="M696 1270v-1270h-30l-58 -94q88 0 143.5 -46.5t55.5 -121.5q0 -83 -61.5 -133.5t-178.5 -50.5q-102 0 -166.5 49t-64.5 137h123q0 -70 106 -70q42 0 69.5 18.5t27.5 49.5q0 29 -25 47t-66 18h-65l-51 64l67 133h-6v1270h-444v164h1069v-164h-445z" />
    <glyph glyph-name="uni021B" unicode="&#x21b;" horiz-adv-x="780" 
d="M549 0l-57 -94q88 0 143 -46.5t55 -121.5q0 -83 -61 -133.5t-178 -50.5q-102 0 -167 49t-65 137h123q0 -70 107 -70q42 0 69 18t27 50q0 29 -24.5 47t-65.5 18h-66l-51 64l76 149q-158 47 -158 265v620h-174v146h178v280h168v-280h256v-146h-256v-606q0 -75 32.5 -109
t104.5 -34h123v-152h-139z" />
    <glyph glyph-name="uni0237" unicode="&#x237;" horiz-adv-x="548" 
d="M82 -487h-82v151h78q135 0 135 150v1233h172v-1231q0 -153 -74.5 -228t-228.5 -75z" />
    <glyph glyph-name="circumflex" unicode="&#x2c6;" horiz-adv-x="788" 
d="M242 1198h-170v21l209 270h227l209 -270v-21h-172l-148 164h-8z" />
    <glyph glyph-name="caron" unicode="&#x2c7;" horiz-adv-x="788" 
d="M508 1198h-227l-209 270v21h170l147 -164h8l148 164h172v-21z" />
    <glyph glyph-name="breve" unicode="&#x2d8;" horiz-adv-x="741" 
d="M371 1198q-139 0 -219 80t-80 211h149q9 -133 150 -133q140 0 149 133h150q0 -133 -78 -212t-221 -79z" />
    <glyph glyph-name="dotaccent" unicode="&#x2d9;" horiz-adv-x="360" 
d="M276 1264h-192v200h192v-200z" />
    <glyph glyph-name="ring" unicode="&#x2da;" horiz-adv-x="600" 
d="M299 1171q-99 0 -163 63t-64 161t64.5 161.5t162.5 63.5q102 0 165.5 -62.5t63.5 -162.5q0 -98 -64.5 -161t-164.5 -63zM297 1296q62 -6 87.5 46t0 104.5t-87.5 48.5q-59 4 -83.5 -48.5t0 -104.5t83.5 -46z" />
    <glyph glyph-name="ogonek" unicode="&#x2db;" horiz-adv-x="481" 
d="M410 -442h-103q-100 0 -167.5 57t-67.5 149q0 177 209 269l129 -33q-174 -82 -174 -199q0 -47 30.5 -71.5t77.5 -24.5h66v-147z" />
    <glyph glyph-name="tilde" unicode="&#x2dc;" horiz-adv-x="788" 
d="M518 1227q-67 0 -135 45l-29 18q-50 29 -84 29q-33 0 -54 -24t-21 -64h-123v31q0 95 55 147.5t145 52.5q70 0 138 -45l28 -18q50 -29 82 -29t54 25t22 63h121v-31q0 -96 -54.5 -148t-144.5 -52z" />
    <glyph glyph-name="hungarumlaut" unicode="&#x2dd;" horiz-adv-x="745" 
d="M201 1194h-129v20l110 279h209v-20zM483 1194h-129v20l111 279h209v-20z" />
    <glyph glyph-name="uni0326" unicode="&#x326;" horiz-adv-x="0" 
d="M-203 -432h-129v20l37 308h193v-21z" />
    <glyph glyph-name="Wgrave" unicode="&#x1e80;" horiz-adv-x="1855" 
d="M1044 1581h-153l-238 279v20h236l155 -278v-21zM592 0h-178l-353 1413v21h175l274 -1155h8l316 1155h184l319 -1155h9l272 1155h176v-21l-356 -1413h-181l-325 1145h-8z" />
    <glyph glyph-name="wgrave" unicode="&#x1e81;" horiz-adv-x="1536" 
d="M897 1171h-154l-237 279v20h235l156 -278v-21zM516 0h-178l-297 1026v21h178l209 -814h8l246 814h176l246 -814h8l209 814h174v-21l-295 -1026h-178l-246 813h-8z" />
    <glyph glyph-name="Wacute" unicode="&#x1e82;" horiz-adv-x="1855" 
d="M969 1581h-154v21l156 278h235v-20zM592 0h-178l-353 1413v21h175l274 -1155h8l316 1155h184l319 -1155h9l272 1155h176v-21l-356 -1413h-181l-325 1145h-8z" />
    <glyph glyph-name="wacute" unicode="&#x1e83;" horiz-adv-x="1536" 
d="M821 1171h-153v21l155 278h236v-20zM516 0h-178l-297 1026v21h178l209 -814h8l246 814h176l246 -814h8l209 814h174v-21l-295 -1026h-178l-246 813h-8z" />
    <glyph glyph-name="Wdieresis" unicode="&#x1e84;" horiz-adv-x="1855" 
d="M858 1651h-211v211h211v-211zM1214 1651h-210v211h210v-211zM592 0h-178l-353 1413v21h175l274 -1155h8l316 1155h184l319 -1155h9l272 1155h176v-21l-356 -1413h-181l-325 1145h-8z" />
    <glyph glyph-name="wdieresis" unicode="&#x1e85;" horiz-adv-x="1536" 
d="M711 1241h-211v211h211v-211zM1067 1241h-211v211h211v-211zM516 0h-178l-297 1026v21h178l209 -814h8l246 814h176l246 -814h8l209 814h174v-21l-295 -1026h-178l-246 813h-8z" />
    <glyph glyph-name="uni1EBC" unicode="&#x1ebc;" horiz-adv-x="1249" 
d="M774 1614q-67 0 -135 45l-29 18q-50 29 -84 29q-33 0 -54 -24t-21 -64h-123v31q0 95 55 147.5t145 52.5q70 0 138 -45l28 -18q50 -29 82 -29t54 25t22 63h121v-30q0 -96 -54.5 -148.5t-144.5 -52.5zM1126 0h-921v1434h921v-164h-743v-449h680v-164h-680v-495h743v-162z
" />
    <glyph glyph-name="uni1EBD" unicode="&#x1ebd;" horiz-adv-x="1130" 
d="M672 1227q-67 0 -135 45l-29 18q-50 29 -84 29q-33 0 -54.5 -24t-21.5 -64h-123v31q0 95 55.5 147.5t145.5 52.5q69 0 137 -45l29 -18q50 -29 82 -29t54 25t22 63h120v-31q0 -96 -54 -148t-144 -52zM578 -18q-226 0 -351 149t-125 391q0 240 121 391q122 152 352 152
q215 0 334 -143q119 -140 119 -367v-84h-745q0 -156 77 -246t218 -90q105 0 174.5 43.5t89.5 124.5h172q-21 -145 -144 -233q-122 -88 -292 -88zM285 614h565q0 134 -72 215.5t-203 81.5q-136 0 -210.5 -81t-79.5 -216z" />
    <glyph glyph-name="Ygrave" unicode="&#x1ef2;" horiz-adv-x="1329" 
d="M793 1581h-154l-238 279v20h236l156 -278v-21zM756 0h-181v598l-514 815v21h201l402 -664h8l399 664h197v-21l-512 -815v-598z" />
    <glyph glyph-name="ygrave" unicode="&#x1ef3;" horiz-adv-x="1079" 
d="M672 1194h-154l-237 279v20h235l156 -279v-20zM41 1026v21h184l318 -822h8l307 822h180v-21l-579 -1495h-174v20l178 457l-2 6z" />
    <glyph glyph-name="uni2000" unicode="&#x2000;" horiz-adv-x="1003" 
 />
    <glyph glyph-name="uni2001" unicode="&#x2001;" horiz-adv-x="2007" 
 />
    <glyph glyph-name="uni2002" unicode="&#x2002;" horiz-adv-x="1003" 
 />
    <glyph glyph-name="uni2003" unicode="&#x2003;" horiz-adv-x="2007" 
 />
    <glyph glyph-name="uni2004" unicode="&#x2004;" horiz-adv-x="667" 
 />
    <glyph glyph-name="uni2005" unicode="&#x2005;" horiz-adv-x="501" 
 />
    <glyph glyph-name="uni2006" unicode="&#x2006;" horiz-adv-x="333" 
 />
    <glyph glyph-name="uni2007" unicode="&#x2007;" horiz-adv-x="333" 
 />
    <glyph glyph-name="uni2008" unicode="&#x2008;" horiz-adv-x="249" 
 />
    <glyph glyph-name="uni2009" unicode="&#x2009;" horiz-adv-x="401" 
 />
    <glyph glyph-name="uni200A" unicode="&#x200a;" horiz-adv-x="110" 
 />
    <glyph glyph-name="uni2010" unicode="&#x2010;" horiz-adv-x="954" 
d="M791 520h-627v160h627v-160z" />
    <glyph glyph-name="uni2011" unicode="&#x2011;" horiz-adv-x="954" 
d="M791 520h-627v160h627v-160z" />
    <glyph glyph-name="figuredash" unicode="&#x2012;" horiz-adv-x="954" 
d="M791 520h-627v160h627v-160z" />
    <glyph glyph-name="endash" unicode="&#x2013;" horiz-adv-x="1273" 
d="M1151 520h-1028v160h1028v-160z" />
    <glyph glyph-name="emdash" unicode="&#x2014;" horiz-adv-x="2256" 
d="M2134 520h-2011v160h2011v-160z" />
    <glyph glyph-name="quoteleft" unicode="&#x2018;" horiz-adv-x="438" 
d="M213 1434h139v-21l-63 -465h-203v21z" />
    <glyph glyph-name="quoteright" unicode="&#x2019;" horiz-adv-x="438" 
d="M225 948h-139v21l64 465h202v-21z" />
    <glyph glyph-name="quotesinglbase" unicode="&#x201a;" horiz-adv-x="438" 
d="M225 -274h-139v20l64 465h202v-21z" />
    <glyph glyph-name="quotedblleft" unicode="&#x201c;" horiz-adv-x="786" 
d="M213 1434h139v-21l-63 -465h-203v21zM561 1434h139v-21l-63 -465h-203v21z" />
    <glyph glyph-name="quotedblright" unicode="&#x201d;" horiz-adv-x="786" 
d="M225 948h-139v21l64 465h202v-21zM573 948h-139v21l64 465h202v-21z" />
    <glyph glyph-name="quotedblbase" unicode="&#x201e;" horiz-adv-x="786" 
d="M225 -274h-139v20l64 465h202v-21zM573 -274h-139v20l64 465h202v-21z" />
    <glyph glyph-name="dagger" unicode="&#x2020;" horiz-adv-x="1011" 
d="M582 1141h225v-148h-225v-305l-21 -338h-110l-21 338v305h-225v148h225v293h152v-293z" />
    <glyph glyph-name="daggerdbl" unicode="&#x2021;" horiz-adv-x="1011" 
d="M807 993h-229l-17 -276l17 -275h229v-147h-225v-293h-152v293h-225v147h229l17 275l-17 276h-229v148h225v293h152v-293h225v-148z" />
    <glyph glyph-name="bullet" unicode="&#x2022;" horiz-adv-x="790" 
d="M395 319q-129 0 -200.5 76t-71.5 207q0 127 71.5 202t200.5 75q126 0 199.5 -76t73.5 -201q0 -129 -72.5 -206t-200.5 -77z" />
    <glyph glyph-name="ellipsis" unicode="&#x2026;" horiz-adv-x="1593" 
d="M354 0h-221v225h221v-225zM907 0h-221v225h221v-225zM1460 0h-221v225h221v-225z" />
    <glyph glyph-name="uni202F" unicode="&#x202f;" horiz-adv-x="401" 
 />
    <glyph glyph-name="perthousand" unicode="&#x2030;" horiz-adv-x="2465" 
d="M670 815q-74 -102 -226 -102q-150 0 -227 102q-74 103 -74 270q0 168 74 271q76 102 227 102q152 0 226 -102q75 -100 75 -271q0 -170 -75 -270zM471 0h-162v20l971 1414h158v-21zM289 1085q0 -241 155 -241q156 0 156 241q0 242 -156 242q-155 0 -155 -242zM1530 84
q-73 -102 -225 -102q-151 0 -228 102q-73 101 -73 270q0 170 73 271q77 102 228 102q152 0 225 -102q76 -101 76 -271q0 -169 -76 -270zM2247 84q-73 -102 -226 -102q-151 0 -227 102q-74 103 -74 270q0 168 74 271q76 102 227 102q153 0 226 -102q75 -100 75 -271
q0 -170 -75 -270zM1149 354q0 -241 156 -241q155 0 155 241q0 242 -155 242q-156 0 -156 -242zM1866 354q0 -241 155 -241q156 0 156 241q0 242 -156 242q-155 0 -155 -242z" />
    <glyph glyph-name="guilsinglleft" unicode="&#x2039;" horiz-adv-x="700" 
d="M578 135h-156l-340 434v21l340 434h156v-20l-287 -424l287 -424v-21z" />
    <glyph glyph-name="guilsinglright" unicode="&#x203a;" horiz-adv-x="700" 
d="M279 135h-156v21l287 424l-287 424v20h156l339 -434v-21z" />
    <glyph glyph-name="fraction" unicode="&#x2044;" horiz-adv-x="1087" 
d="M141 -205h-161v21l970 1822h158v-20z" />
    <glyph glyph-name="uni205F" unicode="&#x205f;" horiz-adv-x="501" 
 />
    <glyph glyph-name="Euro" unicode="&#x20ac;" horiz-adv-x="1554" 
d="M858 147q335 0 391 318h183q-31 -230 -178 -356.5t-396 -126.5q-241 0 -396 128.5t-210 360.5h-129v156h106q-4 78 -4 88q0 57 2 73h-104v156h125q50 240 208 374t402 134q251 0 401 -132t173 -366h-185q-19 157 -117.5 243.5t-271.5 86.5q-167 0 -272 -89.5t-148 -250.5
h555l-41 -156h-540q-2 -16 -2 -73q0 -10 4 -88h508l-41 -156h-439q95 -324 416 -324z" />
    <glyph glyph-name="uni2116" unicode="&#x2116;" horiz-adv-x="2369" 
d="M1485 1067q0 175 88.5 280t251.5 105t251.5 -105t88.5 -280q0 -176 -87 -280.5t-253 -104.5t-253 104t-87 281zM379 0h-174v1434h194l734 -1141h8v1141h176v-1434h-197l-733 1135h-8v-1135zM1825 823q190 0 190 244t-190 244q-191 0 -191 -244q0 -115 48 -179.5
t143 -64.5zM2150 422h-626v145h626v-145z" />
    <glyph glyph-name="trademark" unicode="&#x2122;" horiz-adv-x="1501" 
d="M406 764h-125v551h-209v119h540v-119h-206v-551zM846 764h-119v670h139l211 -357h4l211 357h138v-670h-119v479h-4l-217 -364h-21l-219 366h-4v-481z" />
    <glyph glyph-name="minus" unicode="&#x2212;" horiz-adv-x="974" 
d="M965 567h-955v148h955v-148z" />
    <glyph glyph-name="notequal" unicode="&#x2260;" horiz-adv-x="974" 
d="M965 905v-147h-324l-147 -242h471v-147h-564l-100 -164h-147v20l88 144h-232v147h324l147 242h-471v147h563l101 164h147v-20l-88 -144h232z" />
    <glyph glyph-name="lessequal" unicode="&#x2264;" horiz-adv-x="1067" 
d="M965 428v-166l-863 377v205l863 377v-166l-732 -310v-8zM965 0h-863v147h863v-147z" />
    <glyph glyph-name="greaterequal" unicode="&#x2265;" horiz-adv-x="1067" 
d="M965 639l-863 -377v166l732 309v8l-732 310v166l863 -377v-205zM965 0h-863v147h863v-147z" />
    <glyph glyph-name="uni25FC" unicode="&#x25fc;" horiz-adv-x="1044" 
d="M0 0v1044h1044v-1044h-1044z" />
    <glyph glyph-name="NULL" horiz-adv-x="0" 
 />
    <glyph glyph-name="CR" horiz-adv-x="681" 
 />
    <glyph glyph-name="i.loclTRK" horiz-adv-x="520" 
d="M367 1264h-193v200h193v-200zM356 0h-172v1047h172v-1047z" />
    <glyph glyph-name="a.ss01" 
d="M549 -18q-216 0 -332 149q-115 151 -115 389q0 242 115 393q116 152 330 152q216 0 315 -164h8l23 146h149v-1047h-149l-14 145h-9q-42 -76 -126 -119.5t-195 -43.5zM575 135q145 0 222 105.5t77 281.5q0 173 -78 281t-221 108q-149 0 -224 -105t-75 -284
q0 -180 75 -283.5t224 -103.5z" />
    <glyph glyph-name="aacute.ss01" 
d="M647 1194h-153v20l155 279h236v-20zM549 -18q-216 0 -332 149q-115 151 -115 389q0 242 115 393q116 152 330 152q216 0 315 -164h8l23 146h149v-1047h-149l-14 145h-9q-42 -76 -126 -119.5t-195 -43.5zM575 135q145 0 222 105.5t77 281.5q0 173 -78 281t-221 108
q-149 0 -224 -105t-75 -284q0 -180 75 -283.5t224 -103.5z" />
    <glyph glyph-name="abreve.ss01" 
d="M602 1198q-139 0 -219 80t-80 211h150q9 -133 149 -133q141 0 150 133h149q0 -133 -78 -212t-221 -79zM549 -18q-216 0 -332 149q-115 151 -115 389q0 242 115 393q116 152 330 152q216 0 315 -164h8l23 146h149v-1047h-149l-14 145h-9q-42 -76 -126 -119.5t-195 -43.5z
M575 135q145 0 222 105.5t77 281.5q0 173 -78 281t-221 108q-149 0 -224 -105t-75 -284q0 -180 75 -283.5t224 -103.5z" />
    <glyph glyph-name="uni01CE.ss01" 
d="M717 1198h-228l-208 270v21h170l147 -164h8l148 164h172v-21zM549 -18q-216 0 -332 149q-115 151 -115 389q0 242 115 393q116 152 330 152q216 0 315 -164h8l23 146h149v-1047h-149l-14 145h-9q-42 -76 -126 -119.5t-195 -43.5zM575 135q145 0 222 105.5t77 281.5
q0 173 -78 281t-221 108q-149 0 -224 -105t-75 -284q0 -180 75 -283.5t224 -103.5z" />
    <glyph glyph-name="acircumflex.ss01" 
d="M457 1198h-170v21l209 270h227l209 -270v-21h-172l-148 164h-8zM549 -18q-216 0 -332 149q-115 151 -115 389q0 242 115 393q116 152 330 152q216 0 315 -164h8l23 146h149v-1047h-149l-14 145h-9q-42 -76 -126 -119.5t-195 -43.5zM575 135q145 0 222 105.5t77 281.5
q0 173 -78 281t-221 108q-149 0 -224 -105t-75 -284q0 -180 75 -283.5t224 -103.5z" />
    <glyph glyph-name="adieresis.ss01" 
d="M537 1264h-211v211h211v-211zM893 1264h-211v211h211v-211zM549 -18q-216 0 -332 149q-115 151 -115 389q0 242 115 393q116 152 330 152q216 0 315 -164h8l23 146h149v-1047h-149l-14 145h-9q-42 -76 -126 -119.5t-195 -43.5zM575 135q145 0 222 105.5t77 281.5
q0 173 -78 281t-221 108q-149 0 -224 -105t-75 -284q0 -180 75 -283.5t224 -103.5z" />
    <glyph glyph-name="agrave.ss01" 
d="M723 1194h-154l-237 279v20h235l156 -279v-20zM549 -18q-216 0 -332 149q-115 151 -115 389q0 242 115 393q116 152 330 152q216 0 315 -164h8l23 146h149v-1047h-149l-14 145h-9q-42 -76 -126 -119.5t-195 -43.5zM575 135q145 0 222 105.5t77 281.5q0 173 -78 281
t-221 108q-149 0 -224 -105t-75 -284q0 -180 75 -283.5t224 -103.5z" />
    <glyph glyph-name="amacron.ss01" 
d="M887 1264h-559v166h559v-166zM549 -18q-216 0 -332 149q-115 151 -115 389q0 242 115 393q116 152 330 152q216 0 315 -164h8l23 146h149v-1047h-149l-14 145h-9q-42 -76 -126 -119.5t-195 -43.5zM575 135q145 0 222 105.5t77 281.5q0 173 -78 281t-221 108
q-149 0 -224 -105t-75 -284q0 -180 75 -283.5t224 -103.5z" />
    <glyph glyph-name="aogonek.ss01" 
d="M1042 1047v-1047q-174 -82 -174 -199q0 -47 31 -71.5t78 -24.5h65v-147h-102q-100 0 -167.5 57t-67.5 149q0 171 186 259l-12 122h-9q-42 -76 -126 -119.5t-195 -43.5q-216 0 -332 149q-115 151 -115 389q0 242 115 393q116 152 330 152q216 0 315 -164h8l23 146h149z
M575 135q145 0 222 105.5t77 281.5q0 173 -78 281t-221 108q-149 0 -224 -105t-75 -284q0 -180 75 -283.5t224 -103.5z" />
    <glyph glyph-name="aring.ss01" 
d="M602 1171q-99 0 -163 63t-64 161t64.5 161.5t162.5 63.5q102 0 165.5 -62.5t63.5 -162.5q0 -98 -64.5 -161t-164.5 -63zM600 1296q62 -6 87.5 46t0 104.5t-87.5 48.5q-59 4 -83.5 -48.5t0 -104.5t83.5 -46zM549 -18q-216 0 -332 149q-115 151 -115 389q0 242 115 393
q116 152 330 152q216 0 315 -164h8l23 146h149v-1047h-149l-14 145h-9q-42 -76 -126 -119.5t-195 -43.5zM575 135q145 0 222 105.5t77 281.5q0 173 -78 281t-221 108q-149 0 -224 -105t-75 -284q0 -180 75 -283.5t224 -103.5z" />
    <glyph glyph-name="atilde.ss01" 
d="M698 1227q-67 0 -135 45l-28 18q-50 29 -84 29q-33 0 -54.5 -24t-21.5 -64h-123v31q0 95 55.5 147.5t145.5 52.5q69 0 137 -45l28 -18q50 -29 82 -29t54 25t22 63h121v-31q0 -96 -54.5 -148t-144.5 -52zM549 -18q-216 0 -332 149q-115 151 -115 389q0 242 115 393
q116 152 330 152q216 0 315 -164h8l23 146h149v-1047h-149l-14 145h-9q-42 -76 -126 -119.5t-195 -43.5zM575 135q145 0 222 105.5t77 281.5q0 173 -78 281t-221 108q-149 0 -224 -105t-75 -284q0 -180 75 -283.5t224 -103.5z" />
    <glyph glyph-name="caron.Slovak" horiz-adv-x="356" 
d="M203 1085h-121v349h192v-21z" />
    </font>
</defs>
</svg>
